%TF.GenerationSoftware,KiCad,Pcbnew,9.0.4*%
%TF.CreationDate,2026-04-16T21:31:32+05:30*%
%TF.ProjectId,ESP32_custom,45535033-325f-4637-9573-746f6d2e6b69,rev?*%
%TF.SameCoordinates,Original*%
%TF.FileFunction,Soldermask,Top*%
%TF.FilePolarity,Negative*%
%FSLAX46Y46*%
G04 Gerber Fmt 4.6, Leading zero omitted, Abs format (unit mm)*
G04 Created by KiCad (PCBNEW 9.0.4) date 2026-04-16 21:31:32*
%MOMM*%
%LPD*%
G01*
G04 APERTURE LIST*
G04 Aperture macros list*
%AMRoundRect*
0 Rectangle with rounded corners*
0 $1 Rounding radius*
0 $2 $3 $4 $5 $6 $7 $8 $9 X,Y pos of 4 corners*
0 Add a 4 corners polygon primitive as box body*
4,1,4,$2,$3,$4,$5,$6,$7,$8,$9,$2,$3,0*
0 Add four circle primitives for the rounded corners*
1,1,$1+$1,$2,$3*
1,1,$1+$1,$4,$5*
1,1,$1+$1,$6,$7*
1,1,$1+$1,$8,$9*
0 Add four rect primitives between the rounded corners*
20,1,$1+$1,$2,$3,$4,$5,0*
20,1,$1+$1,$4,$5,$6,$7,0*
20,1,$1+$1,$6,$7,$8,$9,0*
20,1,$1+$1,$8,$9,$2,$3,0*%
G04 Aperture macros list end*
%ADD10RoundRect,0.135000X-0.185000X0.135000X-0.185000X-0.135000X0.185000X-0.135000X0.185000X0.135000X0*%
%ADD11RoundRect,0.062500X0.337500X0.062500X-0.337500X0.062500X-0.337500X-0.062500X0.337500X-0.062500X0*%
%ADD12RoundRect,0.062500X0.062500X0.337500X-0.062500X0.337500X-0.062500X-0.337500X0.062500X-0.337500X0*%
%ADD13R,3.350000X3.350000*%
%ADD14RoundRect,0.140000X0.140000X0.170000X-0.140000X0.170000X-0.140000X-0.170000X0.140000X-0.170000X0*%
%ADD15RoundRect,0.140000X-0.140000X-0.170000X0.140000X-0.170000X0.140000X0.170000X-0.140000X0.170000X0*%
%ADD16RoundRect,0.140000X0.170000X-0.140000X0.170000X0.140000X-0.170000X0.140000X-0.170000X-0.140000X0*%
%ADD17RoundRect,0.135000X0.185000X-0.135000X0.185000X0.135000X-0.185000X0.135000X-0.185000X-0.135000X0*%
%ADD18R,1.500000X1.000000*%
%ADD19RoundRect,0.150000X-0.150000X0.587500X-0.150000X-0.587500X0.150000X-0.587500X0.150000X0.587500X0*%
%ADD20R,1.300000X0.400000*%
%ADD21C,1.350000*%
%ADD22O,1.900000X1.200000*%
%ADD23R,1.900000X1.500000*%
%ADD24RoundRect,0.135000X-0.135000X-0.185000X0.135000X-0.185000X0.135000X0.185000X-0.135000X0.185000X0*%
%ADD25RoundRect,0.135000X0.135000X0.185000X-0.135000X0.185000X-0.135000X-0.185000X0.135000X-0.185000X0*%
%ADD26R,0.950000X2.100000*%
%ADD27R,2.100000X0.950000*%
%ADD28R,0.900000X0.900000*%
%ADD29RoundRect,0.375000X-0.375000X0.625000X-0.375000X-0.625000X0.375000X-0.625000X0.375000X0.625000X0*%
%ADD30RoundRect,0.500000X-1.400000X0.500000X-1.400000X-0.500000X1.400000X-0.500000X1.400000X0.500000X0*%
%ADD31R,0.400000X0.600000*%
%ADD32R,1.700000X1.700000*%
%ADD33C,1.700000*%
%ADD34RoundRect,0.147500X-0.147500X-0.172500X0.147500X-0.172500X0.147500X0.172500X-0.147500X0.172500X0*%
%ADD35RoundRect,0.147500X0.147500X0.172500X-0.147500X0.172500X-0.147500X-0.172500X0.147500X-0.172500X0*%
%ADD36RoundRect,0.250000X-0.250000X-0.475000X0.250000X-0.475000X0.250000X0.475000X-0.250000X0.475000X0*%
%ADD37RoundRect,0.140000X-0.170000X0.140000X-0.170000X-0.140000X0.170000X-0.140000X0.170000X0.140000X0*%
G04 APERTURE END LIST*
D10*
%TO.C,R14*%
X64000000Y-40730000D03*
X64000000Y-41750000D03*
%TD*%
D11*
%TO.C,U2*%
X45730000Y-35450000D03*
X45730000Y-34950000D03*
X45730000Y-34450000D03*
X45730000Y-33950000D03*
X45730000Y-33450000D03*
X45730000Y-32950000D03*
X45730000Y-32450000D03*
D12*
X44780000Y-31500000D03*
X44280000Y-31500000D03*
X43780000Y-31500000D03*
X43280000Y-31500000D03*
X42780000Y-31500000D03*
X42280000Y-31500000D03*
X41780000Y-31500000D03*
D11*
X40830000Y-32450000D03*
X40830000Y-32950000D03*
X40830000Y-33450000D03*
X40830000Y-33950000D03*
X40830000Y-34450000D03*
X40830000Y-34950000D03*
X40830000Y-35450000D03*
D12*
X41780000Y-36400000D03*
X42280000Y-36400000D03*
X42780000Y-36400000D03*
X43280000Y-36400000D03*
X43780000Y-36400000D03*
X44280000Y-36400000D03*
X44780000Y-36400000D03*
D13*
X43280000Y-33950000D03*
%TD*%
D14*
%TO.C,C12*%
X28480000Y-29500000D03*
X27520000Y-29500000D03*
%TD*%
D15*
%TO.C,C1*%
X54290000Y-33250000D03*
X55250000Y-33250000D03*
%TD*%
D16*
%TO.C,C3*%
X31750000Y-31500000D03*
X31750000Y-30540000D03*
%TD*%
D17*
%TO.C,R3*%
X62250000Y-35270000D03*
X62250000Y-34250000D03*
%TD*%
D18*
%TO.C,SW1*%
X37750000Y-36850000D03*
X33450000Y-36850000D03*
X37750000Y-35250000D03*
X33450000Y-35250000D03*
%TD*%
D19*
%TO.C,Q3*%
X49200000Y-38750000D03*
X47300000Y-38750000D03*
X48250000Y-40625000D03*
%TD*%
D20*
%TO.C,USB1*%
X29410000Y-33900000D03*
X29410000Y-34550000D03*
X29410000Y-35200000D03*
X29410000Y-35850000D03*
X29410000Y-36500000D03*
D21*
X29430000Y-32700000D03*
X29430000Y-37700000D03*
D22*
X26730000Y-38700000D03*
X26730000Y-31700000D03*
D23*
X26800000Y-34200000D03*
X26800000Y-36200000D03*
%TD*%
D24*
%TO.C,R8*%
X43230000Y-30150000D03*
X44250000Y-30150000D03*
%TD*%
D16*
%TO.C,C2*%
X60700000Y-35300000D03*
X60700000Y-34340000D03*
%TD*%
D25*
%TO.C,R13*%
X52000000Y-37250000D03*
X50980000Y-37250000D03*
%TD*%
D26*
%TO.C,U3*%
X87922500Y-26400000D03*
X86652500Y-26400000D03*
X85382500Y-26400000D03*
X84112500Y-26400000D03*
X82842500Y-26400000D03*
X81572500Y-26400000D03*
X80302500Y-26400000D03*
X79032500Y-26400000D03*
X77762500Y-26400000D03*
X76492500Y-26400000D03*
X75222500Y-26400000D03*
X73952500Y-26400000D03*
X72682500Y-26400000D03*
X71412500Y-26400000D03*
D27*
X69922500Y-29690000D03*
X69922500Y-30960000D03*
X69922500Y-32230000D03*
X69922500Y-33500000D03*
X69922500Y-34770000D03*
X69922500Y-36040000D03*
X69922500Y-37310000D03*
X69922500Y-38580000D03*
X69922500Y-39850000D03*
X69922500Y-41120000D03*
D26*
X71412500Y-44400000D03*
X72682500Y-44400000D03*
X73952500Y-44400000D03*
X75222500Y-44400000D03*
X76492500Y-44400000D03*
X77762500Y-44400000D03*
X79032500Y-44400000D03*
X80302500Y-44400000D03*
X81572500Y-44400000D03*
X82842500Y-44400000D03*
X84112500Y-44400000D03*
X85382500Y-44400000D03*
X86652500Y-44400000D03*
X87922500Y-44400000D03*
D28*
X81642500Y-35300000D03*
X81642500Y-33900000D03*
X81642500Y-32500000D03*
X80242500Y-35300000D03*
X80242500Y-33900000D03*
X80242500Y-32500000D03*
X78842500Y-35300000D03*
X78842500Y-33900000D03*
X78842500Y-32500000D03*
%TD*%
D29*
%TO.C,U1*%
X58800000Y-35250000D03*
X56500000Y-35250000D03*
D30*
X56500000Y-41550000D03*
D29*
X54200000Y-35250000D03*
%TD*%
D31*
%TO.C,D1*%
X30750000Y-30250000D03*
X30750000Y-31750000D03*
%TD*%
D10*
%TO.C,R4*%
X62500000Y-37730000D03*
X62500000Y-38750000D03*
%TD*%
D24*
%TO.C,R12*%
X47240000Y-36750000D03*
X48260000Y-36750000D03*
%TD*%
%TO.C,R5*%
X47180000Y-30150000D03*
X48200000Y-30150000D03*
%TD*%
D10*
%TO.C,R15*%
X63000000Y-40740000D03*
X63000000Y-41760000D03*
%TD*%
D32*
%TO.C,J2*%
X33460000Y-39250000D03*
D33*
X36000000Y-39250000D03*
%TD*%
D10*
%TO.C,R11*%
X45750000Y-39230000D03*
X45750000Y-40250000D03*
%TD*%
D34*
%TO.C,D4*%
X60500000Y-32250000D03*
X61470000Y-32250000D03*
%TD*%
D24*
%TO.C,R7*%
X41250000Y-30150000D03*
X42270000Y-30150000D03*
%TD*%
D35*
%TO.C,D5*%
X65220000Y-39500000D03*
X64250000Y-39500000D03*
%TD*%
D16*
%TO.C,C9*%
X66250000Y-35250000D03*
X66250000Y-34290000D03*
%TD*%
D24*
%TO.C,R9*%
X37240000Y-41500000D03*
X38260000Y-41500000D03*
%TD*%
D31*
%TO.C,D2*%
X31250000Y-32750000D03*
X31250000Y-34250000D03*
%TD*%
D24*
%TO.C,R10*%
X39730000Y-41500000D03*
X40750000Y-41500000D03*
%TD*%
D19*
%TO.C,Q4*%
X43500000Y-38812500D03*
X41600000Y-38812500D03*
X42550000Y-40687500D03*
%TD*%
D36*
%TO.C,C10*%
X64300000Y-36750000D03*
X66200000Y-36750000D03*
%TD*%
D31*
%TO.C,D3*%
X31250000Y-35250000D03*
X31250000Y-36750000D03*
%TD*%
D32*
%TO.C,J1*%
X56000000Y-30500000D03*
D33*
X53460000Y-30500000D03*
X50920000Y-30500000D03*
%TD*%
D18*
%TO.C,SW2*%
X33450000Y-31650000D03*
X37750000Y-31650000D03*
X33450000Y-33250000D03*
X37750000Y-33250000D03*
%TD*%
D14*
%TO.C,C8*%
X33480000Y-41500000D03*
X32520000Y-41500000D03*
%TD*%
D15*
%TO.C,C7*%
X51040000Y-38250000D03*
X52000000Y-38250000D03*
%TD*%
D37*
%TO.C,C6*%
X47800000Y-34120000D03*
X47800000Y-35080000D03*
%TD*%
%TO.C,C13*%
X66750000Y-29290000D03*
X66750000Y-30250000D03*
%TD*%
D25*
%TO.C,R6*%
X46250000Y-30150000D03*
X45230000Y-30150000D03*
%TD*%
D15*
%TO.C,C11*%
X27250000Y-41500000D03*
X28210000Y-41500000D03*
%TD*%
D32*
%TO.C,J3*%
X27200000Y-44000000D03*
D33*
X29740000Y-44000000D03*
X32280000Y-44000000D03*
X34820000Y-44000000D03*
X37360000Y-44000000D03*
X39900000Y-44000000D03*
X42440000Y-44000000D03*
X44980000Y-44000000D03*
X47520000Y-44000000D03*
X50060000Y-44000000D03*
X52600000Y-44000000D03*
X55140000Y-44000000D03*
X57680000Y-44000000D03*
X60220000Y-44000000D03*
X62760000Y-44000000D03*
X65300000Y-44000000D03*
X67840000Y-44000000D03*
%TD*%
D32*
%TO.C,J4*%
X27200000Y-27200000D03*
D33*
X29740000Y-27200000D03*
X32280000Y-27200000D03*
X34820000Y-27200000D03*
X37360000Y-27200000D03*
X39900000Y-27200000D03*
X42440000Y-27200000D03*
X44980000Y-27200000D03*
X47520000Y-27200000D03*
X50060000Y-27200000D03*
X52600000Y-27200000D03*
X55140000Y-27200000D03*
X57680000Y-27200000D03*
X60220000Y-27200000D03*
X62760000Y-27200000D03*
X65300000Y-27200000D03*
X67840000Y-27200000D03*
%TD*%
M02*
