%TF.GenerationSoftware,KiCad,Pcbnew,9.0.4*%
%TF.CreationDate,2026-04-16T21:31:32+05:30*%
%TF.ProjectId,ESP32_custom,45535033-325f-4637-9573-746f6d2e6b69,rev?*%
%TF.SameCoordinates,Original*%
%TF.FileFunction,Copper,L2,Inr*%
%TF.FilePolarity,Positive*%
%FSLAX46Y46*%
G04 Gerber Fmt 4.6, Leading zero omitted, Abs format (unit mm)*
G04 Created by KiCad (PCBNEW 9.0.4) date 2026-04-16 21:31:32*
%MOMM*%
%LPD*%
G01*
G04 APERTURE LIST*
%TA.AperFunction,ComponentPad*%
%ADD10C,1.350000*%
%TD*%
%TA.AperFunction,ComponentPad*%
%ADD11O,1.900000X1.200000*%
%TD*%
%TA.AperFunction,ComponentPad*%
%ADD12R,1.700000X1.700000*%
%TD*%
%TA.AperFunction,ComponentPad*%
%ADD13C,1.700000*%
%TD*%
%TA.AperFunction,ViaPad*%
%ADD14C,0.600000*%
%TD*%
G04 APERTURE END LIST*
D10*
%TO.N,GND*%
%TO.C,USB1*%
X29430000Y-32700000D03*
X29430000Y-37700000D03*
D11*
X26730000Y-38700000D03*
X26730000Y-31700000D03*
%TD*%
D12*
%TO.N,/+3v3*%
%TO.C,J2*%
X33460000Y-39250000D03*
D13*
%TO.N,Net-(J2-Pin_2)*%
X36000000Y-39250000D03*
%TD*%
D12*
%TO.N,/+5V_EXT*%
%TO.C,J1*%
X56000000Y-30500000D03*
D13*
%TO.N,/+5V*%
X53460000Y-30500000D03*
%TO.N,/+5V_VBUS*%
X50920000Y-30500000D03*
%TD*%
D12*
%TO.N,/+3v3*%
%TO.C,J3*%
X27200000Y-44000000D03*
D13*
%TO.N,GND*%
X29740000Y-44000000D03*
%TO.N,/IO23*%
X32280000Y-44000000D03*
%TO.N,/IO22*%
X34820000Y-44000000D03*
%TO.N,/TXD0*%
X37360000Y-44000000D03*
%TO.N,/RXD0*%
X39900000Y-44000000D03*
%TO.N,/IO21*%
X42440000Y-44000000D03*
%TO.N,GND*%
X44980000Y-44000000D03*
%TO.N,/IO19*%
X47520000Y-44000000D03*
%TO.N,/IO18*%
X50060000Y-44000000D03*
%TO.N,/IO5*%
X52600000Y-44000000D03*
%TO.N,/IO17*%
X55140000Y-44000000D03*
%TO.N,/IO16*%
X57680000Y-44000000D03*
%TO.N,/IO4*%
X60220000Y-44000000D03*
%TO.N,/IO0_CON*%
X62760000Y-44000000D03*
%TO.N,/IO2*%
X65300000Y-44000000D03*
%TO.N,/IO15*%
X67840000Y-44000000D03*
%TD*%
D12*
%TO.N,GND*%
%TO.C,J4*%
X27200000Y-27200000D03*
D13*
%TO.N,/+3v3*%
X29740000Y-27200000D03*
%TO.N,/EN*%
X32280000Y-27200000D03*
%TO.N,/I36*%
X34820000Y-27200000D03*
%TO.N,/I39*%
X37360000Y-27200000D03*
%TO.N,/I34*%
X39900000Y-27200000D03*
%TO.N,/I35*%
X42440000Y-27200000D03*
%TO.N,/IO32*%
X44980000Y-27200000D03*
%TO.N,/IO33*%
X47520000Y-27200000D03*
%TO.N,/IO25*%
X50060000Y-27200000D03*
%TO.N,/IO26*%
X52600000Y-27200000D03*
%TO.N,/IO27*%
X55140000Y-27200000D03*
%TO.N,/IO14*%
X57680000Y-27200000D03*
%TO.N,/IO12*%
X60220000Y-27200000D03*
%TO.N,GND*%
X62760000Y-27200000D03*
%TO.N,/IO13*%
X65300000Y-27200000D03*
%TO.N,/+5V_EXT*%
X67840000Y-27200000D03*
%TD*%
D14*
%TO.N,*%
X48500000Y-28250000D03*
%TO.N,GND*%
X32500000Y-33250000D03*
X60931343Y-33790902D03*
X58750000Y-33000000D03*
X30750000Y-29750000D03*
X29250000Y-41500000D03*
X39250000Y-36000000D03*
X39250000Y-30000000D03*
X41750000Y-32750000D03*
X52500000Y-38250000D03*
X42750000Y-32750000D03*
X31750000Y-32750000D03*
X27750000Y-37250000D03*
X31750000Y-35250000D03*
X36250000Y-32750000D03*
X39250000Y-30000000D03*
X28500000Y-36500000D03*
X66750000Y-32370000D03*
X27750000Y-33250000D03*
X47000000Y-35500000D03*
X36250000Y-35750000D03*
X68113247Y-35970001D03*
X26750000Y-29500000D03*
X71250000Y-29750000D03*
X82500000Y-32500000D03*
X44750000Y-29250000D03*
X55500000Y-32500000D03*
X87922500Y-42827500D03*
X32500000Y-35250000D03*
X60000000Y-32250000D03*
X31750000Y-30000000D03*
X31500000Y-41500000D03*
X48750000Y-35300003D03*
X87922500Y-27827500D03*
X65687793Y-34439207D03*
%TO.N,/+3v3*%
X43750000Y-29250000D03*
X29250000Y-29500000D03*
X56500000Y-38000000D03*
X63250000Y-35750000D03*
X52500000Y-37250000D03*
X45750000Y-31750000D03*
X56250000Y-33000000D03*
X61750000Y-35750000D03*
X49546032Y-35220395D03*
X64250000Y-35750000D03*
X85382500Y-27867500D03*
X26500000Y-41250000D03*
X61000000Y-35750000D03*
X64500000Y-33750000D03*
X46157328Y-31262934D03*
%TO.N,Net-(C7-Pad1)*%
X51000000Y-38750000D03*
X39250000Y-38250000D03*
%TO.N,/USB_DN*%
X46750000Y-33500000D03*
X34750000Y-34250000D03*
X34750000Y-34250000D03*
%TO.N,/USB_DP*%
X47000000Y-34500000D03*
X31250000Y-37750000D03*
%TO.N,/IO18*%
X66000000Y-39500000D03*
X77762500Y-42762500D03*
%TO.N,/IO22*%
X85382500Y-42882500D03*
%TO.N,/IO19*%
X79032500Y-42782500D03*
%TO.N,/IO4*%
X72682500Y-42817500D03*
%TO.N,/RXD0*%
X82842500Y-42842500D03*
%TO.N,/IO21*%
X81572500Y-42822500D03*
%TO.N,/IO2*%
X69000000Y-42750000D03*
%TO.N,/IO16*%
X73952500Y-42797500D03*
%TO.N,/TXD0*%
X84112500Y-42862500D03*
%TO.N,/IO17*%
X75222500Y-42777500D03*
%TO.N,/IO5*%
X76492500Y-42757500D03*
%TO.N,/IO23*%
X86652500Y-42902500D03*
%TO.N,/IO27*%
X74000000Y-28000000D03*
%TO.N,/IO14*%
X72750000Y-28000000D03*
%TO.N,/I35*%
X80302500Y-27947500D03*
%TO.N,/IO25*%
X76500000Y-28000000D03*
%TO.N,/IO13*%
X69500000Y-27250000D03*
%TO.N,/IO26*%
X75250000Y-28000000D03*
%TO.N,/IO32*%
X79000000Y-28000000D03*
%TO.N,/IO33*%
X57403042Y-29915000D03*
X51000000Y-28500000D03*
X77750000Y-28000000D03*
%TO.N,/I34*%
X81572500Y-27927500D03*
%TO.N,/IO12*%
X71250000Y-28000000D03*
%TO.N,/EN*%
X86500000Y-28000000D03*
X32250000Y-28750000D03*
X50000000Y-37000000D03*
%TO.N,/I36*%
X84112500Y-27887500D03*
%TO.N,/I39*%
X82842500Y-27907500D03*
%TO.N,/DTR*%
X40750000Y-39250000D03*
X45500000Y-36750000D03*
%TO.N,/RXD*%
X38250000Y-41000000D03*
X44250000Y-38500000D03*
%TO.N,/TXD*%
X40750000Y-40750000D03*
X45250000Y-38000000D03*
%TO.N,/IO0*%
X71412500Y-42837500D03*
X66327000Y-42122000D03*
%TD*%
%TA.AperFunction,Conductor*%
%TO.N,/+3v3*%
G36*
X88642539Y-25130185D02*
G01*
X88688294Y-25182989D01*
X88699500Y-25234500D01*
X88699500Y-27173059D01*
X88679815Y-27240098D01*
X88627011Y-27285853D01*
X88557853Y-27295797D01*
X88494297Y-27266772D01*
X88487819Y-27260740D01*
X88432792Y-27205713D01*
X88432788Y-27205710D01*
X88301685Y-27118109D01*
X88301672Y-27118102D01*
X88156001Y-27057764D01*
X88155989Y-27057761D01*
X88001345Y-27027000D01*
X88001342Y-27027000D01*
X87843658Y-27027000D01*
X87843655Y-27027000D01*
X87689010Y-27057761D01*
X87688998Y-27057764D01*
X87543327Y-27118102D01*
X87543314Y-27118109D01*
X87412211Y-27205710D01*
X87412207Y-27205713D01*
X87300713Y-27317207D01*
X87300710Y-27317211D01*
X87243894Y-27402242D01*
X87190281Y-27447047D01*
X87120956Y-27455754D01*
X87057929Y-27425599D01*
X87053111Y-27421032D01*
X87010292Y-27378213D01*
X87010288Y-27378210D01*
X86879185Y-27290609D01*
X86879172Y-27290602D01*
X86733501Y-27230264D01*
X86733489Y-27230261D01*
X86578845Y-27199500D01*
X86578842Y-27199500D01*
X86421158Y-27199500D01*
X86421155Y-27199500D01*
X86266510Y-27230261D01*
X86266498Y-27230264D01*
X86120827Y-27290602D01*
X86120814Y-27290609D01*
X85989711Y-27378210D01*
X85989707Y-27378213D01*
X85878213Y-27489707D01*
X85878210Y-27489711D01*
X85790609Y-27620814D01*
X85790602Y-27620827D01*
X85730264Y-27766498D01*
X85730261Y-27766510D01*
X85699500Y-27921153D01*
X85699500Y-28078846D01*
X85730261Y-28233489D01*
X85730264Y-28233501D01*
X85790602Y-28379172D01*
X85790609Y-28379185D01*
X85878210Y-28510288D01*
X85878213Y-28510292D01*
X85989707Y-28621786D01*
X85989711Y-28621789D01*
X86120814Y-28709390D01*
X86120827Y-28709397D01*
X86266498Y-28769735D01*
X86266503Y-28769737D01*
X86421153Y-28800499D01*
X86421156Y-28800500D01*
X86421158Y-28800500D01*
X86578844Y-28800500D01*
X86578845Y-28800499D01*
X86733497Y-28769737D01*
X86879179Y-28709394D01*
X87010289Y-28621789D01*
X87121789Y-28510289D01*
X87178606Y-28425256D01*
X87232216Y-28380453D01*
X87301541Y-28371745D01*
X87364569Y-28401899D01*
X87369388Y-28406467D01*
X87412207Y-28449286D01*
X87412211Y-28449289D01*
X87543314Y-28536890D01*
X87543327Y-28536897D01*
X87683023Y-28594760D01*
X87689003Y-28597237D01*
X87843653Y-28627999D01*
X87843656Y-28628000D01*
X87843658Y-28628000D01*
X88001344Y-28628000D01*
X88001345Y-28627999D01*
X88155997Y-28597237D01*
X88288727Y-28542259D01*
X88301672Y-28536897D01*
X88301672Y-28536896D01*
X88301679Y-28536894D01*
X88432789Y-28449289D01*
X88456820Y-28425258D01*
X88487819Y-28394260D01*
X88549142Y-28360775D01*
X88618834Y-28365759D01*
X88674767Y-28407631D01*
X88699184Y-28473095D01*
X88699500Y-28481941D01*
X88699500Y-42173059D01*
X88679815Y-42240098D01*
X88627011Y-42285853D01*
X88557853Y-42295797D01*
X88494297Y-42266772D01*
X88487819Y-42260740D01*
X88432792Y-42205713D01*
X88432788Y-42205710D01*
X88301685Y-42118109D01*
X88301672Y-42118102D01*
X88156001Y-42057764D01*
X88155989Y-42057761D01*
X88001345Y-42027000D01*
X88001342Y-42027000D01*
X87843658Y-42027000D01*
X87843655Y-42027000D01*
X87689010Y-42057761D01*
X87688998Y-42057764D01*
X87543327Y-42118102D01*
X87543314Y-42118109D01*
X87412211Y-42205710D01*
X87337680Y-42280241D01*
X87276356Y-42313725D01*
X87206665Y-42308740D01*
X87168041Y-42283915D01*
X87167499Y-42284576D01*
X87162788Y-42280710D01*
X87031685Y-42193109D01*
X87031672Y-42193102D01*
X86886001Y-42132764D01*
X86885989Y-42132761D01*
X86731345Y-42102000D01*
X86731342Y-42102000D01*
X86573658Y-42102000D01*
X86573655Y-42102000D01*
X86419010Y-42132761D01*
X86418998Y-42132764D01*
X86273327Y-42193102D01*
X86273314Y-42193109D01*
X86142211Y-42280710D01*
X86142207Y-42280713D01*
X86115181Y-42307740D01*
X86053858Y-42341225D01*
X85984166Y-42336241D01*
X85939819Y-42307740D01*
X85892792Y-42260713D01*
X85892788Y-42260710D01*
X85761685Y-42173109D01*
X85761672Y-42173102D01*
X85616001Y-42112764D01*
X85615989Y-42112761D01*
X85461345Y-42082000D01*
X85461342Y-42082000D01*
X85303658Y-42082000D01*
X85303655Y-42082000D01*
X85149010Y-42112761D01*
X85148998Y-42112764D01*
X85003327Y-42173102D01*
X85003314Y-42173109D01*
X84872211Y-42260710D01*
X84872207Y-42260713D01*
X84845181Y-42287740D01*
X84783858Y-42321225D01*
X84714166Y-42316241D01*
X84669819Y-42287740D01*
X84622792Y-42240713D01*
X84622788Y-42240710D01*
X84491685Y-42153109D01*
X84491672Y-42153102D01*
X84346001Y-42092764D01*
X84345989Y-42092761D01*
X84191345Y-42062000D01*
X84191342Y-42062000D01*
X84033658Y-42062000D01*
X84033655Y-42062000D01*
X83879010Y-42092761D01*
X83878998Y-42092764D01*
X83733327Y-42153102D01*
X83733314Y-42153109D01*
X83602211Y-42240710D01*
X83602207Y-42240713D01*
X83575181Y-42267740D01*
X83513858Y-42301225D01*
X83444166Y-42296241D01*
X83399819Y-42267740D01*
X83352792Y-42220713D01*
X83352788Y-42220710D01*
X83221685Y-42133109D01*
X83221672Y-42133102D01*
X83076001Y-42072764D01*
X83075989Y-42072761D01*
X82921345Y-42042000D01*
X82921342Y-42042000D01*
X82763658Y-42042000D01*
X82763655Y-42042000D01*
X82609010Y-42072761D01*
X82608998Y-42072764D01*
X82463327Y-42133102D01*
X82463314Y-42133109D01*
X82332211Y-42220710D01*
X82332207Y-42220713D01*
X82305181Y-42247740D01*
X82243858Y-42281225D01*
X82174166Y-42276241D01*
X82129819Y-42247740D01*
X82082792Y-42200713D01*
X82082788Y-42200710D01*
X81951685Y-42113109D01*
X81951672Y-42113102D01*
X81806001Y-42052764D01*
X81805989Y-42052761D01*
X81651345Y-42022000D01*
X81651342Y-42022000D01*
X81493658Y-42022000D01*
X81493655Y-42022000D01*
X81339010Y-42052761D01*
X81338998Y-42052764D01*
X81193327Y-42113102D01*
X81193314Y-42113109D01*
X81062211Y-42200710D01*
X81062207Y-42200713D01*
X80950713Y-42312207D01*
X80950710Y-42312211D01*
X80863109Y-42443314D01*
X80863102Y-42443327D01*
X80802764Y-42588998D01*
X80802761Y-42589010D01*
X80772000Y-42743653D01*
X80772000Y-42901346D01*
X80802761Y-43055989D01*
X80802764Y-43056001D01*
X80863102Y-43201672D01*
X80863109Y-43201685D01*
X80950710Y-43332788D01*
X80950713Y-43332792D01*
X81062207Y-43444286D01*
X81062211Y-43444289D01*
X81193314Y-43531890D01*
X81193327Y-43531897D01*
X81326927Y-43587235D01*
X81339003Y-43592237D01*
X81493653Y-43622999D01*
X81493656Y-43623000D01*
X81493658Y-43623000D01*
X81651344Y-43623000D01*
X81651345Y-43622999D01*
X81805997Y-43592237D01*
X81939608Y-43536894D01*
X81951672Y-43531897D01*
X81951672Y-43531896D01*
X81951679Y-43531894D01*
X82082789Y-43444289D01*
X82109817Y-43417260D01*
X82171137Y-43383775D01*
X82240829Y-43388757D01*
X82285180Y-43417259D01*
X82332207Y-43464286D01*
X82332211Y-43464289D01*
X82463314Y-43551890D01*
X82463327Y-43551897D01*
X82579221Y-43599901D01*
X82609003Y-43612237D01*
X82763653Y-43642999D01*
X82763656Y-43643000D01*
X82763658Y-43643000D01*
X82921344Y-43643000D01*
X82921345Y-43642999D01*
X83075997Y-43612237D01*
X83221679Y-43551894D01*
X83352789Y-43464289D01*
X83379817Y-43437260D01*
X83441137Y-43403775D01*
X83510829Y-43408757D01*
X83555180Y-43437259D01*
X83602207Y-43484286D01*
X83602211Y-43484289D01*
X83733314Y-43571890D01*
X83733327Y-43571897D01*
X83868771Y-43627999D01*
X83879003Y-43632237D01*
X84033653Y-43662999D01*
X84033656Y-43663000D01*
X84033658Y-43663000D01*
X84191344Y-43663000D01*
X84191345Y-43662999D01*
X84345997Y-43632237D01*
X84491679Y-43571894D01*
X84622789Y-43484289D01*
X84649817Y-43457260D01*
X84711137Y-43423775D01*
X84780829Y-43428757D01*
X84825180Y-43457259D01*
X84872207Y-43504286D01*
X84872211Y-43504289D01*
X85003314Y-43591890D01*
X85003327Y-43591897D01*
X85148998Y-43652235D01*
X85149003Y-43652237D01*
X85267381Y-43675784D01*
X85303653Y-43682999D01*
X85303656Y-43683000D01*
X85303658Y-43683000D01*
X85461344Y-43683000D01*
X85461345Y-43682999D01*
X85615997Y-43652237D01*
X85761679Y-43591894D01*
X85892789Y-43504289D01*
X85919817Y-43477260D01*
X85981137Y-43443775D01*
X86050829Y-43448757D01*
X86095180Y-43477259D01*
X86142207Y-43524286D01*
X86142211Y-43524289D01*
X86273314Y-43611890D01*
X86273327Y-43611897D01*
X86418998Y-43672235D01*
X86419003Y-43672237D01*
X86523350Y-43692993D01*
X86573653Y-43702999D01*
X86573656Y-43703000D01*
X86573658Y-43703000D01*
X86731344Y-43703000D01*
X86731345Y-43702999D01*
X86885997Y-43672237D01*
X87031679Y-43611894D01*
X87162789Y-43524289D01*
X87237319Y-43449758D01*
X87298639Y-43416274D01*
X87368331Y-43421258D01*
X87406960Y-43446083D01*
X87407501Y-43445424D01*
X87412211Y-43449289D01*
X87543314Y-43536890D01*
X87543327Y-43536897D01*
X87676111Y-43591897D01*
X87689003Y-43597237D01*
X87843653Y-43627999D01*
X87843656Y-43628000D01*
X87843658Y-43628000D01*
X88001344Y-43628000D01*
X88001345Y-43627999D01*
X88155997Y-43597237D01*
X88276713Y-43547235D01*
X88301672Y-43536897D01*
X88301672Y-43536896D01*
X88301679Y-43536894D01*
X88432789Y-43449289D01*
X88458303Y-43423775D01*
X88487819Y-43394260D01*
X88549142Y-43360775D01*
X88618834Y-43365759D01*
X88674767Y-43407631D01*
X88699184Y-43473095D01*
X88699500Y-43481941D01*
X88699500Y-45385500D01*
X88679815Y-45452539D01*
X88627011Y-45498294D01*
X88575500Y-45509500D01*
X68347449Y-45509500D01*
X68280410Y-45489815D01*
X68234655Y-45437011D01*
X68224711Y-45367853D01*
X68253736Y-45304297D01*
X68309129Y-45267569D01*
X68358412Y-45251557D01*
X68547816Y-45155051D01*
X68634471Y-45092093D01*
X68719786Y-45030109D01*
X68719788Y-45030106D01*
X68719792Y-45030104D01*
X68870104Y-44879792D01*
X68870106Y-44879788D01*
X68870109Y-44879786D01*
X68995048Y-44707820D01*
X68995047Y-44707820D01*
X68995051Y-44707816D01*
X69091557Y-44518412D01*
X69157246Y-44316243D01*
X69190500Y-44106287D01*
X69190500Y-43893713D01*
X69157246Y-43683757D01*
X69154653Y-43675779D01*
X69152655Y-43605943D01*
X69188732Y-43546108D01*
X69228442Y-43523451D01*
X69227869Y-43522068D01*
X69264496Y-43506897D01*
X69361082Y-43466890D01*
X69379172Y-43459397D01*
X69379172Y-43459396D01*
X69379179Y-43459394D01*
X69510289Y-43371789D01*
X69621789Y-43260289D01*
X69709394Y-43129179D01*
X69769737Y-42983497D01*
X69800500Y-42828842D01*
X69800500Y-42758653D01*
X70612000Y-42758653D01*
X70612000Y-42916346D01*
X70642761Y-43070989D01*
X70642764Y-43071001D01*
X70703102Y-43216672D01*
X70703109Y-43216685D01*
X70790710Y-43347788D01*
X70790713Y-43347792D01*
X70902207Y-43459286D01*
X70902211Y-43459289D01*
X71033314Y-43546890D01*
X71033327Y-43546897D01*
X71161292Y-43599901D01*
X71179003Y-43607237D01*
X71304676Y-43632235D01*
X71333653Y-43637999D01*
X71333656Y-43638000D01*
X71333658Y-43638000D01*
X71491344Y-43638000D01*
X71491345Y-43637999D01*
X71645997Y-43607237D01*
X71779608Y-43551894D01*
X71791672Y-43546897D01*
X71791672Y-43546896D01*
X71791679Y-43546894D01*
X71922789Y-43459289D01*
X71969820Y-43412257D01*
X72031139Y-43378774D01*
X72100830Y-43383757D01*
X72145180Y-43412259D01*
X72172207Y-43439286D01*
X72172211Y-43439289D01*
X72303314Y-43526890D01*
X72303327Y-43526897D01*
X72438771Y-43582999D01*
X72449003Y-43587237D01*
X72574676Y-43612235D01*
X72603653Y-43617999D01*
X72603656Y-43618000D01*
X72603658Y-43618000D01*
X72761344Y-43618000D01*
X72761345Y-43617999D01*
X72915997Y-43587237D01*
X73034024Y-43538349D01*
X73061672Y-43526897D01*
X73061672Y-43526896D01*
X73061679Y-43526894D01*
X73192789Y-43439289D01*
X73239820Y-43392257D01*
X73301139Y-43358774D01*
X73370830Y-43363757D01*
X73415180Y-43392259D01*
X73442207Y-43419286D01*
X73442211Y-43419289D01*
X73573314Y-43506890D01*
X73573327Y-43506897D01*
X73708771Y-43562999D01*
X73719003Y-43567237D01*
X73844676Y-43592235D01*
X73873653Y-43597999D01*
X73873656Y-43598000D01*
X73873658Y-43598000D01*
X74031344Y-43598000D01*
X74031345Y-43597999D01*
X74185997Y-43567237D01*
X74331679Y-43506894D01*
X74462789Y-43419289D01*
X74509820Y-43372257D01*
X74571139Y-43338774D01*
X74640830Y-43343757D01*
X74685180Y-43372259D01*
X74712207Y-43399286D01*
X74712211Y-43399289D01*
X74843314Y-43486890D01*
X74843327Y-43486897D01*
X74967545Y-43538349D01*
X74989003Y-43547237D01*
X75143653Y-43577999D01*
X75143656Y-43578000D01*
X75143658Y-43578000D01*
X75301344Y-43578000D01*
X75301345Y-43577999D01*
X75455997Y-43547237D01*
X75589608Y-43491894D01*
X75601672Y-43486897D01*
X75601672Y-43486896D01*
X75601679Y-43486894D01*
X75732789Y-43399289D01*
X75779820Y-43352257D01*
X75841139Y-43318774D01*
X75910830Y-43323757D01*
X75955180Y-43352259D01*
X75982207Y-43379286D01*
X75982211Y-43379289D01*
X76113314Y-43466890D01*
X76113327Y-43466897D01*
X76251886Y-43524289D01*
X76259003Y-43527237D01*
X76384676Y-43552235D01*
X76413653Y-43557999D01*
X76413656Y-43558000D01*
X76413658Y-43558000D01*
X76571344Y-43558000D01*
X76571345Y-43557999D01*
X76725997Y-43527237D01*
X76846648Y-43477262D01*
X76871672Y-43466897D01*
X76871672Y-43466896D01*
X76871679Y-43466894D01*
X77002789Y-43379289D01*
X77037318Y-43344759D01*
X77098638Y-43311274D01*
X77168330Y-43316257D01*
X77212680Y-43344759D01*
X77252207Y-43384286D01*
X77252211Y-43384289D01*
X77383314Y-43471890D01*
X77383327Y-43471897D01*
X77516111Y-43526897D01*
X77529003Y-43532237D01*
X77683653Y-43562999D01*
X77683656Y-43563000D01*
X77683658Y-43563000D01*
X77841344Y-43563000D01*
X77841345Y-43562999D01*
X77995997Y-43532237D01*
X78117423Y-43481941D01*
X78141672Y-43471897D01*
X78141672Y-43471896D01*
X78141679Y-43471894D01*
X78272789Y-43384289D01*
X78299817Y-43357260D01*
X78361137Y-43323775D01*
X78430829Y-43328757D01*
X78475180Y-43357259D01*
X78522207Y-43404286D01*
X78522211Y-43404289D01*
X78653314Y-43491890D01*
X78653327Y-43491897D01*
X78786111Y-43546897D01*
X78799003Y-43552237D01*
X78953653Y-43582999D01*
X78953656Y-43583000D01*
X78953658Y-43583000D01*
X79111344Y-43583000D01*
X79111345Y-43582999D01*
X79265997Y-43552237D01*
X79411679Y-43491894D01*
X79542789Y-43404289D01*
X79654289Y-43292789D01*
X79741894Y-43161679D01*
X79802237Y-43015997D01*
X79833000Y-42861342D01*
X79833000Y-42703658D01*
X79833000Y-42703655D01*
X79832999Y-42703653D01*
X79826534Y-42671153D01*
X79802237Y-42549003D01*
X79788773Y-42516498D01*
X79741897Y-42403327D01*
X79741890Y-42403314D01*
X79654289Y-42272211D01*
X79654286Y-42272207D01*
X79542792Y-42160713D01*
X79542788Y-42160710D01*
X79411685Y-42073109D01*
X79411672Y-42073102D01*
X79266001Y-42012764D01*
X79265989Y-42012761D01*
X79111345Y-41982000D01*
X79111342Y-41982000D01*
X78953658Y-41982000D01*
X78953655Y-41982000D01*
X78799010Y-42012761D01*
X78798998Y-42012764D01*
X78653327Y-42073102D01*
X78653314Y-42073109D01*
X78522211Y-42160710D01*
X78522207Y-42160713D01*
X78495181Y-42187740D01*
X78433858Y-42221225D01*
X78364166Y-42216241D01*
X78319819Y-42187740D01*
X78272792Y-42140713D01*
X78272788Y-42140710D01*
X78141685Y-42053109D01*
X78141672Y-42053102D01*
X77996001Y-41992764D01*
X77995989Y-41992761D01*
X77841345Y-41962000D01*
X77841342Y-41962000D01*
X77683658Y-41962000D01*
X77683655Y-41962000D01*
X77529010Y-41992761D01*
X77528998Y-41992764D01*
X77383327Y-42053102D01*
X77383314Y-42053109D01*
X77252211Y-42140710D01*
X77252207Y-42140713D01*
X77217681Y-42175240D01*
X77156358Y-42208725D01*
X77086666Y-42203741D01*
X77042319Y-42175240D01*
X77002792Y-42135713D01*
X77002788Y-42135710D01*
X76871685Y-42048109D01*
X76871672Y-42048102D01*
X76726001Y-41987764D01*
X76725989Y-41987761D01*
X76571345Y-41957000D01*
X76571342Y-41957000D01*
X76413658Y-41957000D01*
X76413655Y-41957000D01*
X76259010Y-41987761D01*
X76258998Y-41987764D01*
X76113327Y-42048102D01*
X76113314Y-42048109D01*
X75982211Y-42135710D01*
X75982207Y-42135713D01*
X75935181Y-42182740D01*
X75873858Y-42216225D01*
X75804166Y-42211241D01*
X75759819Y-42182740D01*
X75732792Y-42155713D01*
X75732788Y-42155710D01*
X75601685Y-42068109D01*
X75601672Y-42068102D01*
X75456001Y-42007764D01*
X75455989Y-42007761D01*
X75301345Y-41977000D01*
X75301342Y-41977000D01*
X75143658Y-41977000D01*
X75143655Y-41977000D01*
X74989010Y-42007761D01*
X74988998Y-42007764D01*
X74843327Y-42068102D01*
X74843314Y-42068109D01*
X74712211Y-42155710D01*
X74712207Y-42155713D01*
X74665181Y-42202740D01*
X74603858Y-42236225D01*
X74534166Y-42231241D01*
X74489819Y-42202740D01*
X74462792Y-42175713D01*
X74462788Y-42175710D01*
X74331685Y-42088109D01*
X74331672Y-42088102D01*
X74186001Y-42027764D01*
X74185989Y-42027761D01*
X74031345Y-41997000D01*
X74031342Y-41997000D01*
X73873658Y-41997000D01*
X73873655Y-41997000D01*
X73719010Y-42027761D01*
X73718998Y-42027764D01*
X73573327Y-42088102D01*
X73573314Y-42088109D01*
X73442211Y-42175710D01*
X73442207Y-42175713D01*
X73395181Y-42222740D01*
X73333858Y-42256225D01*
X73264166Y-42251241D01*
X73219819Y-42222740D01*
X73192792Y-42195713D01*
X73192788Y-42195710D01*
X73061685Y-42108109D01*
X73061672Y-42108102D01*
X72916001Y-42047764D01*
X72915989Y-42047761D01*
X72761345Y-42017000D01*
X72761342Y-42017000D01*
X72603658Y-42017000D01*
X72603655Y-42017000D01*
X72449010Y-42047761D01*
X72448998Y-42047764D01*
X72303327Y-42108102D01*
X72303314Y-42108109D01*
X72172211Y-42195710D01*
X72172207Y-42195713D01*
X72125181Y-42242740D01*
X72063858Y-42276225D01*
X71994166Y-42271241D01*
X71949819Y-42242740D01*
X71922792Y-42215713D01*
X71922788Y-42215710D01*
X71791685Y-42128109D01*
X71791672Y-42128102D01*
X71646001Y-42067764D01*
X71645989Y-42067761D01*
X71491345Y-42037000D01*
X71491342Y-42037000D01*
X71333658Y-42037000D01*
X71333655Y-42037000D01*
X71179010Y-42067761D01*
X71178998Y-42067764D01*
X71033327Y-42128102D01*
X71033314Y-42128109D01*
X70902211Y-42215710D01*
X70902207Y-42215713D01*
X70790713Y-42327207D01*
X70790710Y-42327211D01*
X70703109Y-42458314D01*
X70703102Y-42458327D01*
X70642764Y-42603998D01*
X70642761Y-42604010D01*
X70612000Y-42758653D01*
X69800500Y-42758653D01*
X69800500Y-42671158D01*
X69800500Y-42671155D01*
X69800499Y-42671153D01*
X69799990Y-42668594D01*
X69769737Y-42516503D01*
X69745640Y-42458327D01*
X69709397Y-42370827D01*
X69709390Y-42370814D01*
X69621789Y-42239711D01*
X69621786Y-42239707D01*
X69510292Y-42128213D01*
X69510288Y-42128210D01*
X69379185Y-42040609D01*
X69379172Y-42040602D01*
X69233501Y-41980264D01*
X69233489Y-41980261D01*
X69078845Y-41949500D01*
X69078842Y-41949500D01*
X68921158Y-41949500D01*
X68921155Y-41949500D01*
X68766510Y-41980261D01*
X68766498Y-41980264D01*
X68620827Y-42040602D01*
X68620814Y-42040609D01*
X68489711Y-42128210D01*
X68489707Y-42128213D01*
X68378213Y-42239707D01*
X68378210Y-42239711D01*
X68290609Y-42370814D01*
X68290602Y-42370827D01*
X68230264Y-42516498D01*
X68230261Y-42516507D01*
X68219201Y-42572110D01*
X68186815Y-42634021D01*
X68126099Y-42668594D01*
X68078187Y-42670390D01*
X67946287Y-42649500D01*
X67733713Y-42649500D01*
X67685042Y-42657208D01*
X67523760Y-42682753D01*
X67523757Y-42682754D01*
X67335912Y-42743789D01*
X67321585Y-42748444D01*
X67132179Y-42844951D01*
X66960213Y-42969890D01*
X66809890Y-43120213D01*
X66684949Y-43292182D01*
X66680484Y-43300946D01*
X66632509Y-43351742D01*
X66564688Y-43368536D01*
X66498553Y-43345998D01*
X66468779Y-43316275D01*
X66463588Y-43308939D01*
X66455051Y-43292184D01*
X66330104Y-43120208D01*
X66329884Y-43119988D01*
X66327118Y-43116079D01*
X66316040Y-43083763D01*
X66304541Y-43051532D01*
X66304723Y-43050747D01*
X66304462Y-43049985D01*
X66312625Y-43016767D01*
X66320367Y-42983478D01*
X66320944Y-42982916D01*
X66321137Y-42982134D01*
X66345960Y-42958606D01*
X66370473Y-42934784D01*
X66371464Y-42934432D01*
X66371848Y-42934069D01*
X66373223Y-42933808D01*
X66404148Y-42922837D01*
X66405842Y-42922500D01*
X66560497Y-42891737D01*
X66706179Y-42831394D01*
X66837289Y-42743789D01*
X66948789Y-42632289D01*
X67036394Y-42501179D01*
X67096737Y-42355497D01*
X67127500Y-42200842D01*
X67127500Y-42043158D01*
X67127500Y-42043155D01*
X67127499Y-42043153D01*
X67121454Y-42012761D01*
X67096737Y-41888503D01*
X67092872Y-41879172D01*
X67036397Y-41742827D01*
X67036390Y-41742814D01*
X66948789Y-41611711D01*
X66948786Y-41611707D01*
X66837292Y-41500213D01*
X66837288Y-41500210D01*
X66706185Y-41412609D01*
X66706172Y-41412602D01*
X66560501Y-41352264D01*
X66560489Y-41352261D01*
X66405845Y-41321500D01*
X66405842Y-41321500D01*
X66248158Y-41321500D01*
X66248155Y-41321500D01*
X66093510Y-41352261D01*
X66093498Y-41352264D01*
X65947827Y-41412602D01*
X65947814Y-41412609D01*
X65816711Y-41500210D01*
X65816707Y-41500213D01*
X65705213Y-41611707D01*
X65705210Y-41611711D01*
X65617609Y-41742814D01*
X65617602Y-41742827D01*
X65557264Y-41888498D01*
X65557261Y-41888510D01*
X65526500Y-42043153D01*
X65526500Y-42200846D01*
X65557261Y-42355489D01*
X65557264Y-42355501D01*
X65613460Y-42491171D01*
X65620929Y-42560640D01*
X65589654Y-42623119D01*
X65529564Y-42658771D01*
X65479501Y-42661096D01*
X65406287Y-42649500D01*
X65193713Y-42649500D01*
X65145042Y-42657208D01*
X64983760Y-42682753D01*
X64983757Y-42682754D01*
X64795912Y-42743789D01*
X64781585Y-42748444D01*
X64592179Y-42844951D01*
X64420213Y-42969890D01*
X64269890Y-43120213D01*
X64144949Y-43292182D01*
X64140484Y-43300946D01*
X64092509Y-43351742D01*
X64024688Y-43368536D01*
X63958553Y-43345998D01*
X63919516Y-43300946D01*
X63915050Y-43292182D01*
X63790109Y-43120213D01*
X63639786Y-42969890D01*
X63467820Y-42844951D01*
X63278414Y-42748444D01*
X63278413Y-42748443D01*
X63278412Y-42748443D01*
X63076243Y-42682754D01*
X63076241Y-42682753D01*
X63076240Y-42682753D01*
X62914957Y-42657208D01*
X62866287Y-42649500D01*
X62653713Y-42649500D01*
X62605042Y-42657208D01*
X62443760Y-42682753D01*
X62443757Y-42682754D01*
X62255912Y-42743789D01*
X62241585Y-42748444D01*
X62052179Y-42844951D01*
X61880213Y-42969890D01*
X61729890Y-43120213D01*
X61604949Y-43292182D01*
X61600484Y-43300946D01*
X61552509Y-43351742D01*
X61484688Y-43368536D01*
X61418553Y-43345998D01*
X61379516Y-43300946D01*
X61375050Y-43292182D01*
X61250109Y-43120213D01*
X61099786Y-42969890D01*
X60927820Y-42844951D01*
X60738414Y-42748444D01*
X60738413Y-42748443D01*
X60738412Y-42748443D01*
X60536243Y-42682754D01*
X60536241Y-42682753D01*
X60536240Y-42682753D01*
X60374957Y-42657208D01*
X60326287Y-42649500D01*
X60113713Y-42649500D01*
X60065042Y-42657208D01*
X59903760Y-42682753D01*
X59903757Y-42682754D01*
X59715912Y-42743789D01*
X59701585Y-42748444D01*
X59512179Y-42844951D01*
X59340213Y-42969890D01*
X59189890Y-43120213D01*
X59064949Y-43292182D01*
X59060484Y-43300946D01*
X59012509Y-43351742D01*
X58944688Y-43368536D01*
X58878553Y-43345998D01*
X58839516Y-43300946D01*
X58835050Y-43292182D01*
X58710109Y-43120213D01*
X58559786Y-42969890D01*
X58387820Y-42844951D01*
X58198414Y-42748444D01*
X58198413Y-42748443D01*
X58198412Y-42748443D01*
X57996243Y-42682754D01*
X57996241Y-42682753D01*
X57996240Y-42682753D01*
X57834957Y-42657208D01*
X57786287Y-42649500D01*
X57573713Y-42649500D01*
X57525042Y-42657208D01*
X57363760Y-42682753D01*
X57363757Y-42682754D01*
X57175912Y-42743789D01*
X57161585Y-42748444D01*
X56972179Y-42844951D01*
X56800213Y-42969890D01*
X56649890Y-43120213D01*
X56524949Y-43292182D01*
X56520484Y-43300946D01*
X56472509Y-43351742D01*
X56404688Y-43368536D01*
X56338553Y-43345998D01*
X56299516Y-43300946D01*
X56295050Y-43292182D01*
X56170109Y-43120213D01*
X56019786Y-42969890D01*
X55847820Y-42844951D01*
X55658414Y-42748444D01*
X55658413Y-42748443D01*
X55658412Y-42748443D01*
X55456243Y-42682754D01*
X55456241Y-42682753D01*
X55456240Y-42682753D01*
X55294957Y-42657208D01*
X55246287Y-42649500D01*
X55033713Y-42649500D01*
X54985042Y-42657208D01*
X54823760Y-42682753D01*
X54823757Y-42682754D01*
X54635912Y-42743789D01*
X54621585Y-42748444D01*
X54432179Y-42844951D01*
X54260213Y-42969890D01*
X54109890Y-43120213D01*
X53984949Y-43292182D01*
X53980484Y-43300946D01*
X53932509Y-43351742D01*
X53864688Y-43368536D01*
X53798553Y-43345998D01*
X53759516Y-43300946D01*
X53755050Y-43292182D01*
X53630109Y-43120213D01*
X53479786Y-42969890D01*
X53307820Y-42844951D01*
X53118414Y-42748444D01*
X53118413Y-42748443D01*
X53118412Y-42748443D01*
X52916243Y-42682754D01*
X52916241Y-42682753D01*
X52916240Y-42682753D01*
X52754957Y-42657208D01*
X52706287Y-42649500D01*
X52493713Y-42649500D01*
X52445042Y-42657208D01*
X52283760Y-42682753D01*
X52283757Y-42682754D01*
X52095912Y-42743789D01*
X52081585Y-42748444D01*
X51892179Y-42844951D01*
X51720213Y-42969890D01*
X51569890Y-43120213D01*
X51444949Y-43292182D01*
X51440484Y-43300946D01*
X51392509Y-43351742D01*
X51324688Y-43368536D01*
X51258553Y-43345998D01*
X51219516Y-43300946D01*
X51215050Y-43292182D01*
X51090109Y-43120213D01*
X50939786Y-42969890D01*
X50767820Y-42844951D01*
X50578414Y-42748444D01*
X50578413Y-42748443D01*
X50578412Y-42748443D01*
X50376243Y-42682754D01*
X50376241Y-42682753D01*
X50376240Y-42682753D01*
X50214957Y-42657208D01*
X50166287Y-42649500D01*
X49953713Y-42649500D01*
X49905042Y-42657208D01*
X49743760Y-42682753D01*
X49743757Y-42682754D01*
X49555912Y-42743789D01*
X49541585Y-42748444D01*
X49352179Y-42844951D01*
X49180213Y-42969890D01*
X49029890Y-43120213D01*
X48904949Y-43292182D01*
X48900484Y-43300946D01*
X48852509Y-43351742D01*
X48784688Y-43368536D01*
X48718553Y-43345998D01*
X48679516Y-43300946D01*
X48675050Y-43292182D01*
X48550109Y-43120213D01*
X48399786Y-42969890D01*
X48227820Y-42844951D01*
X48038414Y-42748444D01*
X48038413Y-42748443D01*
X48038412Y-42748443D01*
X47836243Y-42682754D01*
X47836241Y-42682753D01*
X47836240Y-42682753D01*
X47674957Y-42657208D01*
X47626287Y-42649500D01*
X47413713Y-42649500D01*
X47365042Y-42657208D01*
X47203760Y-42682753D01*
X47203757Y-42682754D01*
X47015912Y-42743789D01*
X47001585Y-42748444D01*
X46812179Y-42844951D01*
X46640213Y-42969890D01*
X46489890Y-43120213D01*
X46364949Y-43292182D01*
X46360484Y-43300946D01*
X46312509Y-43351742D01*
X46244688Y-43368536D01*
X46178553Y-43345998D01*
X46139516Y-43300946D01*
X46135050Y-43292182D01*
X46010109Y-43120213D01*
X45859786Y-42969890D01*
X45687820Y-42844951D01*
X45498414Y-42748444D01*
X45498413Y-42748443D01*
X45498412Y-42748443D01*
X45296243Y-42682754D01*
X45296241Y-42682753D01*
X45296240Y-42682753D01*
X45134957Y-42657208D01*
X45086287Y-42649500D01*
X44873713Y-42649500D01*
X44825042Y-42657208D01*
X44663760Y-42682753D01*
X44663757Y-42682754D01*
X44475912Y-42743789D01*
X44461585Y-42748444D01*
X44272179Y-42844951D01*
X44100213Y-42969890D01*
X43949890Y-43120213D01*
X43824949Y-43292182D01*
X43820484Y-43300946D01*
X43772509Y-43351742D01*
X43704688Y-43368536D01*
X43638553Y-43345998D01*
X43599516Y-43300946D01*
X43595050Y-43292182D01*
X43470109Y-43120213D01*
X43319786Y-42969890D01*
X43147820Y-42844951D01*
X42958414Y-42748444D01*
X42958413Y-42748443D01*
X42958412Y-42748443D01*
X42756243Y-42682754D01*
X42756241Y-42682753D01*
X42756240Y-42682753D01*
X42594957Y-42657208D01*
X42546287Y-42649500D01*
X42333713Y-42649500D01*
X42285042Y-42657208D01*
X42123760Y-42682753D01*
X42123757Y-42682754D01*
X41935912Y-42743789D01*
X41921585Y-42748444D01*
X41732179Y-42844951D01*
X41560213Y-42969890D01*
X41409890Y-43120213D01*
X41284949Y-43292182D01*
X41280484Y-43300946D01*
X41232509Y-43351742D01*
X41164688Y-43368536D01*
X41098553Y-43345998D01*
X41059516Y-43300946D01*
X41055050Y-43292182D01*
X40930109Y-43120213D01*
X40779786Y-42969890D01*
X40607820Y-42844951D01*
X40418414Y-42748444D01*
X40418413Y-42748443D01*
X40418412Y-42748443D01*
X40216243Y-42682754D01*
X40216241Y-42682753D01*
X40216240Y-42682753D01*
X40054957Y-42657208D01*
X40006287Y-42649500D01*
X39793713Y-42649500D01*
X39745042Y-42657208D01*
X39583760Y-42682753D01*
X39583757Y-42682754D01*
X39395912Y-42743789D01*
X39381585Y-42748444D01*
X39192179Y-42844951D01*
X39020213Y-42969890D01*
X38869890Y-43120213D01*
X38744949Y-43292182D01*
X38740484Y-43300946D01*
X38692509Y-43351742D01*
X38624688Y-43368536D01*
X38558553Y-43345998D01*
X38519516Y-43300946D01*
X38515050Y-43292182D01*
X38390109Y-43120213D01*
X38239786Y-42969890D01*
X38067820Y-42844951D01*
X37878414Y-42748444D01*
X37878413Y-42748443D01*
X37878412Y-42748443D01*
X37676243Y-42682754D01*
X37676241Y-42682753D01*
X37676240Y-42682753D01*
X37514957Y-42657208D01*
X37466287Y-42649500D01*
X37253713Y-42649500D01*
X37205042Y-42657208D01*
X37043760Y-42682753D01*
X37043757Y-42682754D01*
X36855912Y-42743789D01*
X36841585Y-42748444D01*
X36652179Y-42844951D01*
X36480213Y-42969890D01*
X36329890Y-43120213D01*
X36204949Y-43292182D01*
X36200484Y-43300946D01*
X36152509Y-43351742D01*
X36084688Y-43368536D01*
X36018553Y-43345998D01*
X35979516Y-43300946D01*
X35975050Y-43292182D01*
X35850109Y-43120213D01*
X35699786Y-42969890D01*
X35527820Y-42844951D01*
X35338414Y-42748444D01*
X35338413Y-42748443D01*
X35338412Y-42748443D01*
X35136243Y-42682754D01*
X35136241Y-42682753D01*
X35136240Y-42682753D01*
X34974957Y-42657208D01*
X34926287Y-42649500D01*
X34713713Y-42649500D01*
X34665042Y-42657208D01*
X34503760Y-42682753D01*
X34503757Y-42682754D01*
X34315912Y-42743789D01*
X34301585Y-42748444D01*
X34112179Y-42844951D01*
X33940213Y-42969890D01*
X33789890Y-43120213D01*
X33664949Y-43292182D01*
X33660484Y-43300946D01*
X33612509Y-43351742D01*
X33544688Y-43368536D01*
X33478553Y-43345998D01*
X33439516Y-43300946D01*
X33435050Y-43292182D01*
X33310109Y-43120213D01*
X33159786Y-42969890D01*
X32987820Y-42844951D01*
X32798414Y-42748444D01*
X32798413Y-42748443D01*
X32798412Y-42748443D01*
X32596243Y-42682754D01*
X32596241Y-42682753D01*
X32596240Y-42682753D01*
X32434957Y-42657208D01*
X32386287Y-42649500D01*
X32173713Y-42649500D01*
X32125042Y-42657208D01*
X31963760Y-42682753D01*
X31963757Y-42682754D01*
X31775912Y-42743789D01*
X31761585Y-42748444D01*
X31572179Y-42844951D01*
X31400213Y-42969890D01*
X31249890Y-43120213D01*
X31124949Y-43292182D01*
X31120484Y-43300946D01*
X31072509Y-43351742D01*
X31004688Y-43368536D01*
X30938553Y-43345998D01*
X30899516Y-43300946D01*
X30895050Y-43292182D01*
X30770109Y-43120213D01*
X30619786Y-42969890D01*
X30447820Y-42844951D01*
X30258414Y-42748444D01*
X30258413Y-42748443D01*
X30258412Y-42748443D01*
X30056243Y-42682754D01*
X30056241Y-42682753D01*
X30056240Y-42682753D01*
X29894957Y-42657208D01*
X29846287Y-42649500D01*
X29633713Y-42649500D01*
X29585042Y-42657208D01*
X29423760Y-42682753D01*
X29423757Y-42682754D01*
X29235912Y-42743789D01*
X29221585Y-42748444D01*
X29032179Y-42844951D01*
X28860215Y-42969889D01*
X28746285Y-43083819D01*
X28684962Y-43117303D01*
X28615270Y-43112319D01*
X28559337Y-43070447D01*
X28542422Y-43039470D01*
X28493354Y-42907913D01*
X28493350Y-42907906D01*
X28407190Y-42792812D01*
X28407187Y-42792809D01*
X28292093Y-42706649D01*
X28292086Y-42706645D01*
X28157379Y-42656403D01*
X28157372Y-42656401D01*
X28097844Y-42650000D01*
X27450000Y-42650000D01*
X27450000Y-43566988D01*
X27392993Y-43534075D01*
X27265826Y-43500000D01*
X27134174Y-43500000D01*
X27007007Y-43534075D01*
X26950000Y-43566988D01*
X26950000Y-42650000D01*
X26302155Y-42650000D01*
X26242627Y-42656401D01*
X26242620Y-42656403D01*
X26107913Y-42706645D01*
X26107906Y-42706649D01*
X25992812Y-42792809D01*
X25992809Y-42792812D01*
X25906649Y-42907906D01*
X25906645Y-42907913D01*
X25856403Y-43042620D01*
X25856401Y-43042627D01*
X25850000Y-43102155D01*
X25850000Y-43750000D01*
X26766988Y-43750000D01*
X26734075Y-43807007D01*
X26700000Y-43934174D01*
X26700000Y-44065826D01*
X26734075Y-44192993D01*
X26766988Y-44250000D01*
X25850000Y-44250000D01*
X25850000Y-44897844D01*
X25856401Y-44957372D01*
X25856403Y-44957379D01*
X25906645Y-45092086D01*
X25906649Y-45092093D01*
X25992809Y-45207187D01*
X25992812Y-45207190D01*
X26098400Y-45286234D01*
X26140271Y-45342168D01*
X26145255Y-45411859D01*
X26111769Y-45473182D01*
X26050446Y-45506666D01*
X26024089Y-45509500D01*
X25724500Y-45509500D01*
X25657461Y-45489815D01*
X25611706Y-45437011D01*
X25600500Y-45385500D01*
X25600500Y-41421153D01*
X28449500Y-41421153D01*
X28449500Y-41578846D01*
X28480261Y-41733489D01*
X28480264Y-41733501D01*
X28540602Y-41879172D01*
X28540609Y-41879185D01*
X28628210Y-42010288D01*
X28628213Y-42010292D01*
X28739707Y-42121786D01*
X28739711Y-42121789D01*
X28870814Y-42209390D01*
X28870827Y-42209397D01*
X29011682Y-42267740D01*
X29016503Y-42269737D01*
X29107010Y-42287740D01*
X29171153Y-42300499D01*
X29171156Y-42300500D01*
X29171158Y-42300500D01*
X29328844Y-42300500D01*
X29328845Y-42300499D01*
X29483497Y-42269737D01*
X29612649Y-42216241D01*
X29629172Y-42209397D01*
X29629172Y-42209396D01*
X29629179Y-42209394D01*
X29760289Y-42121789D01*
X29871789Y-42010289D01*
X29959394Y-41879179D01*
X30019737Y-41733497D01*
X30050500Y-41578842D01*
X30050500Y-41421158D01*
X30050500Y-41421155D01*
X30050499Y-41421153D01*
X30699500Y-41421153D01*
X30699500Y-41578846D01*
X30730261Y-41733489D01*
X30730264Y-41733501D01*
X30790602Y-41879172D01*
X30790609Y-41879185D01*
X30878210Y-42010288D01*
X30878213Y-42010292D01*
X30989707Y-42121786D01*
X30989711Y-42121789D01*
X31120814Y-42209390D01*
X31120827Y-42209397D01*
X31261682Y-42267740D01*
X31266503Y-42269737D01*
X31357010Y-42287740D01*
X31421153Y-42300499D01*
X31421156Y-42300500D01*
X31421158Y-42300500D01*
X31578844Y-42300500D01*
X31578845Y-42300499D01*
X31733497Y-42269737D01*
X31862649Y-42216241D01*
X31879172Y-42209397D01*
X31879172Y-42209396D01*
X31879179Y-42209394D01*
X32010289Y-42121789D01*
X32121789Y-42010289D01*
X32209394Y-41879179D01*
X32269737Y-41733497D01*
X32300500Y-41578842D01*
X32300500Y-41421158D01*
X32300500Y-41421155D01*
X32300499Y-41421153D01*
X32286795Y-41352261D01*
X32269737Y-41266503D01*
X32256062Y-41233489D01*
X32209397Y-41120827D01*
X32209390Y-41120814D01*
X32121790Y-40989712D01*
X32121784Y-40989705D01*
X32053232Y-40921153D01*
X37449500Y-40921153D01*
X37449500Y-41078846D01*
X37480261Y-41233489D01*
X37480264Y-41233501D01*
X37540602Y-41379172D01*
X37540609Y-41379185D01*
X37628210Y-41510288D01*
X37628213Y-41510292D01*
X37739707Y-41621786D01*
X37739711Y-41621789D01*
X37870814Y-41709390D01*
X37870827Y-41709397D01*
X38016498Y-41769735D01*
X38016503Y-41769737D01*
X38171153Y-41800499D01*
X38171156Y-41800500D01*
X38171158Y-41800500D01*
X38328844Y-41800500D01*
X38328845Y-41800499D01*
X38483497Y-41769737D01*
X38629179Y-41709394D01*
X38760289Y-41621789D01*
X38871789Y-41510289D01*
X38959394Y-41379179D01*
X39019737Y-41233497D01*
X39050500Y-41078842D01*
X39050500Y-40921158D01*
X39050500Y-40921155D01*
X39050499Y-40921153D01*
X39024531Y-40790606D01*
X39019737Y-40766503D01*
X39019735Y-40766498D01*
X38959397Y-40620827D01*
X38959390Y-40620814D01*
X38871789Y-40489711D01*
X38871786Y-40489707D01*
X38760292Y-40378213D01*
X38760288Y-40378210D01*
X38629185Y-40290609D01*
X38629172Y-40290602D01*
X38483501Y-40230264D01*
X38483489Y-40230261D01*
X38328845Y-40199500D01*
X38328842Y-40199500D01*
X38171158Y-40199500D01*
X38171155Y-40199500D01*
X38016510Y-40230261D01*
X38016498Y-40230264D01*
X37870827Y-40290602D01*
X37870814Y-40290609D01*
X37739711Y-40378210D01*
X37739707Y-40378213D01*
X37628213Y-40489707D01*
X37628210Y-40489711D01*
X37540609Y-40620814D01*
X37540602Y-40620827D01*
X37480264Y-40766498D01*
X37480261Y-40766510D01*
X37449500Y-40921153D01*
X32053232Y-40921153D01*
X32010292Y-40878213D01*
X32010288Y-40878210D01*
X31879185Y-40790609D01*
X31879172Y-40790602D01*
X31733501Y-40730264D01*
X31733489Y-40730261D01*
X31578845Y-40699500D01*
X31578842Y-40699500D01*
X31421158Y-40699500D01*
X31421155Y-40699500D01*
X31266510Y-40730261D01*
X31266498Y-40730264D01*
X31120827Y-40790602D01*
X31120814Y-40790609D01*
X30989711Y-40878210D01*
X30989707Y-40878213D01*
X30878213Y-40989707D01*
X30878210Y-40989711D01*
X30790609Y-41120814D01*
X30790602Y-41120827D01*
X30730264Y-41266498D01*
X30730261Y-41266510D01*
X30699500Y-41421153D01*
X30050499Y-41421153D01*
X30036795Y-41352261D01*
X30019737Y-41266503D01*
X30006062Y-41233489D01*
X29959397Y-41120827D01*
X29959390Y-41120814D01*
X29871789Y-40989711D01*
X29871786Y-40989707D01*
X29760292Y-40878213D01*
X29760288Y-40878210D01*
X29629185Y-40790609D01*
X29629172Y-40790602D01*
X29483501Y-40730264D01*
X29483489Y-40730261D01*
X29328845Y-40699500D01*
X29328842Y-40699500D01*
X29171158Y-40699500D01*
X29171155Y-40699500D01*
X29016510Y-40730261D01*
X29016498Y-40730264D01*
X28870827Y-40790602D01*
X28870814Y-40790609D01*
X28739711Y-40878210D01*
X28739707Y-40878213D01*
X28628213Y-40989707D01*
X28628210Y-40989711D01*
X28540609Y-41120814D01*
X28540602Y-41120827D01*
X28480264Y-41266498D01*
X28480261Y-41266510D01*
X28449500Y-41421153D01*
X25600500Y-41421153D01*
X25600500Y-39737317D01*
X25620185Y-39670278D01*
X25672989Y-39624523D01*
X25742147Y-39614579D01*
X25797386Y-39637000D01*
X25803207Y-39641229D01*
X25803209Y-39641230D01*
X25803212Y-39641232D01*
X25957555Y-39719873D01*
X26122299Y-39773402D01*
X26293389Y-39800500D01*
X26293390Y-39800500D01*
X27166610Y-39800500D01*
X27166611Y-39800500D01*
X27337701Y-39773402D01*
X27502445Y-39719873D01*
X27656788Y-39641232D01*
X27796928Y-39539414D01*
X27919414Y-39416928D01*
X28021232Y-39276788D01*
X28099873Y-39122445D01*
X28153402Y-38957701D01*
X28180500Y-38786611D01*
X28180500Y-38613389D01*
X28153402Y-38442299D01*
X28099873Y-38277555D01*
X28032019Y-38144384D01*
X28029502Y-38130982D01*
X28022494Y-38119287D01*
X28023181Y-38097319D01*
X28019124Y-38075715D01*
X28024252Y-38063079D01*
X28024679Y-38049452D01*
X28037134Y-38031342D01*
X28045401Y-38010975D01*
X28057388Y-38001892D01*
X28064272Y-37991884D01*
X28093978Y-37974169D01*
X28094546Y-37973740D01*
X28094671Y-37973687D01*
X28129179Y-37959394D01*
X28129899Y-37958912D01*
X28136100Y-37956312D01*
X28165258Y-37953046D01*
X28193986Y-37947060D01*
X28199581Y-37949202D01*
X28205536Y-37948536D01*
X28231837Y-37961556D01*
X28259235Y-37972049D01*
X28262782Y-37976875D01*
X28268153Y-37979534D01*
X28283238Y-38004704D01*
X28300615Y-38028346D01*
X28301990Y-38032343D01*
X28340621Y-38151235D01*
X28340620Y-38151235D01*
X28402187Y-38272065D01*
X28424622Y-38316096D01*
X28533379Y-38465787D01*
X28664213Y-38596621D01*
X28813904Y-38705378D01*
X28881286Y-38739711D01*
X28978764Y-38789379D01*
X28978767Y-38789380D01*
X29033582Y-38807190D01*
X29154736Y-38846555D01*
X29337486Y-38875500D01*
X29337487Y-38875500D01*
X29522513Y-38875500D01*
X29522514Y-38875500D01*
X29705264Y-38846555D01*
X29881235Y-38789379D01*
X30046096Y-38705378D01*
X30195787Y-38596621D01*
X30326621Y-38465787D01*
X30435378Y-38316096D01*
X30441819Y-38303452D01*
X30489791Y-38252658D01*
X30557611Y-38235860D01*
X30623747Y-38258395D01*
X30639986Y-38272065D01*
X30739707Y-38371786D01*
X30739711Y-38371789D01*
X30870814Y-38459390D01*
X30870827Y-38459397D01*
X31008683Y-38516498D01*
X31016503Y-38519737D01*
X31129326Y-38542179D01*
X31171153Y-38550499D01*
X31171156Y-38550500D01*
X31171158Y-38550500D01*
X31328844Y-38550500D01*
X31328845Y-38550499D01*
X31483497Y-38519737D01*
X31613740Y-38465789D01*
X31629172Y-38459397D01*
X31629172Y-38459396D01*
X31629179Y-38459394D01*
X31760289Y-38371789D01*
X31871789Y-38260289D01*
X31887121Y-38237342D01*
X31940732Y-38192537D01*
X32010057Y-38183828D01*
X32073085Y-38213982D01*
X32109805Y-38273424D01*
X32113514Y-38319487D01*
X32110000Y-38352171D01*
X32110000Y-39000000D01*
X33026988Y-39000000D01*
X32994075Y-39057007D01*
X32960000Y-39184174D01*
X32960000Y-39315826D01*
X32994075Y-39442993D01*
X33026988Y-39500000D01*
X32110000Y-39500000D01*
X32110000Y-40147844D01*
X32116401Y-40207372D01*
X32116403Y-40207379D01*
X32166645Y-40342086D01*
X32166649Y-40342093D01*
X32252809Y-40457187D01*
X32252812Y-40457190D01*
X32367906Y-40543350D01*
X32367913Y-40543354D01*
X32502620Y-40593596D01*
X32502627Y-40593598D01*
X32562155Y-40599999D01*
X32562172Y-40600000D01*
X33210000Y-40600000D01*
X33210000Y-39683012D01*
X33267007Y-39715925D01*
X33394174Y-39750000D01*
X33525826Y-39750000D01*
X33652993Y-39715925D01*
X33710000Y-39683012D01*
X33710000Y-40600000D01*
X34357828Y-40600000D01*
X34357844Y-40599999D01*
X34417372Y-40593598D01*
X34417379Y-40593596D01*
X34552086Y-40543354D01*
X34552093Y-40543350D01*
X34667187Y-40457190D01*
X34667190Y-40457187D01*
X34753350Y-40342093D01*
X34753354Y-40342086D01*
X34802422Y-40210529D01*
X34844293Y-40154595D01*
X34909757Y-40130178D01*
X34978030Y-40145030D01*
X35006285Y-40166181D01*
X35120213Y-40280109D01*
X35292179Y-40405048D01*
X35292181Y-40405049D01*
X35292184Y-40405051D01*
X35481588Y-40501557D01*
X35683757Y-40567246D01*
X35893713Y-40600500D01*
X35893714Y-40600500D01*
X36106286Y-40600500D01*
X36106287Y-40600500D01*
X36316243Y-40567246D01*
X36518412Y-40501557D01*
X36707816Y-40405051D01*
X36794471Y-40342093D01*
X36879786Y-40280109D01*
X36879788Y-40280106D01*
X36879792Y-40280104D01*
X37030104Y-40129792D01*
X37030106Y-40129788D01*
X37030109Y-40129786D01*
X37139086Y-39979789D01*
X37155051Y-39957816D01*
X37251557Y-39768412D01*
X37317246Y-39566243D01*
X37350500Y-39356287D01*
X37350500Y-39143713D01*
X37317246Y-38933757D01*
X37251557Y-38731588D01*
X37155051Y-38542184D01*
X37155049Y-38542181D01*
X37155048Y-38542179D01*
X37030109Y-38370213D01*
X36879786Y-38219890D01*
X36812704Y-38171153D01*
X38449500Y-38171153D01*
X38449500Y-38328846D01*
X38480261Y-38483489D01*
X38480264Y-38483501D01*
X38540602Y-38629172D01*
X38540609Y-38629185D01*
X38628210Y-38760288D01*
X38628213Y-38760292D01*
X38739707Y-38871786D01*
X38739711Y-38871789D01*
X38870814Y-38959390D01*
X38870827Y-38959397D01*
X39008683Y-39016498D01*
X39016503Y-39019737D01*
X39171153Y-39050499D01*
X39171156Y-39050500D01*
X39171158Y-39050500D01*
X39328844Y-39050500D01*
X39328845Y-39050499D01*
X39483497Y-39019737D01*
X39629179Y-38959394D01*
X39760289Y-38871789D01*
X39797331Y-38834747D01*
X39858653Y-38801261D01*
X39928345Y-38806245D01*
X39984279Y-38848115D01*
X40008697Y-38913579D01*
X39999575Y-38969878D01*
X39980263Y-39016502D01*
X39980261Y-39016510D01*
X39949500Y-39171153D01*
X39949500Y-39328846D01*
X39980261Y-39483489D01*
X39980264Y-39483501D01*
X40040602Y-39629172D01*
X40040609Y-39629185D01*
X40128210Y-39760288D01*
X40128213Y-39760292D01*
X40239707Y-39871786D01*
X40239710Y-39871788D01*
X40239711Y-39871789D01*
X40250771Y-39879179D01*
X40277289Y-39896898D01*
X40322093Y-39950511D01*
X40330800Y-40019836D01*
X40300645Y-40082863D01*
X40277289Y-40103102D01*
X40239707Y-40128213D01*
X40128213Y-40239707D01*
X40128210Y-40239711D01*
X40040609Y-40370814D01*
X40040602Y-40370827D01*
X39980264Y-40516498D01*
X39980261Y-40516510D01*
X39949500Y-40671153D01*
X39949500Y-40828846D01*
X39980261Y-40983489D01*
X39980264Y-40983501D01*
X40040602Y-41129172D01*
X40040609Y-41129185D01*
X40128210Y-41260288D01*
X40128213Y-41260292D01*
X40239707Y-41371786D01*
X40239711Y-41371789D01*
X40370814Y-41459390D01*
X40370827Y-41459397D01*
X40516498Y-41519735D01*
X40516503Y-41519737D01*
X40671153Y-41550499D01*
X40671156Y-41550500D01*
X40671158Y-41550500D01*
X40828844Y-41550500D01*
X40828845Y-41550499D01*
X40983497Y-41519737D01*
X41129179Y-41459394D01*
X41260289Y-41371789D01*
X41371789Y-41260289D01*
X41459394Y-41129179D01*
X41462854Y-41120827D01*
X41480244Y-41078842D01*
X41519737Y-40983497D01*
X41550500Y-40828842D01*
X41550500Y-40671158D01*
X41550500Y-40671155D01*
X41550499Y-40671153D01*
X41519738Y-40516510D01*
X41519737Y-40516503D01*
X41513545Y-40501555D01*
X41459397Y-40370827D01*
X41459390Y-40370814D01*
X41371789Y-40239711D01*
X41371786Y-40239707D01*
X41260292Y-40128213D01*
X41260284Y-40128207D01*
X41222712Y-40103102D01*
X41177906Y-40049490D01*
X41169199Y-39980165D01*
X41199353Y-39917138D01*
X41222712Y-39896898D01*
X41249279Y-39879145D01*
X41260289Y-39871789D01*
X41371789Y-39760289D01*
X41459394Y-39629179D01*
X41465442Y-39614579D01*
X41491984Y-39550499D01*
X41519737Y-39483497D01*
X41550500Y-39328842D01*
X41550500Y-39171158D01*
X41550500Y-39171155D01*
X41550499Y-39171153D01*
X41519738Y-39016510D01*
X41519737Y-39016503D01*
X41512901Y-39000000D01*
X41459397Y-38870827D01*
X41459390Y-38870814D01*
X41371789Y-38739711D01*
X41371786Y-38739707D01*
X41260292Y-38628213D01*
X41260288Y-38628210D01*
X41129185Y-38540609D01*
X41129173Y-38540602D01*
X41102674Y-38529627D01*
X40983501Y-38480264D01*
X40983489Y-38480261D01*
X40828845Y-38449500D01*
X40828842Y-38449500D01*
X40671158Y-38449500D01*
X40671155Y-38449500D01*
X40516510Y-38480261D01*
X40516498Y-38480264D01*
X40370827Y-38540602D01*
X40370814Y-38540609D01*
X40239711Y-38628210D01*
X40239706Y-38628214D01*
X40202666Y-38665254D01*
X40141343Y-38698739D01*
X40071651Y-38693753D01*
X40015718Y-38651881D01*
X39991302Y-38586417D01*
X40000424Y-38530121D01*
X40019737Y-38483497D01*
X40032138Y-38421153D01*
X43449500Y-38421153D01*
X43449500Y-38578846D01*
X43480261Y-38733489D01*
X43480264Y-38733501D01*
X43540602Y-38879172D01*
X43540609Y-38879185D01*
X43628210Y-39010288D01*
X43628213Y-39010292D01*
X43739707Y-39121786D01*
X43739711Y-39121789D01*
X43870814Y-39209390D01*
X43870827Y-39209397D01*
X44008683Y-39266498D01*
X44016503Y-39269737D01*
X44171153Y-39300499D01*
X44171156Y-39300500D01*
X44171158Y-39300500D01*
X44328844Y-39300500D01*
X44328845Y-39300499D01*
X44483497Y-39269737D01*
X44629179Y-39209394D01*
X44760289Y-39121789D01*
X44871789Y-39010289D01*
X44959394Y-38879179D01*
X44966677Y-38861593D01*
X45010514Y-38807190D01*
X45076807Y-38785122D01*
X45105431Y-38787426D01*
X45171155Y-38800500D01*
X45171158Y-38800500D01*
X45328844Y-38800500D01*
X45328845Y-38800499D01*
X45483497Y-38769737D01*
X45629179Y-38709394D01*
X45686411Y-38671153D01*
X50199500Y-38671153D01*
X50199500Y-38828846D01*
X50230261Y-38983489D01*
X50230264Y-38983501D01*
X50290602Y-39129172D01*
X50290609Y-39129185D01*
X50378210Y-39260288D01*
X50378213Y-39260292D01*
X50489707Y-39371786D01*
X50489711Y-39371789D01*
X50620814Y-39459390D01*
X50620827Y-39459397D01*
X50718853Y-39500000D01*
X50766503Y-39519737D01*
X50921153Y-39550499D01*
X50921156Y-39550500D01*
X50921158Y-39550500D01*
X51078844Y-39550500D01*
X51078845Y-39550499D01*
X51233497Y-39519737D01*
X51379179Y-39459394D01*
X51436411Y-39421153D01*
X65199500Y-39421153D01*
X65199500Y-39578846D01*
X65230261Y-39733489D01*
X65230264Y-39733501D01*
X65290602Y-39879172D01*
X65290609Y-39879185D01*
X65378210Y-40010288D01*
X65378213Y-40010292D01*
X65489707Y-40121786D01*
X65489711Y-40121789D01*
X65620814Y-40209390D01*
X65620827Y-40209397D01*
X65694013Y-40239711D01*
X65766503Y-40269737D01*
X65921153Y-40300499D01*
X65921156Y-40300500D01*
X65921158Y-40300500D01*
X66078844Y-40300500D01*
X66078845Y-40300499D01*
X66233497Y-40269737D01*
X66379179Y-40209394D01*
X66510289Y-40121789D01*
X66621789Y-40010289D01*
X66709394Y-39879179D01*
X66769737Y-39733497D01*
X66800500Y-39578842D01*
X66800500Y-39421158D01*
X66800500Y-39421155D01*
X66800499Y-39421153D01*
X66776499Y-39300499D01*
X66769737Y-39266503D01*
X66746080Y-39209390D01*
X66709397Y-39120827D01*
X66709390Y-39120814D01*
X66621789Y-38989711D01*
X66621786Y-38989707D01*
X66510292Y-38878213D01*
X66510288Y-38878210D01*
X66379185Y-38790609D01*
X66379172Y-38790602D01*
X66233501Y-38730264D01*
X66233489Y-38730261D01*
X66078845Y-38699500D01*
X66078842Y-38699500D01*
X65921158Y-38699500D01*
X65921155Y-38699500D01*
X65766510Y-38730261D01*
X65766498Y-38730264D01*
X65620827Y-38790602D01*
X65620814Y-38790609D01*
X65489711Y-38878210D01*
X65489707Y-38878213D01*
X65378213Y-38989707D01*
X65378210Y-38989711D01*
X65290609Y-39120814D01*
X65290602Y-39120827D01*
X65230264Y-39266498D01*
X65230261Y-39266510D01*
X65199500Y-39421153D01*
X51436411Y-39421153D01*
X51510289Y-39371789D01*
X51525792Y-39356286D01*
X51554694Y-39327385D01*
X51621786Y-39260292D01*
X51621789Y-39260289D01*
X51709394Y-39129179D01*
X51712183Y-39122447D01*
X51741984Y-39050499D01*
X51769737Y-38983497D01*
X51779508Y-38934373D01*
X51811892Y-38872464D01*
X51872607Y-38837890D01*
X51942377Y-38841629D01*
X51984696Y-38868295D01*
X51985001Y-38867924D01*
X51987957Y-38870350D01*
X51988806Y-38870885D01*
X51989707Y-38871786D01*
X51989711Y-38871789D01*
X52120814Y-38959390D01*
X52120827Y-38959397D01*
X52258683Y-39016498D01*
X52266503Y-39019737D01*
X52421153Y-39050499D01*
X52421156Y-39050500D01*
X52421158Y-39050500D01*
X52578844Y-39050500D01*
X52578845Y-39050499D01*
X52733497Y-39019737D01*
X52879179Y-38959394D01*
X53010289Y-38871789D01*
X53121789Y-38760289D01*
X53209394Y-38629179D01*
X53269737Y-38483497D01*
X53300500Y-38328842D01*
X53300500Y-38171158D01*
X53300500Y-38171155D01*
X53300499Y-38171153D01*
X53279219Y-38064173D01*
X53269737Y-38016503D01*
X53259540Y-37991884D01*
X53209397Y-37870827D01*
X53209390Y-37870814D01*
X53121789Y-37739711D01*
X53121786Y-37739707D01*
X53010292Y-37628213D01*
X53010288Y-37628210D01*
X52879185Y-37540609D01*
X52879172Y-37540602D01*
X52733501Y-37480264D01*
X52733489Y-37480261D01*
X52578845Y-37449500D01*
X52578842Y-37449500D01*
X52421158Y-37449500D01*
X52421155Y-37449500D01*
X52266510Y-37480261D01*
X52266498Y-37480264D01*
X52120827Y-37540602D01*
X52120814Y-37540609D01*
X51989711Y-37628210D01*
X51989707Y-37628213D01*
X51878213Y-37739707D01*
X51878210Y-37739711D01*
X51790609Y-37870814D01*
X51790602Y-37870827D01*
X51730264Y-38016498D01*
X51730261Y-38016507D01*
X51720491Y-38065626D01*
X51688105Y-38127536D01*
X51627389Y-38162110D01*
X51557620Y-38158369D01*
X51515303Y-38131704D01*
X51514999Y-38132076D01*
X51512040Y-38129647D01*
X51511193Y-38129114D01*
X51510292Y-38128213D01*
X51510288Y-38128210D01*
X51379185Y-38040609D01*
X51379172Y-38040602D01*
X51233501Y-37980264D01*
X51233489Y-37980261D01*
X51078845Y-37949500D01*
X51078842Y-37949500D01*
X50921158Y-37949500D01*
X50921155Y-37949500D01*
X50766510Y-37980261D01*
X50766498Y-37980264D01*
X50620827Y-38040602D01*
X50620814Y-38040609D01*
X50489711Y-38128210D01*
X50489707Y-38128213D01*
X50378213Y-38239707D01*
X50378210Y-38239711D01*
X50290609Y-38370814D01*
X50290602Y-38370827D01*
X50230264Y-38516498D01*
X50230261Y-38516510D01*
X50199500Y-38671153D01*
X45686411Y-38671153D01*
X45760289Y-38621789D01*
X45768689Y-38613389D01*
X45804694Y-38577385D01*
X45871786Y-38510292D01*
X45871789Y-38510289D01*
X45959394Y-38379179D01*
X45962854Y-38370827D01*
X46003762Y-38272065D01*
X46019737Y-38233497D01*
X46050500Y-38078842D01*
X46050500Y-37921158D01*
X46050500Y-37921155D01*
X46050499Y-37921153D01*
X46024531Y-37790606D01*
X46019737Y-37766503D01*
X46016533Y-37758768D01*
X45959397Y-37620827D01*
X45959395Y-37620823D01*
X45959394Y-37620821D01*
X45928956Y-37575267D01*
X45908078Y-37508590D01*
X45926562Y-37441210D01*
X45963167Y-37403274D01*
X46010289Y-37371789D01*
X46121789Y-37260289D01*
X46209394Y-37129179D01*
X46269737Y-36983497D01*
X46282138Y-36921153D01*
X49199500Y-36921153D01*
X49199500Y-37078846D01*
X49230261Y-37233489D01*
X49230264Y-37233501D01*
X49290602Y-37379172D01*
X49290609Y-37379185D01*
X49378210Y-37510288D01*
X49378213Y-37510292D01*
X49489707Y-37621786D01*
X49489711Y-37621789D01*
X49620814Y-37709390D01*
X49620827Y-37709397D01*
X49694013Y-37739711D01*
X49766503Y-37769737D01*
X49921153Y-37800499D01*
X49921156Y-37800500D01*
X49921158Y-37800500D01*
X50078844Y-37800500D01*
X50078845Y-37800499D01*
X50233497Y-37769737D01*
X50379179Y-37709394D01*
X50510289Y-37621789D01*
X50621789Y-37510289D01*
X50709394Y-37379179D01*
X50712854Y-37370827D01*
X50763413Y-37248765D01*
X50769737Y-37233497D01*
X50800500Y-37078842D01*
X50800500Y-36921158D01*
X50800500Y-36921155D01*
X50800499Y-36921153D01*
X50782137Y-36828842D01*
X50769737Y-36766503D01*
X50758650Y-36739736D01*
X50709397Y-36620827D01*
X50709390Y-36620814D01*
X50621789Y-36489711D01*
X50621786Y-36489707D01*
X50510292Y-36378213D01*
X50510288Y-36378210D01*
X50379185Y-36290609D01*
X50379172Y-36290602D01*
X50233501Y-36230264D01*
X50233489Y-36230261D01*
X50078845Y-36199500D01*
X50078842Y-36199500D01*
X49921158Y-36199500D01*
X49921155Y-36199500D01*
X49766510Y-36230261D01*
X49766498Y-36230264D01*
X49620827Y-36290602D01*
X49620814Y-36290609D01*
X49489711Y-36378210D01*
X49489707Y-36378213D01*
X49378213Y-36489707D01*
X49378210Y-36489711D01*
X49290609Y-36620814D01*
X49290602Y-36620827D01*
X49230264Y-36766498D01*
X49230261Y-36766510D01*
X49199500Y-36921153D01*
X46282138Y-36921153D01*
X46292151Y-36870814D01*
X46300500Y-36828844D01*
X46300500Y-36671155D01*
X46300499Y-36671153D01*
X46288458Y-36610619D01*
X46269737Y-36516503D01*
X46264896Y-36504815D01*
X46209397Y-36370827D01*
X46209390Y-36370814D01*
X46121789Y-36239711D01*
X46121786Y-36239707D01*
X46010292Y-36128213D01*
X46010288Y-36128210D01*
X45879185Y-36040609D01*
X45879172Y-36040602D01*
X45733501Y-35980264D01*
X45733489Y-35980261D01*
X45578845Y-35949500D01*
X45578842Y-35949500D01*
X45421158Y-35949500D01*
X45421155Y-35949500D01*
X45266510Y-35980261D01*
X45266498Y-35980264D01*
X45120827Y-36040602D01*
X45120814Y-36040609D01*
X44989711Y-36128210D01*
X44989707Y-36128213D01*
X44878213Y-36239707D01*
X44878210Y-36239711D01*
X44790609Y-36370814D01*
X44790602Y-36370827D01*
X44730264Y-36516498D01*
X44730261Y-36516510D01*
X44699500Y-36671153D01*
X44699500Y-36828846D01*
X44730261Y-36983489D01*
X44730264Y-36983501D01*
X44790602Y-37129172D01*
X44790609Y-37129185D01*
X44821043Y-37174732D01*
X44841921Y-37241409D01*
X44823437Y-37308790D01*
X44786832Y-37346725D01*
X44739711Y-37378210D01*
X44739707Y-37378213D01*
X44628213Y-37489707D01*
X44628210Y-37489711D01*
X44540609Y-37620814D01*
X44540603Y-37620826D01*
X44533319Y-37638411D01*
X44489477Y-37692814D01*
X44423182Y-37714877D01*
X44394568Y-37712573D01*
X44328846Y-37699500D01*
X44328842Y-37699500D01*
X44171158Y-37699500D01*
X44171155Y-37699500D01*
X44016510Y-37730261D01*
X44016498Y-37730264D01*
X43870827Y-37790602D01*
X43870814Y-37790609D01*
X43739711Y-37878210D01*
X43739707Y-37878213D01*
X43628213Y-37989707D01*
X43628210Y-37989711D01*
X43540609Y-38120814D01*
X43540602Y-38120827D01*
X43480264Y-38266498D01*
X43480261Y-38266510D01*
X43449500Y-38421153D01*
X40032138Y-38421153D01*
X40050500Y-38328842D01*
X40050500Y-38171158D01*
X40050500Y-38171155D01*
X40050499Y-38171153D01*
X40029219Y-38064173D01*
X40019737Y-38016503D01*
X40009540Y-37991884D01*
X39959397Y-37870827D01*
X39959390Y-37870814D01*
X39871789Y-37739711D01*
X39871786Y-37739707D01*
X39760292Y-37628213D01*
X39760288Y-37628210D01*
X39629185Y-37540609D01*
X39629172Y-37540602D01*
X39483501Y-37480264D01*
X39483489Y-37480261D01*
X39328845Y-37449500D01*
X39328842Y-37449500D01*
X39171158Y-37449500D01*
X39171155Y-37449500D01*
X39016510Y-37480261D01*
X39016498Y-37480264D01*
X38870827Y-37540602D01*
X38870814Y-37540609D01*
X38739711Y-37628210D01*
X38739707Y-37628213D01*
X38628213Y-37739707D01*
X38628210Y-37739711D01*
X38540609Y-37870814D01*
X38540602Y-37870827D01*
X38480264Y-38016498D01*
X38480261Y-38016510D01*
X38449500Y-38171153D01*
X36812704Y-38171153D01*
X36707820Y-38094951D01*
X36518414Y-37998444D01*
X36518413Y-37998443D01*
X36518412Y-37998443D01*
X36316243Y-37932754D01*
X36316241Y-37932753D01*
X36316240Y-37932753D01*
X36154957Y-37907208D01*
X36106287Y-37899500D01*
X35893713Y-37899500D01*
X35845042Y-37907208D01*
X35683760Y-37932753D01*
X35481585Y-37998444D01*
X35292179Y-38094951D01*
X35120215Y-38219889D01*
X35006285Y-38333819D01*
X34944962Y-38367303D01*
X34875270Y-38362319D01*
X34819337Y-38320447D01*
X34802422Y-38289470D01*
X34753354Y-38157913D01*
X34753350Y-38157906D01*
X34667190Y-38042812D01*
X34667187Y-38042809D01*
X34552093Y-37956649D01*
X34552086Y-37956645D01*
X34417379Y-37906403D01*
X34417372Y-37906401D01*
X34357844Y-37900000D01*
X33710000Y-37900000D01*
X33710000Y-38816988D01*
X33652993Y-38784075D01*
X33525826Y-38750000D01*
X33394174Y-38750000D01*
X33267007Y-38784075D01*
X33210000Y-38816988D01*
X33210000Y-37900000D01*
X32562155Y-37900000D01*
X32502627Y-37906401D01*
X32502620Y-37906403D01*
X32367913Y-37956645D01*
X32367906Y-37956649D01*
X32252813Y-38042809D01*
X32246824Y-38050809D01*
X32190889Y-38092678D01*
X32121197Y-38097660D01*
X32059875Y-38064173D01*
X32026392Y-38002849D01*
X32025942Y-37952303D01*
X32050500Y-37828844D01*
X32050500Y-37671155D01*
X32050499Y-37671153D01*
X32024531Y-37540606D01*
X32019737Y-37516503D01*
X32016459Y-37508590D01*
X31959397Y-37370827D01*
X31959390Y-37370814D01*
X31871789Y-37239711D01*
X31871786Y-37239707D01*
X31760292Y-37128213D01*
X31760288Y-37128210D01*
X31629185Y-37040609D01*
X31629172Y-37040602D01*
X31483501Y-36980264D01*
X31483489Y-36980261D01*
X31328845Y-36949500D01*
X31328842Y-36949500D01*
X31171158Y-36949500D01*
X31171155Y-36949500D01*
X31016510Y-36980261D01*
X31016498Y-36980264D01*
X30870827Y-37040602D01*
X30870814Y-37040609D01*
X30739711Y-37128210D01*
X30673740Y-37194181D01*
X30612416Y-37227665D01*
X30542725Y-37222680D01*
X30486791Y-37180809D01*
X30475574Y-37162793D01*
X30435379Y-37083905D01*
X30386408Y-37016503D01*
X30326621Y-36934213D01*
X30195787Y-36803379D01*
X30046096Y-36694622D01*
X29881235Y-36610620D01*
X29881232Y-36610619D01*
X29705265Y-36553445D01*
X29613889Y-36538972D01*
X29522514Y-36524500D01*
X29422820Y-36524500D01*
X29355781Y-36504815D01*
X29310026Y-36452011D01*
X29301203Y-36424691D01*
X29274531Y-36290606D01*
X29269737Y-36266503D01*
X29267163Y-36260288D01*
X29209397Y-36120827D01*
X29209390Y-36120814D01*
X29121789Y-35989711D01*
X29121786Y-35989707D01*
X29010292Y-35878213D01*
X29010288Y-35878210D01*
X28879185Y-35790609D01*
X28879172Y-35790602D01*
X28733501Y-35730264D01*
X28733489Y-35730261D01*
X28578845Y-35699500D01*
X28578842Y-35699500D01*
X28421158Y-35699500D01*
X28421155Y-35699500D01*
X28266510Y-35730261D01*
X28266498Y-35730264D01*
X28120827Y-35790602D01*
X28120814Y-35790609D01*
X27989711Y-35878210D01*
X27989707Y-35878213D01*
X27878213Y-35989707D01*
X27878210Y-35989711D01*
X27790609Y-36120814D01*
X27790602Y-36120827D01*
X27730264Y-36266498D01*
X27730261Y-36266508D01*
X27710961Y-36363536D01*
X27678576Y-36425447D01*
X27617860Y-36460021D01*
X27613536Y-36460961D01*
X27516508Y-36480261D01*
X27516498Y-36480264D01*
X27370827Y-36540602D01*
X27370814Y-36540609D01*
X27239711Y-36628210D01*
X27239707Y-36628213D01*
X27128213Y-36739707D01*
X27128210Y-36739711D01*
X27040609Y-36870814D01*
X27040602Y-36870827D01*
X26980264Y-37016498D01*
X26980261Y-37016510D01*
X26949500Y-37171153D01*
X26949500Y-37171158D01*
X26949500Y-37328842D01*
X26949500Y-37328844D01*
X26949499Y-37328844D01*
X26973860Y-37451308D01*
X26967633Y-37520900D01*
X26924770Y-37576077D01*
X26858880Y-37599322D01*
X26852243Y-37599500D01*
X26293389Y-37599500D01*
X26253728Y-37605781D01*
X26122302Y-37626597D01*
X25957552Y-37680128D01*
X25803208Y-37758770D01*
X25797380Y-37763004D01*
X25731572Y-37786480D01*
X25663519Y-37770651D01*
X25614827Y-37720542D01*
X25600500Y-37662682D01*
X25600500Y-35171153D01*
X30949500Y-35171153D01*
X30949500Y-35328846D01*
X30980261Y-35483489D01*
X30980264Y-35483501D01*
X31040602Y-35629172D01*
X31040609Y-35629185D01*
X31128210Y-35760288D01*
X31128213Y-35760292D01*
X31239707Y-35871786D01*
X31239711Y-35871789D01*
X31370814Y-35959390D01*
X31370827Y-35959397D01*
X31516498Y-36019735D01*
X31516503Y-36019737D01*
X31662828Y-36048843D01*
X31671153Y-36050499D01*
X31671156Y-36050500D01*
X31671158Y-36050500D01*
X31828844Y-36050500D01*
X31828845Y-36050499D01*
X31983497Y-36019737D01*
X32077550Y-35980778D01*
X32147016Y-35973310D01*
X32172443Y-35980775D01*
X32266503Y-36019737D01*
X32412828Y-36048843D01*
X32421153Y-36050499D01*
X32421156Y-36050500D01*
X32421158Y-36050500D01*
X32578844Y-36050500D01*
X32578845Y-36050499D01*
X32733497Y-36019737D01*
X32846166Y-35973067D01*
X32879172Y-35959397D01*
X32879172Y-35959396D01*
X32879179Y-35959394D01*
X33010289Y-35871789D01*
X33121789Y-35760289D01*
X33181348Y-35671153D01*
X35449500Y-35671153D01*
X35449500Y-35828846D01*
X35480261Y-35983489D01*
X35480264Y-35983501D01*
X35540602Y-36129172D01*
X35540609Y-36129185D01*
X35628210Y-36260288D01*
X35628213Y-36260292D01*
X35739707Y-36371786D01*
X35739711Y-36371789D01*
X35870814Y-36459390D01*
X35870827Y-36459397D01*
X36008683Y-36516498D01*
X36016503Y-36519737D01*
X36171153Y-36550499D01*
X36171156Y-36550500D01*
X36171158Y-36550500D01*
X36328844Y-36550500D01*
X36328845Y-36550499D01*
X36483497Y-36519737D01*
X36625396Y-36460961D01*
X36629172Y-36459397D01*
X36629172Y-36459396D01*
X36629179Y-36459394D01*
X36760289Y-36371789D01*
X36871789Y-36260289D01*
X36959394Y-36129179D01*
X36962854Y-36120827D01*
X36992670Y-36048843D01*
X37019737Y-35983497D01*
X37032138Y-35921153D01*
X38449500Y-35921153D01*
X38449500Y-36078846D01*
X38480261Y-36233489D01*
X38480264Y-36233501D01*
X38540602Y-36379172D01*
X38540609Y-36379185D01*
X38628210Y-36510288D01*
X38628213Y-36510292D01*
X38739707Y-36621786D01*
X38739711Y-36621789D01*
X38870814Y-36709390D01*
X38870827Y-36709397D01*
X39008683Y-36766498D01*
X39016503Y-36769737D01*
X39171153Y-36800499D01*
X39171156Y-36800500D01*
X39171158Y-36800500D01*
X39328844Y-36800500D01*
X39328845Y-36800499D01*
X39483497Y-36769737D01*
X39629179Y-36709394D01*
X39760289Y-36621789D01*
X39871789Y-36510289D01*
X39959394Y-36379179D01*
X39962854Y-36370827D01*
X39991984Y-36300499D01*
X40019737Y-36233497D01*
X40050500Y-36078842D01*
X40050500Y-35921158D01*
X40050500Y-35921155D01*
X40050499Y-35921153D01*
X40024531Y-35790606D01*
X40019737Y-35766503D01*
X40006062Y-35733489D01*
X39959397Y-35620827D01*
X39959390Y-35620814D01*
X39871789Y-35489711D01*
X39871786Y-35489707D01*
X39760292Y-35378213D01*
X39760288Y-35378210D01*
X39629185Y-35290609D01*
X39629172Y-35290602D01*
X39483501Y-35230264D01*
X39483489Y-35230261D01*
X39328845Y-35199500D01*
X39328842Y-35199500D01*
X39171158Y-35199500D01*
X39171155Y-35199500D01*
X39016510Y-35230261D01*
X39016498Y-35230264D01*
X38870827Y-35290602D01*
X38870814Y-35290609D01*
X38739711Y-35378210D01*
X38739707Y-35378213D01*
X38628213Y-35489707D01*
X38628210Y-35489711D01*
X38540609Y-35620814D01*
X38540602Y-35620827D01*
X38480264Y-35766498D01*
X38480261Y-35766510D01*
X38449500Y-35921153D01*
X37032138Y-35921153D01*
X37033261Y-35915506D01*
X37038161Y-35890875D01*
X37038161Y-35890874D01*
X37050500Y-35828844D01*
X37050500Y-35671155D01*
X37050499Y-35671153D01*
X37034520Y-35590822D01*
X37019737Y-35516503D01*
X37019735Y-35516498D01*
X36959397Y-35370827D01*
X36959390Y-35370814D01*
X36871789Y-35239711D01*
X36871786Y-35239707D01*
X36760292Y-35128213D01*
X36760288Y-35128210D01*
X36629185Y-35040609D01*
X36629172Y-35040602D01*
X36483501Y-34980264D01*
X36483489Y-34980261D01*
X36328845Y-34949500D01*
X36328842Y-34949500D01*
X36171158Y-34949500D01*
X36171155Y-34949500D01*
X36016510Y-34980261D01*
X36016498Y-34980264D01*
X35870827Y-35040602D01*
X35870814Y-35040609D01*
X35739711Y-35128210D01*
X35739707Y-35128213D01*
X35628213Y-35239707D01*
X35628210Y-35239711D01*
X35540609Y-35370814D01*
X35540602Y-35370827D01*
X35480264Y-35516498D01*
X35480261Y-35516510D01*
X35449500Y-35671153D01*
X33181348Y-35671153D01*
X33209394Y-35629179D01*
X33269737Y-35483497D01*
X33300500Y-35328842D01*
X33300500Y-35171158D01*
X33300500Y-35171155D01*
X33300499Y-35171153D01*
X33290486Y-35120814D01*
X33269737Y-35016503D01*
X33259226Y-34991127D01*
X33209397Y-34870827D01*
X33209390Y-34870814D01*
X33121789Y-34739711D01*
X33121786Y-34739707D01*
X33010292Y-34628213D01*
X33010288Y-34628210D01*
X32879185Y-34540609D01*
X32879172Y-34540602D01*
X32733501Y-34480264D01*
X32733489Y-34480261D01*
X32578845Y-34449500D01*
X32578842Y-34449500D01*
X32421158Y-34449500D01*
X32421155Y-34449500D01*
X32266510Y-34480261D01*
X32266498Y-34480264D01*
X32172452Y-34519219D01*
X32102982Y-34526688D01*
X32077548Y-34519219D01*
X31983501Y-34480264D01*
X31983489Y-34480261D01*
X31828845Y-34449500D01*
X31828842Y-34449500D01*
X31671158Y-34449500D01*
X31671155Y-34449500D01*
X31516510Y-34480261D01*
X31516498Y-34480264D01*
X31370827Y-34540602D01*
X31370814Y-34540609D01*
X31239711Y-34628210D01*
X31239707Y-34628213D01*
X31128213Y-34739707D01*
X31128210Y-34739711D01*
X31040609Y-34870814D01*
X31040602Y-34870827D01*
X30980264Y-35016498D01*
X30980261Y-35016510D01*
X30949500Y-35171153D01*
X25600500Y-35171153D01*
X25600500Y-34171153D01*
X33949500Y-34171153D01*
X33949500Y-34328846D01*
X33980261Y-34483489D01*
X33980264Y-34483501D01*
X34040602Y-34629172D01*
X34040609Y-34629185D01*
X34128210Y-34760288D01*
X34128213Y-34760292D01*
X34239707Y-34871786D01*
X34239711Y-34871789D01*
X34370814Y-34959390D01*
X34370827Y-34959397D01*
X34508683Y-35016498D01*
X34516503Y-35019737D01*
X34671153Y-35050499D01*
X34671156Y-35050500D01*
X34671158Y-35050500D01*
X34828844Y-35050500D01*
X34828845Y-35050499D01*
X34983497Y-35019737D01*
X35129179Y-34959394D01*
X35260289Y-34871789D01*
X35371789Y-34760289D01*
X35459394Y-34629179D01*
X35519737Y-34483497D01*
X35550500Y-34328842D01*
X35550500Y-34171158D01*
X35550500Y-34171155D01*
X35550499Y-34171153D01*
X35528396Y-34060034D01*
X35519737Y-34016503D01*
X35517163Y-34010288D01*
X35459397Y-33870827D01*
X35459390Y-33870814D01*
X35371789Y-33739711D01*
X35371786Y-33739707D01*
X35260292Y-33628213D01*
X35260288Y-33628210D01*
X35129185Y-33540609D01*
X35129172Y-33540602D01*
X34983501Y-33480264D01*
X34983489Y-33480261D01*
X34828845Y-33449500D01*
X34828842Y-33449500D01*
X34671158Y-33449500D01*
X34671155Y-33449500D01*
X34516510Y-33480261D01*
X34516498Y-33480264D01*
X34370827Y-33540602D01*
X34370814Y-33540609D01*
X34239711Y-33628210D01*
X34239707Y-33628213D01*
X34128213Y-33739707D01*
X34128210Y-33739711D01*
X34040609Y-33870814D01*
X34040602Y-33870827D01*
X33980264Y-34016498D01*
X33980261Y-34016510D01*
X33949500Y-34171153D01*
X25600500Y-34171153D01*
X25600500Y-32737317D01*
X25620185Y-32670278D01*
X25672989Y-32624523D01*
X25742147Y-32614579D01*
X25797386Y-32637000D01*
X25803207Y-32641229D01*
X25803209Y-32641230D01*
X25803212Y-32641232D01*
X25957555Y-32719873D01*
X26122299Y-32773402D01*
X26293389Y-32800500D01*
X26884155Y-32800500D01*
X26951194Y-32820185D01*
X26996949Y-32872989D01*
X27006893Y-32942147D01*
X26998716Y-32971952D01*
X26980264Y-33016498D01*
X26980261Y-33016510D01*
X26949500Y-33171153D01*
X26949500Y-33328846D01*
X26980261Y-33483489D01*
X26980264Y-33483501D01*
X27040602Y-33629172D01*
X27040609Y-33629185D01*
X27128210Y-33760288D01*
X27128213Y-33760292D01*
X27239707Y-33871786D01*
X27239711Y-33871789D01*
X27370814Y-33959390D01*
X27370827Y-33959397D01*
X27508683Y-34016498D01*
X27516503Y-34019737D01*
X27671153Y-34050499D01*
X27671156Y-34050500D01*
X27671158Y-34050500D01*
X27828844Y-34050500D01*
X27828845Y-34050499D01*
X27983497Y-34019737D01*
X28129179Y-33959394D01*
X28260289Y-33871789D01*
X28371789Y-33760289D01*
X28459394Y-33629179D01*
X28459396Y-33629172D01*
X28462264Y-33623809D01*
X28464274Y-33624883D01*
X28501717Y-33578395D01*
X28568005Y-33556313D01*
X28635709Y-33573575D01*
X28660144Y-33592552D01*
X28664213Y-33596621D01*
X28813904Y-33705378D01*
X28881286Y-33739711D01*
X28978764Y-33789379D01*
X28978767Y-33789380D01*
X29012992Y-33800500D01*
X29154736Y-33846555D01*
X29337486Y-33875500D01*
X29337487Y-33875500D01*
X29522513Y-33875500D01*
X29522514Y-33875500D01*
X29705264Y-33846555D01*
X29881235Y-33789379D01*
X30046096Y-33705378D01*
X30195787Y-33596621D01*
X30326621Y-33465787D01*
X30435378Y-33316096D01*
X30519379Y-33151235D01*
X30576555Y-32975264D01*
X30605500Y-32792514D01*
X30605500Y-32671153D01*
X30949500Y-32671153D01*
X30949500Y-32828846D01*
X30980261Y-32983489D01*
X30980264Y-32983501D01*
X31040602Y-33129172D01*
X31040609Y-33129185D01*
X31128210Y-33260288D01*
X31128213Y-33260292D01*
X31239707Y-33371786D01*
X31239711Y-33371789D01*
X31370814Y-33459390D01*
X31370827Y-33459397D01*
X31516498Y-33519735D01*
X31516503Y-33519737D01*
X31671153Y-33550499D01*
X31671156Y-33550500D01*
X31671158Y-33550500D01*
X31675162Y-33550500D01*
X31677183Y-33551093D01*
X31677218Y-33551097D01*
X31677217Y-33551103D01*
X31742201Y-33570185D01*
X31787956Y-33622989D01*
X31789715Y-33627029D01*
X31790606Y-33629179D01*
X31790607Y-33629180D01*
X31790609Y-33629185D01*
X31878210Y-33760288D01*
X31878213Y-33760292D01*
X31989707Y-33871786D01*
X31989711Y-33871789D01*
X32120814Y-33959390D01*
X32120827Y-33959397D01*
X32258683Y-34016498D01*
X32266503Y-34019737D01*
X32421153Y-34050499D01*
X32421156Y-34050500D01*
X32421158Y-34050500D01*
X32578844Y-34050500D01*
X32578845Y-34050499D01*
X32589179Y-34048443D01*
X32614287Y-34043450D01*
X32614292Y-34043449D01*
X32699800Y-34026439D01*
X32733497Y-34019737D01*
X32879179Y-33959394D01*
X33010289Y-33871789D01*
X33121789Y-33760289D01*
X33209394Y-33629179D01*
X33210276Y-33627051D01*
X33239121Y-33557412D01*
X33269737Y-33483497D01*
X33300500Y-33328842D01*
X33300500Y-33171158D01*
X33300500Y-33171155D01*
X33300499Y-33171153D01*
X33294250Y-33139737D01*
X33269737Y-33016503D01*
X33258926Y-32990402D01*
X33209397Y-32870827D01*
X33209390Y-32870814D01*
X33121790Y-32739712D01*
X33121784Y-32739705D01*
X33053232Y-32671153D01*
X35449500Y-32671153D01*
X35449500Y-32828846D01*
X35480261Y-32983489D01*
X35480264Y-32983501D01*
X35540602Y-33129172D01*
X35540609Y-33129185D01*
X35628210Y-33260288D01*
X35628213Y-33260292D01*
X35739707Y-33371786D01*
X35739711Y-33371789D01*
X35870814Y-33459390D01*
X35870827Y-33459397D01*
X36016498Y-33519735D01*
X36016503Y-33519737D01*
X36171153Y-33550499D01*
X36171156Y-33550500D01*
X36171158Y-33550500D01*
X36328844Y-33550500D01*
X36328845Y-33550499D01*
X36483497Y-33519737D01*
X36613740Y-33465789D01*
X36629172Y-33459397D01*
X36629172Y-33459396D01*
X36629179Y-33459394D01*
X36760289Y-33371789D01*
X36871789Y-33260289D01*
X36959394Y-33129179D01*
X36962854Y-33120827D01*
X37003402Y-33022933D01*
X37019737Y-32983497D01*
X37050500Y-32828842D01*
X37050500Y-32671158D01*
X37050500Y-32671155D01*
X37050499Y-32671153D01*
X40949500Y-32671153D01*
X40949500Y-32828846D01*
X40980261Y-32983489D01*
X40980264Y-32983501D01*
X41040602Y-33129172D01*
X41040609Y-33129185D01*
X41128210Y-33260288D01*
X41128213Y-33260292D01*
X41239707Y-33371786D01*
X41239711Y-33371789D01*
X41370814Y-33459390D01*
X41370827Y-33459397D01*
X41516498Y-33519735D01*
X41516503Y-33519737D01*
X41671153Y-33550499D01*
X41671156Y-33550500D01*
X41671158Y-33550500D01*
X41828844Y-33550500D01*
X41828845Y-33550499D01*
X41983497Y-33519737D01*
X42129179Y-33459394D01*
X42181110Y-33424694D01*
X42247785Y-33403816D01*
X42315165Y-33422300D01*
X42318863Y-33424676D01*
X42370821Y-33459394D01*
X42370823Y-33459395D01*
X42370825Y-33459396D01*
X42516498Y-33519735D01*
X42516503Y-33519737D01*
X42671153Y-33550499D01*
X42671156Y-33550500D01*
X42671158Y-33550500D01*
X42828844Y-33550500D01*
X42828845Y-33550499D01*
X42983497Y-33519737D01*
X43113740Y-33465789D01*
X43129172Y-33459397D01*
X43129172Y-33459396D01*
X43129179Y-33459394D01*
X43186411Y-33421153D01*
X45949500Y-33421153D01*
X45949500Y-33578846D01*
X45980261Y-33733489D01*
X45980264Y-33733501D01*
X46040602Y-33879172D01*
X46040609Y-33879185D01*
X46128210Y-34010288D01*
X46128213Y-34010292D01*
X46216829Y-34098908D01*
X46250314Y-34160231D01*
X46245330Y-34229923D01*
X46243709Y-34234041D01*
X46230263Y-34266501D01*
X46230260Y-34266511D01*
X46199500Y-34421153D01*
X46199500Y-34578846D01*
X46230261Y-34733489D01*
X46230264Y-34733501D01*
X46290602Y-34879172D01*
X46290609Y-34879185D01*
X46325304Y-34931109D01*
X46346182Y-34997786D01*
X46327698Y-35065167D01*
X46325304Y-35068891D01*
X46290609Y-35120814D01*
X46290602Y-35120827D01*
X46230264Y-35266498D01*
X46230261Y-35266510D01*
X46199500Y-35421153D01*
X46199500Y-35578846D01*
X46230261Y-35733489D01*
X46230264Y-35733501D01*
X46290602Y-35879172D01*
X46290609Y-35879185D01*
X46378210Y-36010288D01*
X46378213Y-36010292D01*
X46489707Y-36121786D01*
X46489711Y-36121789D01*
X46620814Y-36209390D01*
X46620827Y-36209397D01*
X46758683Y-36266498D01*
X46766503Y-36269737D01*
X46921153Y-36300499D01*
X46921156Y-36300500D01*
X46921158Y-36300500D01*
X47078844Y-36300500D01*
X47078845Y-36300499D01*
X47233497Y-36269737D01*
X47379179Y-36209394D01*
X47510289Y-36121789D01*
X47621789Y-36010289D01*
X47709394Y-35879179D01*
X47769737Y-35733497D01*
X47785165Y-35655934D01*
X47817548Y-35594028D01*
X47878263Y-35559453D01*
X47948033Y-35563192D01*
X48004705Y-35604058D01*
X48021342Y-35632676D01*
X48040604Y-35679178D01*
X48040609Y-35679188D01*
X48128210Y-35810291D01*
X48128213Y-35810295D01*
X48239707Y-35921789D01*
X48239711Y-35921792D01*
X48370814Y-36009393D01*
X48370827Y-36009400D01*
X48470053Y-36050500D01*
X48516503Y-36069740D01*
X48671153Y-36100502D01*
X48671156Y-36100503D01*
X48671158Y-36100503D01*
X48828844Y-36100503D01*
X48828845Y-36100502D01*
X48983497Y-36069740D01*
X49129179Y-36009397D01*
X49260289Y-35921792D01*
X49290927Y-35891154D01*
X67312747Y-35891154D01*
X67312747Y-36048847D01*
X67343508Y-36203490D01*
X67343511Y-36203502D01*
X67403849Y-36349173D01*
X67403856Y-36349186D01*
X67491457Y-36480289D01*
X67491460Y-36480293D01*
X67602954Y-36591787D01*
X67602958Y-36591790D01*
X67734061Y-36679391D01*
X67734074Y-36679398D01*
X67879675Y-36739707D01*
X67879750Y-36739738D01*
X68014281Y-36766498D01*
X68034400Y-36770500D01*
X68034403Y-36770501D01*
X68034405Y-36770501D01*
X68192091Y-36770501D01*
X68192092Y-36770500D01*
X68346744Y-36739738D01*
X68492426Y-36679395D01*
X68623536Y-36591790D01*
X68735036Y-36480290D01*
X68822641Y-36349180D01*
X68882984Y-36203498D01*
X68913747Y-36048843D01*
X68913747Y-35891159D01*
X68913747Y-35891156D01*
X68913746Y-35891154D01*
X68897662Y-35810295D01*
X68882984Y-35736504D01*
X68881739Y-35733498D01*
X68822644Y-35590828D01*
X68822637Y-35590815D01*
X68735036Y-35459712D01*
X68735033Y-35459708D01*
X68623539Y-35348214D01*
X68623535Y-35348211D01*
X68492432Y-35260610D01*
X68492419Y-35260603D01*
X68346748Y-35200265D01*
X68346736Y-35200262D01*
X68192092Y-35169501D01*
X68192089Y-35169501D01*
X68034405Y-35169501D01*
X68034402Y-35169501D01*
X67879757Y-35200262D01*
X67879745Y-35200265D01*
X67734074Y-35260603D01*
X67734061Y-35260610D01*
X67602958Y-35348211D01*
X67602954Y-35348214D01*
X67491460Y-35459708D01*
X67491457Y-35459712D01*
X67403856Y-35590815D01*
X67403849Y-35590828D01*
X67343511Y-35736499D01*
X67343508Y-35736511D01*
X67312747Y-35891154D01*
X49290927Y-35891154D01*
X49371789Y-35810292D01*
X49459394Y-35679182D01*
X49469022Y-35655939D01*
X49483571Y-35620814D01*
X49519737Y-35533500D01*
X49550500Y-35378845D01*
X49550500Y-35221161D01*
X49550500Y-35221158D01*
X49550499Y-35221156D01*
X49536066Y-35148597D01*
X49519737Y-35066506D01*
X49517455Y-35060996D01*
X49459397Y-34920830D01*
X49459390Y-34920817D01*
X49371789Y-34789714D01*
X49371786Y-34789710D01*
X49260292Y-34678216D01*
X49260288Y-34678213D01*
X49129185Y-34590612D01*
X49129172Y-34590605D01*
X48983501Y-34530267D01*
X48983489Y-34530264D01*
X48828845Y-34499503D01*
X48828842Y-34499503D01*
X48671158Y-34499503D01*
X48671155Y-34499503D01*
X48516510Y-34530264D01*
X48516498Y-34530267D01*
X48370827Y-34590605D01*
X48370814Y-34590612D01*
X48239711Y-34678213D01*
X48239707Y-34678216D01*
X48128213Y-34789710D01*
X48128210Y-34789714D01*
X48040609Y-34920817D01*
X48040602Y-34920830D01*
X47980264Y-35066501D01*
X47980261Y-35066511D01*
X47964835Y-35144065D01*
X47952086Y-35168436D01*
X47942469Y-35194205D01*
X47936123Y-35198952D01*
X47932450Y-35205976D01*
X47908545Y-35219588D01*
X47886526Y-35236064D01*
X47878622Y-35236627D01*
X47871734Y-35240550D01*
X47844267Y-35239077D01*
X47816834Y-35241034D01*
X47809878Y-35237234D01*
X47801965Y-35236810D01*
X47779654Y-35220721D01*
X47755518Y-35207535D01*
X47750080Y-35199395D01*
X47745293Y-35195943D01*
X47734373Y-35179276D01*
X47731193Y-35173450D01*
X47709394Y-35120821D01*
X47671606Y-35064268D01*
X47668951Y-35059403D01*
X47662663Y-35030469D01*
X47653816Y-35002215D01*
X47655326Y-34996707D01*
X47654114Y-34991127D01*
X47664468Y-34963385D01*
X47672300Y-34934835D01*
X47674676Y-34931136D01*
X47709394Y-34879179D01*
X47769737Y-34733497D01*
X47800500Y-34578842D01*
X47800500Y-34421158D01*
X47800500Y-34421155D01*
X47800499Y-34421153D01*
X47782137Y-34328842D01*
X47769737Y-34266503D01*
X47730242Y-34171153D01*
X47709397Y-34120827D01*
X47709390Y-34120814D01*
X47621789Y-33989711D01*
X47621786Y-33989707D01*
X47533170Y-33901091D01*
X47499685Y-33839768D01*
X47504669Y-33770076D01*
X47506258Y-33766037D01*
X47519737Y-33733497D01*
X47550500Y-33578842D01*
X47550500Y-33421158D01*
X47550500Y-33421155D01*
X47550499Y-33421153D01*
X47531847Y-33327385D01*
X47519737Y-33266503D01*
X47506062Y-33233489D01*
X47459397Y-33120827D01*
X47459390Y-33120814D01*
X47371789Y-32989711D01*
X47371786Y-32989707D01*
X47260292Y-32878213D01*
X47260288Y-32878210D01*
X47129185Y-32790609D01*
X47129172Y-32790602D01*
X46983501Y-32730264D01*
X46983489Y-32730261D01*
X46828845Y-32699500D01*
X46828842Y-32699500D01*
X46671158Y-32699500D01*
X46671155Y-32699500D01*
X46516510Y-32730261D01*
X46516498Y-32730264D01*
X46370827Y-32790602D01*
X46370814Y-32790609D01*
X46239711Y-32878210D01*
X46239707Y-32878213D01*
X46128213Y-32989707D01*
X46128210Y-32989711D01*
X46040609Y-33120814D01*
X46040602Y-33120827D01*
X45980264Y-33266498D01*
X45980261Y-33266510D01*
X45949500Y-33421153D01*
X43186411Y-33421153D01*
X43260289Y-33371789D01*
X43260292Y-33371786D01*
X43304694Y-33327385D01*
X43371786Y-33260292D01*
X43371789Y-33260289D01*
X43459394Y-33129179D01*
X43462854Y-33120827D01*
X43503402Y-33022933D01*
X43519737Y-32983497D01*
X43550500Y-32828842D01*
X43550500Y-32671158D01*
X43550500Y-32671155D01*
X43550499Y-32671153D01*
X43544547Y-32641229D01*
X43519737Y-32516503D01*
X43518535Y-32513602D01*
X43459397Y-32370827D01*
X43459390Y-32370814D01*
X43371789Y-32239711D01*
X43371786Y-32239707D01*
X43260292Y-32128213D01*
X43260288Y-32128210D01*
X43129185Y-32040609D01*
X43129172Y-32040602D01*
X42983501Y-31980264D01*
X42983489Y-31980261D01*
X42828845Y-31949500D01*
X42828842Y-31949500D01*
X42671158Y-31949500D01*
X42671155Y-31949500D01*
X42516510Y-31980261D01*
X42516498Y-31980264D01*
X42370827Y-32040602D01*
X42370814Y-32040609D01*
X42318891Y-32075304D01*
X42252214Y-32096182D01*
X42184833Y-32077698D01*
X42181109Y-32075304D01*
X42129185Y-32040609D01*
X42129172Y-32040602D01*
X41983501Y-31980264D01*
X41983489Y-31980261D01*
X41828845Y-31949500D01*
X41828842Y-31949500D01*
X41671158Y-31949500D01*
X41671155Y-31949500D01*
X41516510Y-31980261D01*
X41516498Y-31980264D01*
X41370827Y-32040602D01*
X41370814Y-32040609D01*
X41239711Y-32128210D01*
X41239707Y-32128213D01*
X41128213Y-32239707D01*
X41128210Y-32239711D01*
X41040609Y-32370814D01*
X41040602Y-32370827D01*
X40980264Y-32516498D01*
X40980261Y-32516510D01*
X40949500Y-32671153D01*
X37050499Y-32671153D01*
X37044547Y-32641229D01*
X37019737Y-32516503D01*
X37018535Y-32513602D01*
X36959397Y-32370827D01*
X36959390Y-32370814D01*
X36871789Y-32239711D01*
X36871786Y-32239707D01*
X36760292Y-32128213D01*
X36760288Y-32128210D01*
X36629185Y-32040609D01*
X36629172Y-32040602D01*
X36483501Y-31980264D01*
X36483489Y-31980261D01*
X36328845Y-31949500D01*
X36328842Y-31949500D01*
X36171158Y-31949500D01*
X36171155Y-31949500D01*
X36016510Y-31980261D01*
X36016498Y-31980264D01*
X35870827Y-32040602D01*
X35870814Y-32040609D01*
X35739711Y-32128210D01*
X35739707Y-32128213D01*
X35628213Y-32239707D01*
X35628210Y-32239711D01*
X35540609Y-32370814D01*
X35540602Y-32370827D01*
X35480264Y-32516498D01*
X35480261Y-32516510D01*
X35449500Y-32671153D01*
X33053232Y-32671153D01*
X33010292Y-32628213D01*
X33010288Y-32628210D01*
X32879185Y-32540609D01*
X32879172Y-32540602D01*
X32733501Y-32480264D01*
X32733489Y-32480261D01*
X32578845Y-32449500D01*
X32578842Y-32449500D01*
X32574838Y-32449500D01*
X32572816Y-32448906D01*
X32572782Y-32448903D01*
X32572782Y-32448896D01*
X32507799Y-32429815D01*
X32462044Y-32377011D01*
X32460275Y-32372949D01*
X32459394Y-32370821D01*
X32459391Y-32370816D01*
X32459390Y-32370814D01*
X32371789Y-32239711D01*
X32371786Y-32239707D01*
X32260292Y-32128213D01*
X32260288Y-32128210D01*
X32129185Y-32040609D01*
X32129172Y-32040602D01*
X31983501Y-31980264D01*
X31983489Y-31980261D01*
X31828845Y-31949500D01*
X31828842Y-31949500D01*
X31671158Y-31949500D01*
X31671155Y-31949500D01*
X31516510Y-31980261D01*
X31516498Y-31980264D01*
X31370827Y-32040602D01*
X31370814Y-32040609D01*
X31239711Y-32128210D01*
X31239707Y-32128213D01*
X31128213Y-32239707D01*
X31128210Y-32239711D01*
X31040609Y-32370814D01*
X31040602Y-32370827D01*
X30980264Y-32516498D01*
X30980261Y-32516510D01*
X30949500Y-32671153D01*
X30605500Y-32671153D01*
X30605500Y-32607486D01*
X30576555Y-32424736D01*
X30532973Y-32290602D01*
X30519380Y-32248767D01*
X30519379Y-32248764D01*
X30462182Y-32136510D01*
X30435378Y-32083904D01*
X30326621Y-31934213D01*
X30195787Y-31803379D01*
X30046096Y-31694622D01*
X29881235Y-31610620D01*
X29881232Y-31610619D01*
X29705265Y-31553445D01*
X29613889Y-31538972D01*
X29522514Y-31524500D01*
X29337486Y-31524500D01*
X29276569Y-31534148D01*
X29154734Y-31553445D01*
X28978767Y-31610619D01*
X28978764Y-31610620D01*
X28813903Y-31694622D01*
X28735540Y-31751557D01*
X28664213Y-31803379D01*
X28664211Y-31803381D01*
X28664210Y-31803381D01*
X28533381Y-31934210D01*
X28533381Y-31934211D01*
X28533379Y-31934213D01*
X28486672Y-31998499D01*
X28424622Y-32083903D01*
X28340620Y-32248764D01*
X28340619Y-32248767D01*
X28283445Y-32424734D01*
X28281331Y-32438082D01*
X28271293Y-32459255D01*
X28265499Y-32481957D01*
X28256606Y-32490235D01*
X28251401Y-32501217D01*
X28231509Y-32513602D01*
X28214362Y-32529567D01*
X28202404Y-32531724D01*
X28192089Y-32538147D01*
X28168658Y-32537812D01*
X28145602Y-32541972D01*
X28126970Y-32537216D01*
X28122226Y-32537149D01*
X28111405Y-32533244D01*
X28107735Y-32531724D01*
X28070977Y-32516498D01*
X28044187Y-32505401D01*
X27989783Y-32461559D01*
X27967719Y-32395265D01*
X27984999Y-32327566D01*
X27991315Y-32317964D01*
X28021232Y-32276788D01*
X28099873Y-32122445D01*
X28153402Y-31957701D01*
X28180500Y-31786611D01*
X28180500Y-31613389D01*
X28153402Y-31442299D01*
X28099873Y-31277555D01*
X28021232Y-31123212D01*
X27919414Y-30983072D01*
X27796928Y-30860586D01*
X27656788Y-30758768D01*
X27502445Y-30680127D01*
X27337701Y-30626598D01*
X27337699Y-30626597D01*
X27337698Y-30626597D01*
X27206271Y-30605781D01*
X27166611Y-30599500D01*
X26293389Y-30599500D01*
X26253728Y-30605781D01*
X26122302Y-30626597D01*
X25957552Y-30680128D01*
X25803208Y-30758770D01*
X25797380Y-30763004D01*
X25731572Y-30786480D01*
X25663519Y-30770651D01*
X25614827Y-30720542D01*
X25600500Y-30662682D01*
X25600500Y-26302135D01*
X25849500Y-26302135D01*
X25849500Y-28097870D01*
X25849501Y-28097876D01*
X25855908Y-28157483D01*
X25906202Y-28292328D01*
X25906206Y-28292335D01*
X25992452Y-28407544D01*
X25992455Y-28407547D01*
X26107664Y-28493793D01*
X26107671Y-28493797D01*
X26242517Y-28544091D01*
X26242516Y-28544091D01*
X26249444Y-28544835D01*
X26302127Y-28550500D01*
X26327096Y-28550499D01*
X26394133Y-28570181D01*
X26439890Y-28622984D01*
X26449835Y-28692142D01*
X26420813Y-28755698D01*
X26374562Y-28789055D01*
X26370830Y-28790601D01*
X26370814Y-28790609D01*
X26239711Y-28878210D01*
X26239707Y-28878213D01*
X26128213Y-28989707D01*
X26128210Y-28989711D01*
X26040609Y-29120814D01*
X26040602Y-29120827D01*
X25980264Y-29266498D01*
X25980261Y-29266510D01*
X25949500Y-29421153D01*
X25949500Y-29578846D01*
X25980261Y-29733489D01*
X25980264Y-29733501D01*
X26040602Y-29879172D01*
X26040609Y-29879185D01*
X26128210Y-30010288D01*
X26128213Y-30010292D01*
X26239707Y-30121786D01*
X26239711Y-30121789D01*
X26370814Y-30209390D01*
X26370827Y-30209397D01*
X26516498Y-30269735D01*
X26516503Y-30269737D01*
X26639411Y-30294185D01*
X26671153Y-30300499D01*
X26671156Y-30300500D01*
X26671158Y-30300500D01*
X26828844Y-30300500D01*
X26828845Y-30300499D01*
X26983497Y-30269737D01*
X27129179Y-30209394D01*
X27260289Y-30121789D01*
X27371789Y-30010289D01*
X27459394Y-29879179D01*
X27463803Y-29868536D01*
X27495430Y-29792179D01*
X27519737Y-29733497D01*
X27545380Y-29604581D01*
X27550500Y-29578844D01*
X27550500Y-29421155D01*
X27550499Y-29421153D01*
X27525050Y-29293213D01*
X27519737Y-29266503D01*
X27512256Y-29248443D01*
X27459397Y-29120827D01*
X27459390Y-29120814D01*
X27371789Y-28989711D01*
X27371786Y-28989707D01*
X27260292Y-28878213D01*
X27260288Y-28878210D01*
X27129185Y-28790609D01*
X27129171Y-28790602D01*
X27125444Y-28789058D01*
X27071042Y-28745216D01*
X27048980Y-28678921D01*
X27066261Y-28611222D01*
X27117400Y-28563613D01*
X27172898Y-28550499D01*
X28097872Y-28550499D01*
X28157483Y-28544091D01*
X28292331Y-28493796D01*
X28407546Y-28407546D01*
X28493796Y-28292331D01*
X28544091Y-28157483D01*
X28550500Y-28097873D01*
X28550499Y-28073979D01*
X28553330Y-28060963D01*
X28563940Y-28041525D01*
X28570179Y-28020275D01*
X28586803Y-27999643D01*
X28586808Y-27999636D01*
X28586811Y-27999634D01*
X28586818Y-27999626D01*
X29257037Y-27329408D01*
X29274075Y-27392993D01*
X29339901Y-27507007D01*
X29432993Y-27600099D01*
X29547007Y-27665925D01*
X29610590Y-27682962D01*
X28978282Y-28315269D01*
X28978282Y-28315270D01*
X29032449Y-28354624D01*
X29221782Y-28451095D01*
X29423870Y-28516757D01*
X29633754Y-28550000D01*
X29846246Y-28550000D01*
X30056127Y-28516757D01*
X30056130Y-28516757D01*
X30258217Y-28451095D01*
X30447554Y-28354622D01*
X30501716Y-28315270D01*
X30501717Y-28315270D01*
X29869408Y-27682962D01*
X29932993Y-27665925D01*
X30047007Y-27600099D01*
X30140099Y-27507007D01*
X30205925Y-27392993D01*
X30222962Y-27329409D01*
X30855270Y-27961717D01*
X30855270Y-27961716D01*
X30894622Y-27907555D01*
X30899232Y-27898507D01*
X30947205Y-27847709D01*
X31015025Y-27830912D01*
X31081161Y-27853447D01*
X31120204Y-27898504D01*
X31124949Y-27907817D01*
X31249890Y-28079786D01*
X31400211Y-28230107D01*
X31473847Y-28283606D01*
X31516513Y-28338936D01*
X31522492Y-28408549D01*
X31515523Y-28431376D01*
X31480264Y-28516498D01*
X31480261Y-28516510D01*
X31449500Y-28671153D01*
X31449500Y-28828846D01*
X31480261Y-28983489D01*
X31480263Y-28983497D01*
X31499575Y-29030120D01*
X31507043Y-29099590D01*
X31475767Y-29162069D01*
X31415678Y-29197721D01*
X31345853Y-29195226D01*
X31297332Y-29165253D01*
X31260292Y-29128213D01*
X31260288Y-29128210D01*
X31129185Y-29040609D01*
X31129172Y-29040602D01*
X30983501Y-28980264D01*
X30983489Y-28980261D01*
X30828845Y-28949500D01*
X30828842Y-28949500D01*
X30671158Y-28949500D01*
X30671155Y-28949500D01*
X30516510Y-28980261D01*
X30516498Y-28980264D01*
X30370827Y-29040602D01*
X30370814Y-29040609D01*
X30239711Y-29128210D01*
X30239707Y-29128213D01*
X30128213Y-29239707D01*
X30128210Y-29239711D01*
X30040609Y-29370814D01*
X30040602Y-29370827D01*
X29980264Y-29516498D01*
X29980261Y-29516510D01*
X29949500Y-29671153D01*
X29949500Y-29828846D01*
X29980261Y-29983489D01*
X29980264Y-29983501D01*
X30040602Y-30129172D01*
X30040609Y-30129185D01*
X30128210Y-30260288D01*
X30128213Y-30260292D01*
X30239707Y-30371786D01*
X30239711Y-30371789D01*
X30370814Y-30459390D01*
X30370827Y-30459397D01*
X30516498Y-30519735D01*
X30516503Y-30519737D01*
X30671153Y-30550499D01*
X30671156Y-30550500D01*
X30671158Y-30550500D01*
X30828844Y-30550500D01*
X30828845Y-30550499D01*
X30983497Y-30519737D01*
X31015959Y-30506290D01*
X31085423Y-30498821D01*
X31147903Y-30530093D01*
X31151091Y-30533170D01*
X31239707Y-30621786D01*
X31239711Y-30621789D01*
X31370814Y-30709390D01*
X31370827Y-30709397D01*
X31490021Y-30758768D01*
X31516503Y-30769737D01*
X31671153Y-30800499D01*
X31671156Y-30800500D01*
X31671158Y-30800500D01*
X31828844Y-30800500D01*
X31828845Y-30800499D01*
X31983497Y-30769737D01*
X32129179Y-30709394D01*
X32260289Y-30621789D01*
X32371789Y-30510289D01*
X32459394Y-30379179D01*
X32519737Y-30233497D01*
X32550500Y-30078842D01*
X32550500Y-29921158D01*
X32550500Y-29921155D01*
X32550499Y-29921153D01*
X38449500Y-29921153D01*
X38449500Y-30078846D01*
X38480261Y-30233489D01*
X38480264Y-30233501D01*
X38540602Y-30379172D01*
X38540609Y-30379185D01*
X38628210Y-30510288D01*
X38628213Y-30510292D01*
X38739707Y-30621786D01*
X38739711Y-30621789D01*
X38870814Y-30709390D01*
X38870827Y-30709397D01*
X38990021Y-30758768D01*
X39016503Y-30769737D01*
X39171153Y-30800499D01*
X39171156Y-30800500D01*
X39171158Y-30800500D01*
X39328844Y-30800500D01*
X39328845Y-30800499D01*
X39483497Y-30769737D01*
X39629179Y-30709394D01*
X39760289Y-30621789D01*
X39871789Y-30510289D01*
X39959394Y-30379179D01*
X40019737Y-30233497D01*
X40050500Y-30078842D01*
X40050500Y-29921158D01*
X40050500Y-29921155D01*
X40050499Y-29921153D01*
X40036692Y-29851742D01*
X40019737Y-29766503D01*
X39980242Y-29671153D01*
X39959397Y-29620827D01*
X39959390Y-29620814D01*
X39871789Y-29489711D01*
X39871786Y-29489707D01*
X39760292Y-29378213D01*
X39760288Y-29378210D01*
X39629185Y-29290609D01*
X39629172Y-29290602D01*
X39483501Y-29230264D01*
X39483489Y-29230261D01*
X39328845Y-29199500D01*
X39328842Y-29199500D01*
X39171158Y-29199500D01*
X39171155Y-29199500D01*
X39016510Y-29230261D01*
X39016498Y-29230264D01*
X38870827Y-29290602D01*
X38870814Y-29290609D01*
X38739711Y-29378210D01*
X38739707Y-29378213D01*
X38628213Y-29489707D01*
X38628210Y-29489711D01*
X38540609Y-29620814D01*
X38540602Y-29620827D01*
X38480264Y-29766498D01*
X38480261Y-29766510D01*
X38449500Y-29921153D01*
X32550499Y-29921153D01*
X32536692Y-29851742D01*
X32519737Y-29766503D01*
X32506066Y-29733497D01*
X32474638Y-29657622D01*
X32467169Y-29588153D01*
X32498445Y-29525674D01*
X32541742Y-29495611D01*
X32629179Y-29459394D01*
X32760289Y-29371789D01*
X32871789Y-29260289D01*
X32959394Y-29129179D01*
X32962854Y-29120827D01*
X32991984Y-29050499D01*
X33019737Y-28983497D01*
X33050500Y-28828842D01*
X33050500Y-28671158D01*
X33050500Y-28671155D01*
X33050499Y-28671153D01*
X33047731Y-28657237D01*
X33019737Y-28516503D01*
X32998355Y-28464884D01*
X32990887Y-28395415D01*
X33022162Y-28332936D01*
X33040030Y-28317115D01*
X33136813Y-28246798D01*
X33159788Y-28230107D01*
X33159788Y-28230106D01*
X33159792Y-28230104D01*
X33310104Y-28079792D01*
X33310106Y-28079788D01*
X33310109Y-28079786D01*
X33435048Y-27907820D01*
X33435050Y-27907817D01*
X33435051Y-27907816D01*
X33439514Y-27899054D01*
X33487488Y-27848259D01*
X33555308Y-27831463D01*
X33621444Y-27853999D01*
X33660486Y-27899056D01*
X33664951Y-27907820D01*
X33789890Y-28079786D01*
X33940213Y-28230109D01*
X34112179Y-28355048D01*
X34112181Y-28355049D01*
X34112184Y-28355051D01*
X34301588Y-28451557D01*
X34503757Y-28517246D01*
X34713713Y-28550500D01*
X34713714Y-28550500D01*
X34926286Y-28550500D01*
X34926287Y-28550500D01*
X35136243Y-28517246D01*
X35338412Y-28451557D01*
X35527816Y-28355051D01*
X35614138Y-28292335D01*
X35699786Y-28230109D01*
X35699788Y-28230106D01*
X35699792Y-28230104D01*
X35850104Y-28079792D01*
X35850106Y-28079788D01*
X35850109Y-28079786D01*
X35975048Y-27907820D01*
X35975050Y-27907817D01*
X35975051Y-27907816D01*
X35979514Y-27899054D01*
X36027488Y-27848259D01*
X36095308Y-27831463D01*
X36161444Y-27853999D01*
X36200486Y-27899056D01*
X36204951Y-27907820D01*
X36329890Y-28079786D01*
X36480213Y-28230109D01*
X36652179Y-28355048D01*
X36652181Y-28355049D01*
X36652184Y-28355051D01*
X36841588Y-28451557D01*
X37043757Y-28517246D01*
X37253713Y-28550500D01*
X37253714Y-28550500D01*
X37466286Y-28550500D01*
X37466287Y-28550500D01*
X37676243Y-28517246D01*
X37878412Y-28451557D01*
X38067816Y-28355051D01*
X38154138Y-28292335D01*
X38239786Y-28230109D01*
X38239788Y-28230106D01*
X38239792Y-28230104D01*
X38390104Y-28079792D01*
X38390106Y-28079788D01*
X38390109Y-28079786D01*
X38515048Y-27907820D01*
X38515050Y-27907817D01*
X38515051Y-27907816D01*
X38519514Y-27899054D01*
X38567488Y-27848259D01*
X38635308Y-27831463D01*
X38701444Y-27853999D01*
X38740486Y-27899056D01*
X38744951Y-27907820D01*
X38869890Y-28079786D01*
X39020213Y-28230109D01*
X39192179Y-28355048D01*
X39192181Y-28355049D01*
X39192184Y-28355051D01*
X39381588Y-28451557D01*
X39583757Y-28517246D01*
X39793713Y-28550500D01*
X39793714Y-28550500D01*
X40006286Y-28550500D01*
X40006287Y-28550500D01*
X40216243Y-28517246D01*
X40418412Y-28451557D01*
X40607816Y-28355051D01*
X40694138Y-28292335D01*
X40779786Y-28230109D01*
X40779788Y-28230106D01*
X40779792Y-28230104D01*
X40930104Y-28079792D01*
X40930106Y-28079788D01*
X40930109Y-28079786D01*
X41055048Y-27907820D01*
X41055050Y-27907817D01*
X41055051Y-27907816D01*
X41059514Y-27899054D01*
X41107488Y-27848259D01*
X41175308Y-27831463D01*
X41241444Y-27853999D01*
X41280486Y-27899056D01*
X41284951Y-27907820D01*
X41409890Y-28079786D01*
X41560213Y-28230109D01*
X41732179Y-28355048D01*
X41732181Y-28355049D01*
X41732184Y-28355051D01*
X41921588Y-28451557D01*
X42123757Y-28517246D01*
X42333713Y-28550500D01*
X42333714Y-28550500D01*
X42546286Y-28550500D01*
X42546287Y-28550500D01*
X42756243Y-28517246D01*
X42958412Y-28451557D01*
X43147816Y-28355051D01*
X43234138Y-28292335D01*
X43319786Y-28230109D01*
X43319788Y-28230106D01*
X43319792Y-28230104D01*
X43470104Y-28079792D01*
X43470106Y-28079788D01*
X43470109Y-28079786D01*
X43595048Y-27907820D01*
X43595050Y-27907817D01*
X43595051Y-27907816D01*
X43599514Y-27899054D01*
X43647488Y-27848259D01*
X43715308Y-27831463D01*
X43781444Y-27853999D01*
X43820486Y-27899056D01*
X43824951Y-27907820D01*
X43949890Y-28079786D01*
X44100213Y-28230109D01*
X44272179Y-28355048D01*
X44272181Y-28355049D01*
X44272184Y-28355051D01*
X44297196Y-28367795D01*
X44347992Y-28415768D01*
X44364788Y-28483588D01*
X44342252Y-28549724D01*
X44309794Y-28581381D01*
X44239713Y-28628208D01*
X44239707Y-28628213D01*
X44128213Y-28739707D01*
X44128210Y-28739711D01*
X44040609Y-28870814D01*
X44040602Y-28870827D01*
X43980264Y-29016498D01*
X43980261Y-29016510D01*
X43949500Y-29171153D01*
X43949500Y-29328846D01*
X43980261Y-29483489D01*
X43980264Y-29483501D01*
X44040602Y-29629172D01*
X44040609Y-29629185D01*
X44128210Y-29760288D01*
X44128213Y-29760292D01*
X44239707Y-29871786D01*
X44239711Y-29871789D01*
X44370814Y-29959390D01*
X44370827Y-29959397D01*
X44516498Y-30019735D01*
X44516503Y-30019737D01*
X44671153Y-30050499D01*
X44671156Y-30050500D01*
X44671158Y-30050500D01*
X44828844Y-30050500D01*
X44828845Y-30050499D01*
X44983497Y-30019737D01*
X45129179Y-29959394D01*
X45260289Y-29871789D01*
X45371789Y-29760289D01*
X45459394Y-29629179D01*
X45462854Y-29620827D01*
X45504726Y-29519737D01*
X45519737Y-29483497D01*
X45550500Y-29328842D01*
X45550500Y-29171158D01*
X45550500Y-29171155D01*
X45550499Y-29171153D01*
X45545349Y-29145261D01*
X45519737Y-29016503D01*
X45517162Y-29010287D01*
X45459397Y-28870827D01*
X45459390Y-28870814D01*
X45371789Y-28739711D01*
X45371786Y-28739707D01*
X45328437Y-28696358D01*
X45294952Y-28635035D01*
X45299936Y-28565343D01*
X45341808Y-28509410D01*
X45377797Y-28490747D01*
X45498412Y-28451557D01*
X45687816Y-28355051D01*
X45774138Y-28292335D01*
X45859786Y-28230109D01*
X45859788Y-28230106D01*
X45859792Y-28230104D01*
X46010104Y-28079792D01*
X46010106Y-28079788D01*
X46010109Y-28079786D01*
X46135048Y-27907820D01*
X46135050Y-27907817D01*
X46135051Y-27907816D01*
X46139514Y-27899054D01*
X46187488Y-27848259D01*
X46255308Y-27831463D01*
X46321444Y-27853999D01*
X46360486Y-27899056D01*
X46364951Y-27907820D01*
X46489890Y-28079786D01*
X46640213Y-28230109D01*
X46812179Y-28355048D01*
X46812181Y-28355049D01*
X46812184Y-28355051D01*
X47001588Y-28451557D01*
X47203757Y-28517246D01*
X47413713Y-28550500D01*
X47413714Y-28550500D01*
X47626282Y-28550500D01*
X47626287Y-28550500D01*
X47653356Y-28546212D01*
X47722646Y-28555166D01*
X47776099Y-28600161D01*
X47787314Y-28621232D01*
X47790604Y-28629175D01*
X47790609Y-28629185D01*
X47878210Y-28760288D01*
X47878213Y-28760292D01*
X47989707Y-28871786D01*
X47989711Y-28871789D01*
X48120814Y-28959390D01*
X48120827Y-28959397D01*
X48258683Y-29016498D01*
X48266503Y-29019737D01*
X48421153Y-29050499D01*
X48421156Y-29050500D01*
X48421158Y-29050500D01*
X48578844Y-29050500D01*
X48578845Y-29050499D01*
X48733497Y-29019737D01*
X48879179Y-28959394D01*
X49010289Y-28871789D01*
X49121789Y-28760289D01*
X49209394Y-28629179D01*
X49269737Y-28483497D01*
X49269738Y-28483489D01*
X49271506Y-28477665D01*
X49274388Y-28478539D01*
X49300442Y-28428007D01*
X49360952Y-28393074D01*
X49430743Y-28396401D01*
X49446469Y-28403091D01*
X49541588Y-28451557D01*
X49743757Y-28517246D01*
X49953713Y-28550500D01*
X49953714Y-28550500D01*
X50092098Y-28550500D01*
X50159137Y-28570185D01*
X50204892Y-28622989D01*
X50213715Y-28650308D01*
X50230261Y-28733491D01*
X50230264Y-28733501D01*
X50290602Y-28879172D01*
X50290609Y-28879185D01*
X50378210Y-29010288D01*
X50378213Y-29010292D01*
X50423185Y-29055264D01*
X50456670Y-29116587D01*
X50451686Y-29186279D01*
X50409814Y-29242212D01*
X50391799Y-29253430D01*
X50212180Y-29344951D01*
X50040213Y-29469890D01*
X49889890Y-29620213D01*
X49764951Y-29792179D01*
X49668444Y-29981585D01*
X49602753Y-30183760D01*
X49569500Y-30393713D01*
X49569500Y-30606286D01*
X49600260Y-30800500D01*
X49602754Y-30816243D01*
X49656960Y-30983072D01*
X49668444Y-31018414D01*
X49764951Y-31207820D01*
X49889890Y-31379786D01*
X50040213Y-31530109D01*
X50212179Y-31655048D01*
X50212181Y-31655049D01*
X50212184Y-31655051D01*
X50401588Y-31751557D01*
X50603757Y-31817246D01*
X50813713Y-31850500D01*
X50813714Y-31850500D01*
X51026286Y-31850500D01*
X51026287Y-31850500D01*
X51236243Y-31817246D01*
X51438412Y-31751557D01*
X51627816Y-31655051D01*
X51688969Y-31610621D01*
X51799786Y-31530109D01*
X51799788Y-31530106D01*
X51799792Y-31530104D01*
X51950104Y-31379792D01*
X51950106Y-31379788D01*
X51950109Y-31379786D01*
X52075048Y-31207820D01*
X52075047Y-31207820D01*
X52075051Y-31207816D01*
X52079514Y-31199054D01*
X52127488Y-31148259D01*
X52195308Y-31131463D01*
X52261444Y-31153999D01*
X52300486Y-31199056D01*
X52304951Y-31207820D01*
X52429890Y-31379786D01*
X52580213Y-31530109D01*
X52752179Y-31655048D01*
X52752181Y-31655049D01*
X52752184Y-31655051D01*
X52941588Y-31751557D01*
X53143757Y-31817246D01*
X53353713Y-31850500D01*
X53353714Y-31850500D01*
X53566286Y-31850500D01*
X53566287Y-31850500D01*
X53776243Y-31817246D01*
X53978412Y-31751557D01*
X54167816Y-31655051D01*
X54243226Y-31600263D01*
X54339784Y-31530110D01*
X54339784Y-31530109D01*
X54339792Y-31530104D01*
X54453329Y-31416566D01*
X54514648Y-31383084D01*
X54584340Y-31388068D01*
X54640274Y-31429939D01*
X54657189Y-31460917D01*
X54706202Y-31592328D01*
X54706206Y-31592335D01*
X54792452Y-31707544D01*
X54792453Y-31707544D01*
X54792454Y-31707546D01*
X54822797Y-31730261D01*
X54888304Y-31779300D01*
X54930174Y-31835234D01*
X54935158Y-31904926D01*
X54901675Y-31966246D01*
X54878210Y-31989711D01*
X54790609Y-32120814D01*
X54790602Y-32120827D01*
X54730264Y-32266498D01*
X54730261Y-32266510D01*
X54699500Y-32421153D01*
X54699500Y-32578846D01*
X54730261Y-32733489D01*
X54730264Y-32733501D01*
X54790602Y-32879172D01*
X54790609Y-32879185D01*
X54878210Y-33010288D01*
X54878213Y-33010292D01*
X54989707Y-33121786D01*
X54989711Y-33121789D01*
X55120814Y-33209390D01*
X55120827Y-33209397D01*
X55258683Y-33266498D01*
X55266503Y-33269737D01*
X55421153Y-33300499D01*
X55421156Y-33300500D01*
X55421158Y-33300500D01*
X55578844Y-33300500D01*
X55578845Y-33300499D01*
X55733497Y-33269737D01*
X55879179Y-33209394D01*
X56010289Y-33121789D01*
X56121789Y-33010289D01*
X56181348Y-32921153D01*
X57949500Y-32921153D01*
X57949500Y-33078846D01*
X57980261Y-33233489D01*
X57980264Y-33233501D01*
X58040602Y-33379172D01*
X58040609Y-33379185D01*
X58128210Y-33510288D01*
X58128213Y-33510292D01*
X58239707Y-33621786D01*
X58239711Y-33621789D01*
X58370814Y-33709390D01*
X58370827Y-33709397D01*
X58507370Y-33765954D01*
X58516503Y-33769737D01*
X58671153Y-33800499D01*
X58671156Y-33800500D01*
X58671158Y-33800500D01*
X58828844Y-33800500D01*
X58828845Y-33800499D01*
X58983497Y-33769737D01*
X59129179Y-33709394D01*
X59260289Y-33621789D01*
X59371789Y-33510289D01*
X59459394Y-33379179D01*
X59519737Y-33233497D01*
X59548327Y-33089765D01*
X59580711Y-33027855D01*
X59641427Y-32993281D01*
X59711197Y-32997020D01*
X59717359Y-32999381D01*
X59766503Y-33019737D01*
X59921153Y-33050499D01*
X59921156Y-33050500D01*
X59921158Y-33050500D01*
X60078844Y-33050500D01*
X60078845Y-33050499D01*
X60233497Y-33019737D01*
X60233509Y-33019731D01*
X60239324Y-33017969D01*
X60239728Y-33019302D01*
X60302192Y-33012578D01*
X60364675Y-33043845D01*
X60400336Y-33103929D01*
X60397852Y-33173754D01*
X60367874Y-33222292D01*
X60309553Y-33280613D01*
X60221952Y-33411716D01*
X60221945Y-33411729D01*
X60161607Y-33557400D01*
X60161604Y-33557412D01*
X60130843Y-33712055D01*
X60130843Y-33869748D01*
X60161604Y-34024391D01*
X60161607Y-34024403D01*
X60221945Y-34170074D01*
X60221952Y-34170087D01*
X60309553Y-34301190D01*
X60309556Y-34301194D01*
X60421050Y-34412688D01*
X60421054Y-34412691D01*
X60552157Y-34500292D01*
X60552170Y-34500299D01*
X60697841Y-34560637D01*
X60697846Y-34560639D01*
X60852496Y-34591401D01*
X60852499Y-34591402D01*
X60852501Y-34591402D01*
X61010187Y-34591402D01*
X61010188Y-34591401D01*
X61164840Y-34560639D01*
X61310522Y-34500296D01*
X61441632Y-34412691D01*
X61493963Y-34360360D01*
X64887293Y-34360360D01*
X64887293Y-34518053D01*
X64918054Y-34672696D01*
X64918057Y-34672708D01*
X64978395Y-34818379D01*
X64978402Y-34818392D01*
X65066003Y-34949495D01*
X65066006Y-34949499D01*
X65177500Y-35060993D01*
X65177504Y-35060996D01*
X65308607Y-35148597D01*
X65308620Y-35148604D01*
X65450894Y-35207535D01*
X65454296Y-35208944D01*
X65605784Y-35239077D01*
X65608946Y-35239706D01*
X65608949Y-35239707D01*
X65608951Y-35239707D01*
X65766637Y-35239707D01*
X65766638Y-35239706D01*
X65921290Y-35208944D01*
X66066972Y-35148601D01*
X66198082Y-35060996D01*
X66309582Y-34949496D01*
X66397187Y-34818386D01*
X66457530Y-34672704D01*
X66488293Y-34518049D01*
X66488293Y-34360365D01*
X66488293Y-34360362D01*
X66488292Y-34360360D01*
X66476522Y-34301188D01*
X66457530Y-34205710D01*
X66422368Y-34120821D01*
X66397190Y-34060034D01*
X66397183Y-34060021D01*
X66309582Y-33928918D01*
X66309579Y-33928914D01*
X66198085Y-33817420D01*
X66198081Y-33817417D01*
X66066978Y-33729816D01*
X66066965Y-33729809D01*
X65921294Y-33669471D01*
X65921282Y-33669468D01*
X65766638Y-33638707D01*
X65766635Y-33638707D01*
X65608951Y-33638707D01*
X65608948Y-33638707D01*
X65454303Y-33669468D01*
X65454291Y-33669471D01*
X65308620Y-33729809D01*
X65308607Y-33729816D01*
X65177504Y-33817417D01*
X65177500Y-33817420D01*
X65066006Y-33928914D01*
X65066003Y-33928918D01*
X64978402Y-34060021D01*
X64978395Y-34060034D01*
X64918057Y-34205705D01*
X64918054Y-34205717D01*
X64887293Y-34360360D01*
X61493963Y-34360360D01*
X61553132Y-34301191D01*
X61553178Y-34301122D01*
X61563697Y-34285381D01*
X61640733Y-34170087D01*
X61640733Y-34170086D01*
X61640737Y-34170081D01*
X61701080Y-34024399D01*
X61731843Y-33869744D01*
X61731843Y-33712060D01*
X61731843Y-33712057D01*
X61731842Y-33712055D01*
X61715355Y-33629172D01*
X61701080Y-33557405D01*
X61698220Y-33550500D01*
X61640740Y-33411729D01*
X61640733Y-33411716D01*
X61553132Y-33280613D01*
X61553129Y-33280609D01*
X61441635Y-33169115D01*
X61441631Y-33169112D01*
X61310528Y-33081511D01*
X61310515Y-33081504D01*
X61164844Y-33021166D01*
X61164832Y-33021163D01*
X61010188Y-32990402D01*
X61010185Y-32990402D01*
X60852501Y-32990402D01*
X60852498Y-32990402D01*
X60697853Y-33021163D01*
X60692019Y-33022933D01*
X60691616Y-33021604D01*
X60629120Y-33028317D01*
X60566644Y-32997036D01*
X60530998Y-32936943D01*
X60533500Y-32867118D01*
X60563467Y-32818610D01*
X60621789Y-32760289D01*
X60709394Y-32629179D01*
X60712854Y-32620827D01*
X60745516Y-32541972D01*
X60769737Y-32483497D01*
X60800500Y-32328842D01*
X60800500Y-32291153D01*
X65949500Y-32291153D01*
X65949500Y-32448846D01*
X65980261Y-32603489D01*
X65980264Y-32603501D01*
X66040602Y-32749172D01*
X66040609Y-32749185D01*
X66128210Y-32880288D01*
X66128213Y-32880292D01*
X66239707Y-32991786D01*
X66239711Y-32991789D01*
X66370814Y-33079390D01*
X66370827Y-33079397D01*
X66491028Y-33129185D01*
X66516503Y-33139737D01*
X66664180Y-33169112D01*
X66671153Y-33170499D01*
X66671156Y-33170500D01*
X66671158Y-33170500D01*
X66828844Y-33170500D01*
X66828845Y-33170499D01*
X66983497Y-33139737D01*
X67124068Y-33081511D01*
X67129172Y-33079397D01*
X67129172Y-33079396D01*
X67129179Y-33079394D01*
X67260289Y-32991789D01*
X67371789Y-32880289D01*
X67459394Y-32749179D01*
X67519737Y-32603497D01*
X67550500Y-32448842D01*
X67550500Y-32421153D01*
X81699500Y-32421153D01*
X81699500Y-32578846D01*
X81730261Y-32733489D01*
X81730264Y-32733501D01*
X81790602Y-32879172D01*
X81790609Y-32879185D01*
X81878210Y-33010288D01*
X81878213Y-33010292D01*
X81989707Y-33121786D01*
X81989711Y-33121789D01*
X82120814Y-33209390D01*
X82120827Y-33209397D01*
X82258683Y-33266498D01*
X82266503Y-33269737D01*
X82421153Y-33300499D01*
X82421156Y-33300500D01*
X82421158Y-33300500D01*
X82578844Y-33300500D01*
X82578845Y-33300499D01*
X82733497Y-33269737D01*
X82879179Y-33209394D01*
X83010289Y-33121789D01*
X83121789Y-33010289D01*
X83209394Y-32879179D01*
X83212854Y-32870827D01*
X83241984Y-32800500D01*
X83269737Y-32733497D01*
X83300500Y-32578842D01*
X83300500Y-32421158D01*
X83300500Y-32421155D01*
X83300499Y-32421153D01*
X83299659Y-32416928D01*
X83269737Y-32266503D01*
X83262389Y-32248764D01*
X83209397Y-32120827D01*
X83209390Y-32120814D01*
X83121789Y-31989711D01*
X83121786Y-31989707D01*
X83010292Y-31878213D01*
X83010288Y-31878210D01*
X82879185Y-31790609D01*
X82879172Y-31790602D01*
X82733501Y-31730264D01*
X82733489Y-31730261D01*
X82578845Y-31699500D01*
X82578842Y-31699500D01*
X82421158Y-31699500D01*
X82421155Y-31699500D01*
X82266510Y-31730261D01*
X82266498Y-31730264D01*
X82120827Y-31790602D01*
X82120814Y-31790609D01*
X81989711Y-31878210D01*
X81989707Y-31878213D01*
X81878213Y-31989707D01*
X81878210Y-31989711D01*
X81790609Y-32120814D01*
X81790602Y-32120827D01*
X81730264Y-32266498D01*
X81730261Y-32266510D01*
X81699500Y-32421153D01*
X67550500Y-32421153D01*
X67550500Y-32291158D01*
X67550500Y-32291155D01*
X67550499Y-32291153D01*
X67526630Y-32171158D01*
X67519737Y-32136503D01*
X67513241Y-32120821D01*
X67459397Y-31990827D01*
X67459390Y-31990814D01*
X67371789Y-31859711D01*
X67371786Y-31859707D01*
X67260292Y-31748213D01*
X67260288Y-31748210D01*
X67129185Y-31660609D01*
X67129172Y-31660602D01*
X66983501Y-31600264D01*
X66983489Y-31600261D01*
X66828845Y-31569500D01*
X66828842Y-31569500D01*
X66671158Y-31569500D01*
X66671155Y-31569500D01*
X66516510Y-31600261D01*
X66516498Y-31600264D01*
X66370827Y-31660602D01*
X66370814Y-31660609D01*
X66239711Y-31748210D01*
X66239707Y-31748213D01*
X66128213Y-31859707D01*
X66128210Y-31859711D01*
X66040609Y-31990814D01*
X66040602Y-31990827D01*
X65980264Y-32136498D01*
X65980261Y-32136510D01*
X65949500Y-32291153D01*
X60800500Y-32291153D01*
X60800500Y-32171158D01*
X60800500Y-32171155D01*
X60800499Y-32171153D01*
X60783144Y-32083903D01*
X60769737Y-32016503D01*
X60759096Y-31990814D01*
X60709397Y-31870827D01*
X60709390Y-31870814D01*
X60621789Y-31739711D01*
X60621786Y-31739707D01*
X60510292Y-31628213D01*
X60510288Y-31628210D01*
X60379185Y-31540609D01*
X60379172Y-31540602D01*
X60233501Y-31480264D01*
X60233489Y-31480261D01*
X60078845Y-31449500D01*
X60078842Y-31449500D01*
X59921158Y-31449500D01*
X59921155Y-31449500D01*
X59766510Y-31480261D01*
X59766498Y-31480264D01*
X59620827Y-31540602D01*
X59620814Y-31540609D01*
X59489711Y-31628210D01*
X59489707Y-31628213D01*
X59378213Y-31739707D01*
X59378210Y-31739711D01*
X59290609Y-31870814D01*
X59290602Y-31870827D01*
X59230264Y-32016498D01*
X59230261Y-32016508D01*
X59201672Y-32160234D01*
X59169287Y-32222145D01*
X59108571Y-32256719D01*
X59038801Y-32252979D01*
X59032603Y-32250603D01*
X58983501Y-32230264D01*
X58983489Y-32230261D01*
X58828845Y-32199500D01*
X58828842Y-32199500D01*
X58671158Y-32199500D01*
X58671155Y-32199500D01*
X58516510Y-32230261D01*
X58516498Y-32230264D01*
X58370827Y-32290602D01*
X58370814Y-32290609D01*
X58239711Y-32378210D01*
X58239707Y-32378213D01*
X58128213Y-32489707D01*
X58128210Y-32489711D01*
X58040609Y-32620814D01*
X58040602Y-32620827D01*
X57980264Y-32766498D01*
X57980261Y-32766510D01*
X57949500Y-32921153D01*
X56181348Y-32921153D01*
X56209394Y-32879179D01*
X56269737Y-32733497D01*
X56300500Y-32578842D01*
X56300500Y-32421158D01*
X56300500Y-32421155D01*
X56300499Y-32421153D01*
X56299659Y-32416928D01*
X56269737Y-32266503D01*
X56262389Y-32248764D01*
X56209397Y-32120827D01*
X56209390Y-32120814D01*
X56157657Y-32043390D01*
X56136779Y-31976712D01*
X56155264Y-31909332D01*
X56207243Y-31862642D01*
X56260759Y-31850499D01*
X56897871Y-31850499D01*
X56897872Y-31850499D01*
X56957483Y-31844091D01*
X57092331Y-31793796D01*
X57207546Y-31707546D01*
X57293796Y-31592331D01*
X57344091Y-31457483D01*
X57350500Y-31397873D01*
X57350500Y-30839500D01*
X57370185Y-30772461D01*
X57422989Y-30726706D01*
X57474500Y-30715500D01*
X57481886Y-30715500D01*
X57481887Y-30715499D01*
X57636539Y-30684737D01*
X57776900Y-30626598D01*
X57782214Y-30624397D01*
X57782214Y-30624396D01*
X57782221Y-30624394D01*
X57913331Y-30536789D01*
X58024831Y-30425289D01*
X58112436Y-30294179D01*
X58172779Y-30148497D01*
X58203542Y-29993842D01*
X58203542Y-29836158D01*
X58203542Y-29836155D01*
X58203541Y-29836153D01*
X58194795Y-29792184D01*
X58172779Y-29681503D01*
X58162887Y-29657622D01*
X58112439Y-29535827D01*
X58112432Y-29535814D01*
X58024831Y-29404711D01*
X58024828Y-29404707D01*
X57913334Y-29293213D01*
X57913330Y-29293210D01*
X57782227Y-29205609D01*
X57782214Y-29205602D01*
X57636543Y-29145264D01*
X57636531Y-29145261D01*
X57481887Y-29114500D01*
X57481884Y-29114500D01*
X57324200Y-29114500D01*
X57324197Y-29114500D01*
X57169553Y-29145260D01*
X57169543Y-29145263D01*
X57100618Y-29173813D01*
X57031148Y-29181282D01*
X57009833Y-29175434D01*
X56957482Y-29155908D01*
X56957483Y-29155908D01*
X56897883Y-29149501D01*
X56897881Y-29149500D01*
X56897873Y-29149500D01*
X56897864Y-29149500D01*
X55102129Y-29149500D01*
X55102123Y-29149501D01*
X55042516Y-29155908D01*
X54907671Y-29206202D01*
X54907664Y-29206206D01*
X54792455Y-29292452D01*
X54792452Y-29292455D01*
X54706206Y-29407664D01*
X54706203Y-29407669D01*
X54657189Y-29539083D01*
X54615317Y-29595016D01*
X54549853Y-29619433D01*
X54481580Y-29604581D01*
X54453326Y-29583430D01*
X54339786Y-29469890D01*
X54167820Y-29344951D01*
X53978414Y-29248444D01*
X53978413Y-29248443D01*
X53978412Y-29248443D01*
X53776243Y-29182754D01*
X53776241Y-29182753D01*
X53776240Y-29182753D01*
X53614957Y-29157208D01*
X53566287Y-29149500D01*
X53353713Y-29149500D01*
X53305042Y-29157208D01*
X53143760Y-29182753D01*
X52941585Y-29248444D01*
X52752179Y-29344951D01*
X52580213Y-29469890D01*
X52429890Y-29620213D01*
X52304949Y-29792182D01*
X52300484Y-29800946D01*
X52252509Y-29851742D01*
X52184688Y-29868536D01*
X52118553Y-29845998D01*
X52079516Y-29800946D01*
X52075050Y-29792182D01*
X51950109Y-29620213D01*
X51799786Y-29469890D01*
X51627817Y-29344949D01*
X51554193Y-29307435D01*
X51503398Y-29259461D01*
X51486603Y-29191639D01*
X51509141Y-29125505D01*
X51522802Y-29109275D01*
X51621789Y-29010289D01*
X51709394Y-28879179D01*
X51712854Y-28870827D01*
X51741984Y-28800499D01*
X51769737Y-28733497D01*
X51800500Y-28578842D01*
X51800500Y-28510685D01*
X51820185Y-28443646D01*
X51872989Y-28397891D01*
X51942147Y-28387947D01*
X51980792Y-28400199D01*
X52081588Y-28451557D01*
X52283757Y-28517246D01*
X52493713Y-28550500D01*
X52493714Y-28550500D01*
X52706286Y-28550500D01*
X52706287Y-28550500D01*
X52916243Y-28517246D01*
X53118412Y-28451557D01*
X53307816Y-28355051D01*
X53394138Y-28292335D01*
X53479786Y-28230109D01*
X53479788Y-28230106D01*
X53479792Y-28230104D01*
X53630104Y-28079792D01*
X53630106Y-28079788D01*
X53630109Y-28079786D01*
X53755048Y-27907820D01*
X53755050Y-27907817D01*
X53755051Y-27907816D01*
X53759514Y-27899054D01*
X53807488Y-27848259D01*
X53875308Y-27831463D01*
X53941444Y-27853999D01*
X53980486Y-27899056D01*
X53984951Y-27907820D01*
X54109890Y-28079786D01*
X54260213Y-28230109D01*
X54432179Y-28355048D01*
X54432181Y-28355049D01*
X54432184Y-28355051D01*
X54621588Y-28451557D01*
X54823757Y-28517246D01*
X55033713Y-28550500D01*
X55033714Y-28550500D01*
X55246286Y-28550500D01*
X55246287Y-28550500D01*
X55456243Y-28517246D01*
X55658412Y-28451557D01*
X55847816Y-28355051D01*
X55934138Y-28292335D01*
X56019786Y-28230109D01*
X56019788Y-28230106D01*
X56019792Y-28230104D01*
X56170104Y-28079792D01*
X56170106Y-28079788D01*
X56170109Y-28079786D01*
X56295048Y-27907820D01*
X56295050Y-27907817D01*
X56295051Y-27907816D01*
X56299514Y-27899054D01*
X56347488Y-27848259D01*
X56415308Y-27831463D01*
X56481444Y-27853999D01*
X56520486Y-27899056D01*
X56524951Y-27907820D01*
X56649890Y-28079786D01*
X56800213Y-28230109D01*
X56972179Y-28355048D01*
X56972181Y-28355049D01*
X56972184Y-28355051D01*
X57161588Y-28451557D01*
X57363757Y-28517246D01*
X57573713Y-28550500D01*
X57573714Y-28550500D01*
X57786286Y-28550500D01*
X57786287Y-28550500D01*
X57996243Y-28517246D01*
X58198412Y-28451557D01*
X58387816Y-28355051D01*
X58474138Y-28292335D01*
X58559786Y-28230109D01*
X58559788Y-28230106D01*
X58559792Y-28230104D01*
X58710104Y-28079792D01*
X58710106Y-28079788D01*
X58710109Y-28079786D01*
X58835048Y-27907820D01*
X58835050Y-27907817D01*
X58835051Y-27907816D01*
X58839514Y-27899054D01*
X58887488Y-27848259D01*
X58955308Y-27831463D01*
X59021444Y-27853999D01*
X59060486Y-27899056D01*
X59064951Y-27907820D01*
X59189890Y-28079786D01*
X59340213Y-28230109D01*
X59512179Y-28355048D01*
X59512181Y-28355049D01*
X59512184Y-28355051D01*
X59701588Y-28451557D01*
X59903757Y-28517246D01*
X60113713Y-28550500D01*
X60113714Y-28550500D01*
X60326286Y-28550500D01*
X60326287Y-28550500D01*
X60536243Y-28517246D01*
X60738412Y-28451557D01*
X60927816Y-28355051D01*
X61014138Y-28292335D01*
X61099786Y-28230109D01*
X61099788Y-28230106D01*
X61099792Y-28230104D01*
X61250104Y-28079792D01*
X61250106Y-28079788D01*
X61250109Y-28079786D01*
X61375048Y-27907820D01*
X61375050Y-27907817D01*
X61375051Y-27907816D01*
X61379514Y-27899054D01*
X61427488Y-27848259D01*
X61495308Y-27831463D01*
X61561444Y-27853999D01*
X61600486Y-27899056D01*
X61604951Y-27907820D01*
X61729890Y-28079786D01*
X61880213Y-28230109D01*
X62052179Y-28355048D01*
X62052181Y-28355049D01*
X62052184Y-28355051D01*
X62241588Y-28451557D01*
X62443757Y-28517246D01*
X62653713Y-28550500D01*
X62653714Y-28550500D01*
X62866286Y-28550500D01*
X62866287Y-28550500D01*
X63076243Y-28517246D01*
X63278412Y-28451557D01*
X63467816Y-28355051D01*
X63554138Y-28292335D01*
X63639786Y-28230109D01*
X63639788Y-28230106D01*
X63639792Y-28230104D01*
X63790104Y-28079792D01*
X63790106Y-28079788D01*
X63790109Y-28079786D01*
X63915048Y-27907820D01*
X63915050Y-27907817D01*
X63915051Y-27907816D01*
X63919514Y-27899054D01*
X63967488Y-27848259D01*
X64035308Y-27831463D01*
X64101444Y-27853999D01*
X64140486Y-27899056D01*
X64144951Y-27907820D01*
X64269890Y-28079786D01*
X64420213Y-28230109D01*
X64592179Y-28355048D01*
X64592181Y-28355049D01*
X64592184Y-28355051D01*
X64781588Y-28451557D01*
X64983757Y-28517246D01*
X65193713Y-28550500D01*
X65193714Y-28550500D01*
X65406286Y-28550500D01*
X65406287Y-28550500D01*
X65616243Y-28517246D01*
X65818412Y-28451557D01*
X66007816Y-28355051D01*
X66094138Y-28292335D01*
X66179786Y-28230109D01*
X66179788Y-28230106D01*
X66179792Y-28230104D01*
X66330104Y-28079792D01*
X66330106Y-28079788D01*
X66330109Y-28079786D01*
X66455048Y-27907820D01*
X66455050Y-27907817D01*
X66455051Y-27907816D01*
X66459514Y-27899054D01*
X66507488Y-27848259D01*
X66575308Y-27831463D01*
X66641444Y-27853999D01*
X66680486Y-27899056D01*
X66684951Y-27907820D01*
X66809890Y-28079786D01*
X66960213Y-28230109D01*
X67132179Y-28355048D01*
X67132181Y-28355049D01*
X67132184Y-28355051D01*
X67321588Y-28451557D01*
X67523757Y-28517246D01*
X67733713Y-28550500D01*
X67733714Y-28550500D01*
X67946286Y-28550500D01*
X67946287Y-28550500D01*
X68156243Y-28517246D01*
X68358412Y-28451557D01*
X68547816Y-28355051D01*
X68634138Y-28292335D01*
X68719786Y-28230109D01*
X68719788Y-28230106D01*
X68719792Y-28230104D01*
X68870104Y-28079792D01*
X68940850Y-27982417D01*
X68996176Y-27939754D01*
X69065789Y-27933773D01*
X69110058Y-27952202D01*
X69120821Y-27959394D01*
X69120823Y-27959394D01*
X69120827Y-27959397D01*
X69217991Y-27999643D01*
X69266503Y-28019737D01*
X69421153Y-28050499D01*
X69421156Y-28050500D01*
X69421158Y-28050500D01*
X69578844Y-28050500D01*
X69578845Y-28050499D01*
X69733497Y-28019737D01*
X69879179Y-27959394D01*
X69936411Y-27921153D01*
X70449500Y-27921153D01*
X70449500Y-28078846D01*
X70480261Y-28233489D01*
X70480264Y-28233501D01*
X70540602Y-28379172D01*
X70540609Y-28379185D01*
X70628210Y-28510288D01*
X70628213Y-28510292D01*
X70739707Y-28621786D01*
X70739711Y-28621789D01*
X70870814Y-28709390D01*
X70870827Y-28709397D01*
X70994054Y-28760439D01*
X71048458Y-28804280D01*
X71070523Y-28870574D01*
X71053244Y-28938273D01*
X71002107Y-28985884D01*
X70994054Y-28989561D01*
X70870827Y-29040602D01*
X70870814Y-29040609D01*
X70739711Y-29128210D01*
X70739707Y-29128213D01*
X70628213Y-29239707D01*
X70628210Y-29239711D01*
X70540609Y-29370814D01*
X70540602Y-29370827D01*
X70480264Y-29516498D01*
X70480261Y-29516510D01*
X70449500Y-29671153D01*
X70449500Y-29828846D01*
X70480261Y-29983489D01*
X70480264Y-29983501D01*
X70540602Y-30129172D01*
X70540609Y-30129185D01*
X70628210Y-30260288D01*
X70628213Y-30260292D01*
X70739707Y-30371786D01*
X70739711Y-30371789D01*
X70870814Y-30459390D01*
X70870827Y-30459397D01*
X71016498Y-30519735D01*
X71016503Y-30519737D01*
X71171153Y-30550499D01*
X71171156Y-30550500D01*
X71171158Y-30550500D01*
X71328844Y-30550500D01*
X71328845Y-30550499D01*
X71483497Y-30519737D01*
X71629179Y-30459394D01*
X71760289Y-30371789D01*
X71871789Y-30260289D01*
X71959394Y-30129179D01*
X72019737Y-29983497D01*
X72050500Y-29828842D01*
X72050500Y-29671158D01*
X72050500Y-29671155D01*
X72050499Y-29671153D01*
X72019737Y-29516503D01*
X72011082Y-29495608D01*
X71959397Y-29370827D01*
X71959390Y-29370814D01*
X71871789Y-29239711D01*
X71871786Y-29239707D01*
X71760292Y-29128213D01*
X71760288Y-29128210D01*
X71629185Y-29040609D01*
X71629172Y-29040602D01*
X71505945Y-28989561D01*
X71451541Y-28945721D01*
X71429476Y-28879427D01*
X71446755Y-28811727D01*
X71497892Y-28764116D01*
X71505945Y-28760439D01*
X71629172Y-28709397D01*
X71629172Y-28709396D01*
X71629179Y-28709394D01*
X71760289Y-28621789D01*
X71871789Y-28510289D01*
X71882811Y-28493793D01*
X71896898Y-28472712D01*
X71950510Y-28427906D01*
X72019835Y-28419199D01*
X72082862Y-28449353D01*
X72103102Y-28472712D01*
X72128207Y-28510284D01*
X72128213Y-28510292D01*
X72239707Y-28621786D01*
X72239711Y-28621789D01*
X72370814Y-28709390D01*
X72370827Y-28709397D01*
X72516498Y-28769735D01*
X72516503Y-28769737D01*
X72671153Y-28800499D01*
X72671156Y-28800500D01*
X72671158Y-28800500D01*
X72828844Y-28800500D01*
X72828845Y-28800499D01*
X72983497Y-28769737D01*
X73129179Y-28709394D01*
X73260289Y-28621789D01*
X73270856Y-28611222D01*
X73287319Y-28594760D01*
X73348642Y-28561275D01*
X73418334Y-28566259D01*
X73462681Y-28594760D01*
X73489707Y-28621786D01*
X73489711Y-28621789D01*
X73620814Y-28709390D01*
X73620827Y-28709397D01*
X73766498Y-28769735D01*
X73766503Y-28769737D01*
X73921153Y-28800499D01*
X73921156Y-28800500D01*
X73921158Y-28800500D01*
X74078844Y-28800500D01*
X74078845Y-28800499D01*
X74233497Y-28769737D01*
X74379179Y-28709394D01*
X74510289Y-28621789D01*
X74520856Y-28611222D01*
X74537319Y-28594760D01*
X74598642Y-28561275D01*
X74668334Y-28566259D01*
X74712681Y-28594760D01*
X74739707Y-28621786D01*
X74739711Y-28621789D01*
X74870814Y-28709390D01*
X74870827Y-28709397D01*
X75016498Y-28769735D01*
X75016503Y-28769737D01*
X75171153Y-28800499D01*
X75171156Y-28800500D01*
X75171158Y-28800500D01*
X75328844Y-28800500D01*
X75328845Y-28800499D01*
X75483497Y-28769737D01*
X75629179Y-28709394D01*
X75760289Y-28621789D01*
X75770856Y-28611222D01*
X75787319Y-28594760D01*
X75848642Y-28561275D01*
X75918334Y-28566259D01*
X75962681Y-28594760D01*
X75989707Y-28621786D01*
X75989711Y-28621789D01*
X76120814Y-28709390D01*
X76120827Y-28709397D01*
X76266498Y-28769735D01*
X76266503Y-28769737D01*
X76421153Y-28800499D01*
X76421156Y-28800500D01*
X76421158Y-28800500D01*
X76578844Y-28800500D01*
X76578845Y-28800499D01*
X76733497Y-28769737D01*
X76879179Y-28709394D01*
X77010289Y-28621789D01*
X77020856Y-28611222D01*
X77037319Y-28594760D01*
X77098642Y-28561275D01*
X77168334Y-28566259D01*
X77212681Y-28594760D01*
X77239707Y-28621786D01*
X77239711Y-28621789D01*
X77370814Y-28709390D01*
X77370827Y-28709397D01*
X77516498Y-28769735D01*
X77516503Y-28769737D01*
X77671153Y-28800499D01*
X77671156Y-28800500D01*
X77671158Y-28800500D01*
X77828844Y-28800500D01*
X77828845Y-28800499D01*
X77983497Y-28769737D01*
X78129179Y-28709394D01*
X78260289Y-28621789D01*
X78270856Y-28611222D01*
X78287319Y-28594760D01*
X78348642Y-28561275D01*
X78418334Y-28566259D01*
X78462681Y-28594760D01*
X78489707Y-28621786D01*
X78489711Y-28621789D01*
X78620814Y-28709390D01*
X78620827Y-28709397D01*
X78766498Y-28769735D01*
X78766503Y-28769737D01*
X78921153Y-28800499D01*
X78921156Y-28800500D01*
X78921158Y-28800500D01*
X79078844Y-28800500D01*
X79078845Y-28800499D01*
X79233497Y-28769737D01*
X79379179Y-28709394D01*
X79510289Y-28621789D01*
X79589820Y-28542257D01*
X79651141Y-28508774D01*
X79720833Y-28513758D01*
X79765180Y-28542258D01*
X79784197Y-28561275D01*
X79792212Y-28569290D01*
X79923314Y-28656890D01*
X79923327Y-28656897D01*
X80050068Y-28709394D01*
X80069003Y-28717237D01*
X80181967Y-28739707D01*
X80223653Y-28747999D01*
X80223656Y-28748000D01*
X80223658Y-28748000D01*
X80381344Y-28748000D01*
X80381345Y-28747999D01*
X80535997Y-28717237D01*
X80681679Y-28656894D01*
X80812789Y-28569289D01*
X80859820Y-28522257D01*
X80921139Y-28488774D01*
X80990830Y-28493757D01*
X81035180Y-28522259D01*
X81062207Y-28549286D01*
X81062211Y-28549289D01*
X81193314Y-28636890D01*
X81193327Y-28636897D01*
X81326702Y-28692142D01*
X81339003Y-28697237D01*
X81493653Y-28727999D01*
X81493656Y-28728000D01*
X81493658Y-28728000D01*
X81651344Y-28728000D01*
X81651345Y-28727999D01*
X81805997Y-28697237D01*
X81951679Y-28636894D01*
X82082789Y-28549289D01*
X82129820Y-28502257D01*
X82191139Y-28468774D01*
X82260830Y-28473757D01*
X82305180Y-28502259D01*
X82332207Y-28529286D01*
X82332211Y-28529289D01*
X82463314Y-28616890D01*
X82463327Y-28616897D01*
X82594327Y-28671158D01*
X82609003Y-28677237D01*
X82720926Y-28699500D01*
X82763653Y-28707999D01*
X82763656Y-28708000D01*
X82763658Y-28708000D01*
X82921344Y-28708000D01*
X82921345Y-28707999D01*
X83075997Y-28677237D01*
X83221679Y-28616894D01*
X83352789Y-28529289D01*
X83399820Y-28482257D01*
X83461139Y-28448774D01*
X83530830Y-28453757D01*
X83575180Y-28482259D01*
X83602207Y-28509286D01*
X83602211Y-28509289D01*
X83733314Y-28596890D01*
X83733327Y-28596897D01*
X83878165Y-28656890D01*
X83879003Y-28657237D01*
X84033653Y-28687999D01*
X84033656Y-28688000D01*
X84033658Y-28688000D01*
X84191344Y-28688000D01*
X84191345Y-28687999D01*
X84345997Y-28657237D01*
X84491679Y-28596894D01*
X84622789Y-28509289D01*
X84734289Y-28397789D01*
X84821894Y-28266679D01*
X84882237Y-28120997D01*
X84913000Y-27966342D01*
X84913000Y-27808658D01*
X84913000Y-27808655D01*
X84912999Y-27808653D01*
X84903379Y-27760289D01*
X84882237Y-27654003D01*
X84882235Y-27653998D01*
X84821897Y-27508327D01*
X84821890Y-27508314D01*
X84734289Y-27377211D01*
X84734286Y-27377207D01*
X84622792Y-27265713D01*
X84622788Y-27265710D01*
X84491685Y-27178109D01*
X84491672Y-27178102D01*
X84346001Y-27117764D01*
X84345989Y-27117761D01*
X84191345Y-27087000D01*
X84191342Y-27087000D01*
X84033658Y-27087000D01*
X84033655Y-27087000D01*
X83879010Y-27117761D01*
X83878998Y-27117764D01*
X83733327Y-27178102D01*
X83733314Y-27178109D01*
X83602211Y-27265710D01*
X83602207Y-27265713D01*
X83555181Y-27312740D01*
X83493858Y-27346225D01*
X83424166Y-27341241D01*
X83379819Y-27312740D01*
X83352792Y-27285713D01*
X83352788Y-27285710D01*
X83221685Y-27198109D01*
X83221672Y-27198102D01*
X83076001Y-27137764D01*
X83075989Y-27137761D01*
X82921345Y-27107000D01*
X82921342Y-27107000D01*
X82763658Y-27107000D01*
X82763655Y-27107000D01*
X82609010Y-27137761D01*
X82608998Y-27137764D01*
X82463327Y-27198102D01*
X82463314Y-27198109D01*
X82332211Y-27285710D01*
X82332207Y-27285713D01*
X82285181Y-27332740D01*
X82223858Y-27366225D01*
X82154166Y-27361241D01*
X82109819Y-27332740D01*
X82082792Y-27305713D01*
X82082788Y-27305710D01*
X81951685Y-27218109D01*
X81951672Y-27218102D01*
X81806001Y-27157764D01*
X81805989Y-27157761D01*
X81651345Y-27127000D01*
X81651342Y-27127000D01*
X81493658Y-27127000D01*
X81493655Y-27127000D01*
X81339010Y-27157761D01*
X81338998Y-27157764D01*
X81193327Y-27218102D01*
X81193314Y-27218109D01*
X81062211Y-27305710D01*
X81062207Y-27305713D01*
X81015181Y-27352740D01*
X80953858Y-27386225D01*
X80884166Y-27381241D01*
X80839819Y-27352740D01*
X80812792Y-27325713D01*
X80812788Y-27325710D01*
X80681685Y-27238109D01*
X80681672Y-27238102D01*
X80536001Y-27177764D01*
X80535989Y-27177761D01*
X80381345Y-27147000D01*
X80381342Y-27147000D01*
X80223658Y-27147000D01*
X80223655Y-27147000D01*
X80069010Y-27177761D01*
X80068998Y-27177764D01*
X79923327Y-27238102D01*
X79923314Y-27238109D01*
X79792211Y-27325710D01*
X79792207Y-27325713D01*
X79712681Y-27405240D01*
X79651358Y-27438725D01*
X79581666Y-27433741D01*
X79537319Y-27405240D01*
X79510292Y-27378213D01*
X79510288Y-27378210D01*
X79379185Y-27290609D01*
X79379172Y-27290602D01*
X79233501Y-27230264D01*
X79233489Y-27230261D01*
X79078845Y-27199500D01*
X79078842Y-27199500D01*
X78921158Y-27199500D01*
X78921155Y-27199500D01*
X78766510Y-27230261D01*
X78766498Y-27230264D01*
X78620827Y-27290602D01*
X78620814Y-27290609D01*
X78489711Y-27378210D01*
X78489707Y-27378213D01*
X78462681Y-27405240D01*
X78401358Y-27438725D01*
X78331666Y-27433741D01*
X78287319Y-27405240D01*
X78260292Y-27378213D01*
X78260288Y-27378210D01*
X78129185Y-27290609D01*
X78129172Y-27290602D01*
X77983501Y-27230264D01*
X77983489Y-27230261D01*
X77828845Y-27199500D01*
X77828842Y-27199500D01*
X77671158Y-27199500D01*
X77671155Y-27199500D01*
X77516510Y-27230261D01*
X77516498Y-27230264D01*
X77370827Y-27290602D01*
X77370814Y-27290609D01*
X77239711Y-27378210D01*
X77239707Y-27378213D01*
X77212681Y-27405240D01*
X77151358Y-27438725D01*
X77081666Y-27433741D01*
X77037319Y-27405240D01*
X77010292Y-27378213D01*
X77010288Y-27378210D01*
X76879185Y-27290609D01*
X76879172Y-27290602D01*
X76733501Y-27230264D01*
X76733489Y-27230261D01*
X76578845Y-27199500D01*
X76578842Y-27199500D01*
X76421158Y-27199500D01*
X76421155Y-27199500D01*
X76266510Y-27230261D01*
X76266498Y-27230264D01*
X76120827Y-27290602D01*
X76120814Y-27290609D01*
X75989711Y-27378210D01*
X75989707Y-27378213D01*
X75962681Y-27405240D01*
X75901358Y-27438725D01*
X75831666Y-27433741D01*
X75787319Y-27405240D01*
X75760292Y-27378213D01*
X75760288Y-27378210D01*
X75629185Y-27290609D01*
X75629172Y-27290602D01*
X75483501Y-27230264D01*
X75483489Y-27230261D01*
X75328845Y-27199500D01*
X75328842Y-27199500D01*
X75171158Y-27199500D01*
X75171155Y-27199500D01*
X75016510Y-27230261D01*
X75016498Y-27230264D01*
X74870827Y-27290602D01*
X74870814Y-27290609D01*
X74739711Y-27378210D01*
X74739707Y-27378213D01*
X74712681Y-27405240D01*
X74651358Y-27438725D01*
X74581666Y-27433741D01*
X74537319Y-27405240D01*
X74510292Y-27378213D01*
X74510288Y-27378210D01*
X74379185Y-27290609D01*
X74379172Y-27290602D01*
X74233501Y-27230264D01*
X74233489Y-27230261D01*
X74078845Y-27199500D01*
X74078842Y-27199500D01*
X73921158Y-27199500D01*
X73921155Y-27199500D01*
X73766510Y-27230261D01*
X73766498Y-27230264D01*
X73620827Y-27290602D01*
X73620814Y-27290609D01*
X73489711Y-27378210D01*
X73489707Y-27378213D01*
X73462681Y-27405240D01*
X73401358Y-27438725D01*
X73331666Y-27433741D01*
X73287319Y-27405240D01*
X73260292Y-27378213D01*
X73260288Y-27378210D01*
X73129185Y-27290609D01*
X73129172Y-27290602D01*
X72983501Y-27230264D01*
X72983489Y-27230261D01*
X72828845Y-27199500D01*
X72828842Y-27199500D01*
X72671158Y-27199500D01*
X72671155Y-27199500D01*
X72516510Y-27230261D01*
X72516498Y-27230264D01*
X72370827Y-27290602D01*
X72370814Y-27290609D01*
X72239711Y-27378210D01*
X72239707Y-27378213D01*
X72128213Y-27489707D01*
X72103102Y-27527289D01*
X72049489Y-27572093D01*
X71980164Y-27580800D01*
X71917137Y-27550645D01*
X71896898Y-27527289D01*
X71883346Y-27507007D01*
X71871789Y-27489711D01*
X71871788Y-27489710D01*
X71871786Y-27489707D01*
X71760292Y-27378213D01*
X71760288Y-27378210D01*
X71629185Y-27290609D01*
X71629172Y-27290602D01*
X71483501Y-27230264D01*
X71483489Y-27230261D01*
X71328845Y-27199500D01*
X71328842Y-27199500D01*
X71171158Y-27199500D01*
X71171155Y-27199500D01*
X71016510Y-27230261D01*
X71016498Y-27230264D01*
X70870827Y-27290602D01*
X70870814Y-27290609D01*
X70739711Y-27378210D01*
X70739707Y-27378213D01*
X70628213Y-27489707D01*
X70628210Y-27489711D01*
X70540609Y-27620814D01*
X70540602Y-27620827D01*
X70480264Y-27766498D01*
X70480261Y-27766510D01*
X70449500Y-27921153D01*
X69936411Y-27921153D01*
X70010289Y-27871789D01*
X70028631Y-27853447D01*
X70054694Y-27827385D01*
X70121786Y-27760292D01*
X70121789Y-27760289D01*
X70209394Y-27629179D01*
X70212854Y-27620827D01*
X70240719Y-27553554D01*
X70269737Y-27483497D01*
X70300500Y-27328842D01*
X70300500Y-27171158D01*
X70300500Y-27171155D01*
X70300499Y-27171153D01*
X70289879Y-27117763D01*
X70269737Y-27016503D01*
X70218578Y-26892993D01*
X70209397Y-26870827D01*
X70209390Y-26870814D01*
X70121789Y-26739711D01*
X70121786Y-26739707D01*
X70010292Y-26628213D01*
X70010288Y-26628210D01*
X69879185Y-26540609D01*
X69879172Y-26540602D01*
X69733501Y-26480264D01*
X69733489Y-26480261D01*
X69578845Y-26449500D01*
X69578842Y-26449500D01*
X69421158Y-26449500D01*
X69421155Y-26449500D01*
X69266510Y-26480261D01*
X69266498Y-26480264D01*
X69141499Y-26532040D01*
X69072030Y-26539509D01*
X69009551Y-26508233D01*
X68993731Y-26490368D01*
X68870104Y-26320208D01*
X68719792Y-26169896D01*
X68719786Y-26169890D01*
X68547820Y-26044951D01*
X68358414Y-25948444D01*
X68358413Y-25948443D01*
X68358412Y-25948443D01*
X68156243Y-25882754D01*
X68156241Y-25882753D01*
X68156240Y-25882753D01*
X67994957Y-25857208D01*
X67946287Y-25849500D01*
X67733713Y-25849500D01*
X67685042Y-25857208D01*
X67523760Y-25882753D01*
X67321585Y-25948444D01*
X67132179Y-26044951D01*
X66960213Y-26169890D01*
X66809890Y-26320213D01*
X66684949Y-26492182D01*
X66680484Y-26500946D01*
X66632509Y-26551742D01*
X66564688Y-26568536D01*
X66498553Y-26545998D01*
X66459516Y-26500946D01*
X66455050Y-26492182D01*
X66330109Y-26320213D01*
X66179786Y-26169890D01*
X66007820Y-26044951D01*
X65818414Y-25948444D01*
X65818413Y-25948443D01*
X65818412Y-25948443D01*
X65616243Y-25882754D01*
X65616241Y-25882753D01*
X65616240Y-25882753D01*
X65454957Y-25857208D01*
X65406287Y-25849500D01*
X65193713Y-25849500D01*
X65145042Y-25857208D01*
X64983760Y-25882753D01*
X64781585Y-25948444D01*
X64592179Y-26044951D01*
X64420213Y-26169890D01*
X64269890Y-26320213D01*
X64144949Y-26492182D01*
X64140484Y-26500946D01*
X64092509Y-26551742D01*
X64024688Y-26568536D01*
X63958553Y-26545998D01*
X63919516Y-26500946D01*
X63915050Y-26492182D01*
X63790109Y-26320213D01*
X63639786Y-26169890D01*
X63467820Y-26044951D01*
X63278414Y-25948444D01*
X63278413Y-25948443D01*
X63278412Y-25948443D01*
X63076243Y-25882754D01*
X63076241Y-25882753D01*
X63076240Y-25882753D01*
X62914957Y-25857208D01*
X62866287Y-25849500D01*
X62653713Y-25849500D01*
X62605042Y-25857208D01*
X62443760Y-25882753D01*
X62241585Y-25948444D01*
X62052179Y-26044951D01*
X61880213Y-26169890D01*
X61729890Y-26320213D01*
X61604949Y-26492182D01*
X61600484Y-26500946D01*
X61552509Y-26551742D01*
X61484688Y-26568536D01*
X61418553Y-26545998D01*
X61379516Y-26500946D01*
X61375050Y-26492182D01*
X61250109Y-26320213D01*
X61099786Y-26169890D01*
X60927820Y-26044951D01*
X60738414Y-25948444D01*
X60738413Y-25948443D01*
X60738412Y-25948443D01*
X60536243Y-25882754D01*
X60536241Y-25882753D01*
X60536240Y-25882753D01*
X60374957Y-25857208D01*
X60326287Y-25849500D01*
X60113713Y-25849500D01*
X60065042Y-25857208D01*
X59903760Y-25882753D01*
X59701585Y-25948444D01*
X59512179Y-26044951D01*
X59340213Y-26169890D01*
X59189890Y-26320213D01*
X59064949Y-26492182D01*
X59060484Y-26500946D01*
X59012509Y-26551742D01*
X58944688Y-26568536D01*
X58878553Y-26545998D01*
X58839516Y-26500946D01*
X58835050Y-26492182D01*
X58710109Y-26320213D01*
X58559786Y-26169890D01*
X58387820Y-26044951D01*
X58198414Y-25948444D01*
X58198413Y-25948443D01*
X58198412Y-25948443D01*
X57996243Y-25882754D01*
X57996241Y-25882753D01*
X57996240Y-25882753D01*
X57834957Y-25857208D01*
X57786287Y-25849500D01*
X57573713Y-25849500D01*
X57525042Y-25857208D01*
X57363760Y-25882753D01*
X57161585Y-25948444D01*
X56972179Y-26044951D01*
X56800213Y-26169890D01*
X56649890Y-26320213D01*
X56524949Y-26492182D01*
X56520484Y-26500946D01*
X56472509Y-26551742D01*
X56404688Y-26568536D01*
X56338553Y-26545998D01*
X56299516Y-26500946D01*
X56295050Y-26492182D01*
X56170109Y-26320213D01*
X56019786Y-26169890D01*
X55847820Y-26044951D01*
X55658414Y-25948444D01*
X55658413Y-25948443D01*
X55658412Y-25948443D01*
X55456243Y-25882754D01*
X55456241Y-25882753D01*
X55456240Y-25882753D01*
X55294957Y-25857208D01*
X55246287Y-25849500D01*
X55033713Y-25849500D01*
X54985042Y-25857208D01*
X54823760Y-25882753D01*
X54621585Y-25948444D01*
X54432179Y-26044951D01*
X54260213Y-26169890D01*
X54109890Y-26320213D01*
X53984949Y-26492182D01*
X53980484Y-26500946D01*
X53932509Y-26551742D01*
X53864688Y-26568536D01*
X53798553Y-26545998D01*
X53759516Y-26500946D01*
X53755050Y-26492182D01*
X53630109Y-26320213D01*
X53479786Y-26169890D01*
X53307820Y-26044951D01*
X53118414Y-25948444D01*
X53118413Y-25948443D01*
X53118412Y-25948443D01*
X52916243Y-25882754D01*
X52916241Y-25882753D01*
X52916240Y-25882753D01*
X52754957Y-25857208D01*
X52706287Y-25849500D01*
X52493713Y-25849500D01*
X52445042Y-25857208D01*
X52283760Y-25882753D01*
X52081585Y-25948444D01*
X51892179Y-26044951D01*
X51720213Y-26169890D01*
X51569890Y-26320213D01*
X51444949Y-26492182D01*
X51440484Y-26500946D01*
X51392509Y-26551742D01*
X51324688Y-26568536D01*
X51258553Y-26545998D01*
X51219516Y-26500946D01*
X51215050Y-26492182D01*
X51090109Y-26320213D01*
X50939786Y-26169890D01*
X50767820Y-26044951D01*
X50578414Y-25948444D01*
X50578413Y-25948443D01*
X50578412Y-25948443D01*
X50376243Y-25882754D01*
X50376241Y-25882753D01*
X50376240Y-25882753D01*
X50214957Y-25857208D01*
X50166287Y-25849500D01*
X49953713Y-25849500D01*
X49905042Y-25857208D01*
X49743760Y-25882753D01*
X49541585Y-25948444D01*
X49352179Y-26044951D01*
X49180213Y-26169890D01*
X49029890Y-26320213D01*
X48904949Y-26492182D01*
X48900484Y-26500946D01*
X48852509Y-26551742D01*
X48784688Y-26568536D01*
X48718553Y-26545998D01*
X48679516Y-26500946D01*
X48675050Y-26492182D01*
X48550109Y-26320213D01*
X48399786Y-26169890D01*
X48227820Y-26044951D01*
X48038414Y-25948444D01*
X48038413Y-25948443D01*
X48038412Y-25948443D01*
X47836243Y-25882754D01*
X47836241Y-25882753D01*
X47836240Y-25882753D01*
X47674957Y-25857208D01*
X47626287Y-25849500D01*
X47413713Y-25849500D01*
X47365042Y-25857208D01*
X47203760Y-25882753D01*
X47001585Y-25948444D01*
X46812179Y-26044951D01*
X46640213Y-26169890D01*
X46489890Y-26320213D01*
X46364949Y-26492182D01*
X46360484Y-26500946D01*
X46312509Y-26551742D01*
X46244688Y-26568536D01*
X46178553Y-26545998D01*
X46139516Y-26500946D01*
X46135050Y-26492182D01*
X46010109Y-26320213D01*
X45859786Y-26169890D01*
X45687820Y-26044951D01*
X45498414Y-25948444D01*
X45498413Y-25948443D01*
X45498412Y-25948443D01*
X45296243Y-25882754D01*
X45296241Y-25882753D01*
X45296240Y-25882753D01*
X45134957Y-25857208D01*
X45086287Y-25849500D01*
X44873713Y-25849500D01*
X44825042Y-25857208D01*
X44663760Y-25882753D01*
X44461585Y-25948444D01*
X44272179Y-26044951D01*
X44100213Y-26169890D01*
X43949890Y-26320213D01*
X43824949Y-26492182D01*
X43820484Y-26500946D01*
X43772509Y-26551742D01*
X43704688Y-26568536D01*
X43638553Y-26545998D01*
X43599516Y-26500946D01*
X43595050Y-26492182D01*
X43470109Y-26320213D01*
X43319786Y-26169890D01*
X43147820Y-26044951D01*
X42958414Y-25948444D01*
X42958413Y-25948443D01*
X42958412Y-25948443D01*
X42756243Y-25882754D01*
X42756241Y-25882753D01*
X42756240Y-25882753D01*
X42594957Y-25857208D01*
X42546287Y-25849500D01*
X42333713Y-25849500D01*
X42285042Y-25857208D01*
X42123760Y-25882753D01*
X41921585Y-25948444D01*
X41732179Y-26044951D01*
X41560213Y-26169890D01*
X41409890Y-26320213D01*
X41284949Y-26492182D01*
X41280484Y-26500946D01*
X41232509Y-26551742D01*
X41164688Y-26568536D01*
X41098553Y-26545998D01*
X41059516Y-26500946D01*
X41055050Y-26492182D01*
X40930109Y-26320213D01*
X40779786Y-26169890D01*
X40607820Y-26044951D01*
X40418414Y-25948444D01*
X40418413Y-25948443D01*
X40418412Y-25948443D01*
X40216243Y-25882754D01*
X40216241Y-25882753D01*
X40216240Y-25882753D01*
X40054957Y-25857208D01*
X40006287Y-25849500D01*
X39793713Y-25849500D01*
X39745042Y-25857208D01*
X39583760Y-25882753D01*
X39381585Y-25948444D01*
X39192179Y-26044951D01*
X39020213Y-26169890D01*
X38869890Y-26320213D01*
X38744949Y-26492182D01*
X38740484Y-26500946D01*
X38692509Y-26551742D01*
X38624688Y-26568536D01*
X38558553Y-26545998D01*
X38519516Y-26500946D01*
X38515050Y-26492182D01*
X38390109Y-26320213D01*
X38239786Y-26169890D01*
X38067820Y-26044951D01*
X37878414Y-25948444D01*
X37878413Y-25948443D01*
X37878412Y-25948443D01*
X37676243Y-25882754D01*
X37676241Y-25882753D01*
X37676240Y-25882753D01*
X37514957Y-25857208D01*
X37466287Y-25849500D01*
X37253713Y-25849500D01*
X37205042Y-25857208D01*
X37043760Y-25882753D01*
X36841585Y-25948444D01*
X36652179Y-26044951D01*
X36480213Y-26169890D01*
X36329890Y-26320213D01*
X36204949Y-26492182D01*
X36200484Y-26500946D01*
X36152509Y-26551742D01*
X36084688Y-26568536D01*
X36018553Y-26545998D01*
X35979516Y-26500946D01*
X35975050Y-26492182D01*
X35850109Y-26320213D01*
X35699786Y-26169890D01*
X35527820Y-26044951D01*
X35338414Y-25948444D01*
X35338413Y-25948443D01*
X35338412Y-25948443D01*
X35136243Y-25882754D01*
X35136241Y-25882753D01*
X35136240Y-25882753D01*
X34974957Y-25857208D01*
X34926287Y-25849500D01*
X34713713Y-25849500D01*
X34665042Y-25857208D01*
X34503760Y-25882753D01*
X34301585Y-25948444D01*
X34112179Y-26044951D01*
X33940213Y-26169890D01*
X33789890Y-26320213D01*
X33664949Y-26492182D01*
X33660484Y-26500946D01*
X33612509Y-26551742D01*
X33544688Y-26568536D01*
X33478553Y-26545998D01*
X33439516Y-26500946D01*
X33435050Y-26492182D01*
X33310109Y-26320213D01*
X33159786Y-26169890D01*
X32987820Y-26044951D01*
X32798414Y-25948444D01*
X32798413Y-25948443D01*
X32798412Y-25948443D01*
X32596243Y-25882754D01*
X32596241Y-25882753D01*
X32596240Y-25882753D01*
X32434957Y-25857208D01*
X32386287Y-25849500D01*
X32173713Y-25849500D01*
X32125042Y-25857208D01*
X31963760Y-25882753D01*
X31761585Y-25948444D01*
X31572179Y-26044951D01*
X31400213Y-26169890D01*
X31249890Y-26320213D01*
X31124949Y-26492182D01*
X31120202Y-26501499D01*
X31072227Y-26552293D01*
X31004405Y-26569087D01*
X30938271Y-26546548D01*
X30899234Y-26501495D01*
X30894626Y-26492452D01*
X30855270Y-26438282D01*
X30855269Y-26438282D01*
X30222962Y-27070590D01*
X30205925Y-27007007D01*
X30140099Y-26892993D01*
X30047007Y-26799901D01*
X29932993Y-26734075D01*
X29869409Y-26717037D01*
X30501716Y-26084728D01*
X30447550Y-26045375D01*
X30258217Y-25948904D01*
X30056129Y-25883242D01*
X29846246Y-25850000D01*
X29633754Y-25850000D01*
X29423872Y-25883242D01*
X29423869Y-25883242D01*
X29221782Y-25948904D01*
X29032439Y-26045380D01*
X28978282Y-26084727D01*
X28978282Y-26084728D01*
X29610591Y-26717037D01*
X29547007Y-26734075D01*
X29432993Y-26799901D01*
X29339901Y-26892993D01*
X29274075Y-27007007D01*
X29257037Y-27070591D01*
X28586818Y-26400372D01*
X28553333Y-26339049D01*
X28553330Y-26339036D01*
X28550499Y-26326015D01*
X28550499Y-26302128D01*
X28544091Y-26242517D01*
X28515926Y-26167002D01*
X28493798Y-26107673D01*
X28493793Y-26107664D01*
X28407547Y-25992455D01*
X28407544Y-25992452D01*
X28292335Y-25906206D01*
X28292328Y-25906202D01*
X28157482Y-25855908D01*
X28157483Y-25855908D01*
X28097883Y-25849501D01*
X28097881Y-25849500D01*
X28097873Y-25849500D01*
X28097864Y-25849500D01*
X26302129Y-25849500D01*
X26302123Y-25849501D01*
X26242516Y-25855908D01*
X26107671Y-25906202D01*
X26107664Y-25906206D01*
X25992455Y-25992452D01*
X25992452Y-25992455D01*
X25906206Y-26107664D01*
X25906202Y-26107671D01*
X25855908Y-26242517D01*
X25849501Y-26302116D01*
X25849500Y-26302135D01*
X25600500Y-26302135D01*
X25600500Y-25234500D01*
X25620185Y-25167461D01*
X25672989Y-25121706D01*
X25724500Y-25110500D01*
X88575500Y-25110500D01*
X88642539Y-25130185D01*
G37*
%TD.AperFunction*%
%TD*%
M02*
