M48
; DRILL file {KiCad 9.0.4} date 2026-04-16T21:31:49+0530
; FORMAT={-:-/ absolute / metric / decimal}
; #@! TF.CreationDate,2026-04-16T21:31:49+05:30
; #@! TF.GenerationSoftware,Kicad,Pcbnew,9.0.4
; #@! TF.FileFunction,Plated,1,4,PTH
FMAT,2
METRIC
; #@! TA.AperFunction,Plated,PTH,ViaDrill
T1C0.300
; #@! TA.AperFunction,Plated,PTH,ComponentDrill
T2C0.700
; #@! TA.AperFunction,Plated,PTH,ComponentDrill
T3C0.900
; #@! TA.AperFunction,Plated,PTH,ComponentDrill
T4C1.000
%
G90
G05
T1
X26.5Y-41.25
X26.75Y-29.5
X27.75Y-33.25
X27.75Y-37.25
X28.5Y-36.5
X29.25Y-29.5
X29.25Y-41.5
X30.75Y-29.75
X31.25Y-37.75
X31.5Y-41.5
X31.75Y-30.0
X31.75Y-32.75
X31.75Y-35.25
X32.25Y-28.75
X32.5Y-33.25
X32.5Y-35.25
X34.75Y-34.25
X34.75Y-34.25
X36.25Y-32.75
X36.25Y-35.75
X38.25Y-41.0
X39.25Y-30.0
X39.25Y-30.0
X39.25Y-36.0
X39.25Y-38.25
X40.75Y-39.25
X40.75Y-40.75
X41.75Y-32.75
X42.75Y-32.75
X43.75Y-29.25
X44.25Y-38.5
X44.75Y-29.25
X45.25Y-38.0
X45.5Y-36.75
X45.75Y-31.75
X46.157Y-31.263
X46.75Y-33.5
X47.0Y-34.5
X47.0Y-35.5
X48.5Y-28.25
X48.75Y-35.3
X49.546Y-35.22
X50.0Y-37.0
X51.0Y-28.5
X51.0Y-38.75
X52.5Y-37.25
X52.5Y-38.25
X55.5Y-32.5
X56.25Y-33.0
X56.5Y-38.0
X57.403Y-29.915
X58.75Y-33.0
X60.0Y-32.25
X60.931Y-33.791
X61.0Y-35.75
X61.75Y-35.75
X63.25Y-35.75
X64.25Y-35.75
X64.5Y-33.75
X65.688Y-34.439
X66.0Y-39.5
X66.327Y-42.122
X66.75Y-32.37
X68.113Y-35.97
X69.0Y-42.75
X69.5Y-27.25
X71.25Y-28.0
X71.25Y-29.75
X71.412Y-42.837
X72.682Y-42.817
X72.75Y-28.0
X73.953Y-42.797
X74.0Y-28.0
X75.222Y-42.777
X75.25Y-28.0
X76.492Y-42.758
X76.5Y-28.0
X77.75Y-28.0
X77.763Y-42.762
X79.0Y-28.0
X79.032Y-42.782
X80.302Y-27.947
X81.572Y-27.927
X81.572Y-42.822
X82.5Y-32.5
X82.843Y-27.907
X82.843Y-42.843
X84.112Y-27.887
X84.112Y-42.862
X85.382Y-27.867
X85.382Y-42.883
X86.5Y-28.0
X86.652Y-42.902
X87.922Y-27.827
X87.922Y-42.828
T3
X29.43Y-32.7
X29.43Y-37.7
T4
X27.2Y-27.2
X27.2Y-44.0
X29.74Y-27.2
X29.74Y-44.0
X32.28Y-27.2
X32.28Y-44.0
X33.46Y-39.25
X34.82Y-27.2
X34.82Y-44.0
X36.0Y-39.25
X37.36Y-27.2
X37.36Y-44.0
X39.9Y-27.2
X39.9Y-44.0
X42.44Y-27.2
X42.44Y-44.0
X44.98Y-27.2
X44.98Y-44.0
X47.52Y-27.2
X47.52Y-44.0
X50.06Y-27.2
X50.06Y-44.0
X50.92Y-30.5
X52.6Y-27.2
X52.6Y-44.0
X53.46Y-30.5
X55.14Y-27.2
X55.14Y-44.0
X56.0Y-30.5
X57.68Y-27.2
X57.68Y-44.0
X60.22Y-27.2
X60.22Y-44.0
X62.76Y-27.2
X62.76Y-44.0
X65.3Y-27.2
X65.3Y-44.0
X67.84Y-27.2
X67.84Y-44.0
T2
G00X27.08Y-31.7
M15
G01X26.38Y-31.7
M16
G05
G00X27.08Y-38.7
M15
G01X26.38Y-38.7
M16
G05
M30
