%TF.GenerationSoftware,KiCad,Pcbnew,9.0.4*%
%TF.CreationDate,2026-04-16T21:31:32+05:30*%
%TF.ProjectId,ESP32_custom,45535033-325f-4637-9573-746f6d2e6b69,rev?*%
%TF.SameCoordinates,Original*%
%TF.FileFunction,Legend,Bot*%
%TF.FilePolarity,Positive*%
%FSLAX46Y46*%
G04 Gerber Fmt 4.6, Leading zero omitted, Abs format (unit mm)*
G04 Created by KiCad (PCBNEW 9.0.4) date 2026-04-16 21:31:32*
%MOMM*%
%LPD*%
G01*
G04 APERTURE LIST*
%ADD10C,0.250000*%
%ADD11C,0.120000*%
%ADD12C,0.190000*%
G04 APERTURE END LIST*
D10*
X84965050Y-34557000D02*
X84822193Y-34604619D01*
X84822193Y-34604619D02*
X84584098Y-34604619D01*
X84584098Y-34604619D02*
X84488860Y-34557000D01*
X84488860Y-34557000D02*
X84441241Y-34509380D01*
X84441241Y-34509380D02*
X84393622Y-34414142D01*
X84393622Y-34414142D02*
X84393622Y-34318904D01*
X84393622Y-34318904D02*
X84441241Y-34223666D01*
X84441241Y-34223666D02*
X84488860Y-34176047D01*
X84488860Y-34176047D02*
X84584098Y-34128428D01*
X84584098Y-34128428D02*
X84774574Y-34080809D01*
X84774574Y-34080809D02*
X84869812Y-34033190D01*
X84869812Y-34033190D02*
X84917431Y-33985571D01*
X84917431Y-33985571D02*
X84965050Y-33890333D01*
X84965050Y-33890333D02*
X84965050Y-33795095D01*
X84965050Y-33795095D02*
X84917431Y-33699857D01*
X84917431Y-33699857D02*
X84869812Y-33652238D01*
X84869812Y-33652238D02*
X84774574Y-33604619D01*
X84774574Y-33604619D02*
X84536479Y-33604619D01*
X84536479Y-33604619D02*
X84393622Y-33652238D01*
X83536479Y-33937952D02*
X83536479Y-34604619D01*
X83965050Y-33937952D02*
X83965050Y-34461761D01*
X83965050Y-34461761D02*
X83917431Y-34557000D01*
X83917431Y-34557000D02*
X83822193Y-34604619D01*
X83822193Y-34604619D02*
X83679336Y-34604619D01*
X83679336Y-34604619D02*
X83584098Y-34557000D01*
X83584098Y-34557000D02*
X83536479Y-34509380D01*
X83060288Y-34604619D02*
X83060288Y-33937952D01*
X83060288Y-34128428D02*
X83012669Y-34033190D01*
X83012669Y-34033190D02*
X82965050Y-33985571D01*
X82965050Y-33985571D02*
X82869812Y-33937952D01*
X82869812Y-33937952D02*
X82774574Y-33937952D01*
X82012669Y-34604619D02*
X82012669Y-34080809D01*
X82012669Y-34080809D02*
X82060288Y-33985571D01*
X82060288Y-33985571D02*
X82155526Y-33937952D01*
X82155526Y-33937952D02*
X82346002Y-33937952D01*
X82346002Y-33937952D02*
X82441240Y-33985571D01*
X82012669Y-34557000D02*
X82107907Y-34604619D01*
X82107907Y-34604619D02*
X82346002Y-34604619D01*
X82346002Y-34604619D02*
X82441240Y-34557000D01*
X82441240Y-34557000D02*
X82488859Y-34461761D01*
X82488859Y-34461761D02*
X82488859Y-34366523D01*
X82488859Y-34366523D02*
X82441240Y-34271285D01*
X82441240Y-34271285D02*
X82346002Y-34223666D01*
X82346002Y-34223666D02*
X82107907Y-34223666D01*
X82107907Y-34223666D02*
X82012669Y-34176047D01*
X81536478Y-33937952D02*
X81536478Y-34795095D01*
X81536478Y-34795095D02*
X81584097Y-34890333D01*
X81584097Y-34890333D02*
X81679335Y-34937952D01*
X81679335Y-34937952D02*
X81726954Y-34937952D01*
X81536478Y-33604619D02*
X81584097Y-33652238D01*
X81584097Y-33652238D02*
X81536478Y-33699857D01*
X81536478Y-33699857D02*
X81488859Y-33652238D01*
X81488859Y-33652238D02*
X81536478Y-33604619D01*
X81536478Y-33604619D02*
X81536478Y-33699857D01*
X80441240Y-33604619D02*
X80107907Y-34604619D01*
X80107907Y-34604619D02*
X79774574Y-33604619D01*
X79060288Y-34557000D02*
X79155526Y-34604619D01*
X79155526Y-34604619D02*
X79346002Y-34604619D01*
X79346002Y-34604619D02*
X79441240Y-34557000D01*
X79441240Y-34557000D02*
X79488859Y-34461761D01*
X79488859Y-34461761D02*
X79488859Y-34080809D01*
X79488859Y-34080809D02*
X79441240Y-33985571D01*
X79441240Y-33985571D02*
X79346002Y-33937952D01*
X79346002Y-33937952D02*
X79155526Y-33937952D01*
X79155526Y-33937952D02*
X79060288Y-33985571D01*
X79060288Y-33985571D02*
X79012669Y-34080809D01*
X79012669Y-34080809D02*
X79012669Y-34176047D01*
X79012669Y-34176047D02*
X79488859Y-34271285D01*
X78584097Y-34604619D02*
X78584097Y-33937952D01*
X78584097Y-34128428D02*
X78536478Y-34033190D01*
X78536478Y-34033190D02*
X78488859Y-33985571D01*
X78488859Y-33985571D02*
X78393621Y-33937952D01*
X78393621Y-33937952D02*
X78298383Y-33937952D01*
X77965049Y-34604619D02*
X77965049Y-33937952D01*
X77965049Y-34033190D02*
X77917430Y-33985571D01*
X77917430Y-33985571D02*
X77822192Y-33937952D01*
X77822192Y-33937952D02*
X77679335Y-33937952D01*
X77679335Y-33937952D02*
X77584097Y-33985571D01*
X77584097Y-33985571D02*
X77536478Y-34080809D01*
X77536478Y-34080809D02*
X77536478Y-34604619D01*
X77536478Y-34080809D02*
X77488859Y-33985571D01*
X77488859Y-33985571D02*
X77393621Y-33937952D01*
X77393621Y-33937952D02*
X77250764Y-33937952D01*
X77250764Y-33937952D02*
X77155525Y-33985571D01*
X77155525Y-33985571D02*
X77107906Y-34080809D01*
X77107906Y-34080809D02*
X77107906Y-34604619D01*
X76203145Y-34604619D02*
X76203145Y-34080809D01*
X76203145Y-34080809D02*
X76250764Y-33985571D01*
X76250764Y-33985571D02*
X76346002Y-33937952D01*
X76346002Y-33937952D02*
X76536478Y-33937952D01*
X76536478Y-33937952D02*
X76631716Y-33985571D01*
X76203145Y-34557000D02*
X76298383Y-34604619D01*
X76298383Y-34604619D02*
X76536478Y-34604619D01*
X76536478Y-34604619D02*
X76631716Y-34557000D01*
X76631716Y-34557000D02*
X76679335Y-34461761D01*
X76679335Y-34461761D02*
X76679335Y-34366523D01*
X76679335Y-34366523D02*
X76631716Y-34271285D01*
X76631716Y-34271285D02*
X76536478Y-34223666D01*
X76536478Y-34223666D02*
X76298383Y-34223666D01*
X76298383Y-34223666D02*
X76203145Y-34176047D01*
D11*
%TO.C,R2*%
X43370000Y-33836359D02*
X43370000Y-34143641D01*
X44130000Y-33836359D02*
X44130000Y-34143641D01*
D12*
%TO.C,Q2*%
X38850000Y-32550000D02*
X38850000Y-32550000D01*
X38850000Y-33450000D02*
X38850000Y-32550000D01*
X38850000Y-33450000D02*
X39350000Y-33450000D01*
X39650000Y-32550000D02*
X39850000Y-32550000D01*
X40150000Y-33450000D02*
X40650000Y-33450000D01*
X40650000Y-32550000D02*
X40650000Y-32550000D01*
X40650000Y-33450000D02*
X40650000Y-32550000D01*
X38810000Y-32240000D02*
G75*
G02*
X38670000Y-32240000I-70000J0D01*
G01*
X38670000Y-32240000D02*
G75*
G02*
X38810000Y-32240000I70000J0D01*
G01*
%TO.C,Q1*%
X39100000Y-35650000D02*
X39100000Y-36550000D01*
X39100000Y-36550000D02*
X39100000Y-36550000D01*
X39600000Y-35650000D02*
X39100000Y-35650000D01*
X40100000Y-36550000D02*
X39900000Y-36550000D01*
X40900000Y-35650000D02*
X40400000Y-35650000D01*
X40900000Y-35650000D02*
X40900000Y-36550000D01*
X40900000Y-36550000D02*
X40900000Y-36550000D01*
X41080000Y-36860000D02*
G75*
G02*
X40940000Y-36860000I-70000J0D01*
G01*
X40940000Y-36860000D02*
G75*
G02*
X41080000Y-36860000I70000J0D01*
G01*
D11*
%TO.C,C4*%
X42390000Y-34107836D02*
X42390000Y-33892164D01*
X43110000Y-34107836D02*
X43110000Y-33892164D01*
%TO.C,J3*%
X25820000Y-42620000D02*
X25820000Y-44000000D01*
X27200000Y-42620000D02*
X25820000Y-42620000D01*
X28470000Y-42620000D02*
X28470000Y-45380000D01*
X28470000Y-42620000D02*
X69220000Y-42620000D01*
X28470000Y-45380000D02*
X69220000Y-45380000D01*
X69220000Y-42620000D02*
X69220000Y-45380000D01*
%TO.C,R1*%
X41370000Y-34153641D02*
X41370000Y-33846359D01*
X42130000Y-34153641D02*
X42130000Y-33846359D01*
%TO.C,J4*%
X25820000Y-25820000D02*
X25820000Y-27200000D01*
X27200000Y-25820000D02*
X25820000Y-25820000D01*
X28470000Y-25820000D02*
X28470000Y-28580000D01*
X28470000Y-25820000D02*
X69220000Y-25820000D01*
X28470000Y-28580000D02*
X69220000Y-28580000D01*
X69220000Y-25820000D02*
X69220000Y-28580000D01*
%TD*%
M02*
