%TF.GenerationSoftware,KiCad,Pcbnew,9.0.4*%
%TF.CreationDate,2026-04-16T21:31:32+05:30*%
%TF.ProjectId,ESP32_custom,45535033-325f-4637-9573-746f6d2e6b69,rev?*%
%TF.SameCoordinates,Original*%
%TF.FileFunction,Copper,L4,Bot*%
%TF.FilePolarity,Positive*%
%FSLAX46Y46*%
G04 Gerber Fmt 4.6, Leading zero omitted, Abs format (unit mm)*
G04 Created by KiCad (PCBNEW 9.0.4) date 2026-04-16 21:31:32*
%MOMM*%
%LPD*%
G01*
G04 APERTURE LIST*
G04 Aperture macros list*
%AMRoundRect*
0 Rectangle with rounded corners*
0 $1 Rounding radius*
0 $2 $3 $4 $5 $6 $7 $8 $9 X,Y pos of 4 corners*
0 Add a 4 corners polygon primitive as box body*
4,1,4,$2,$3,$4,$5,$6,$7,$8,$9,$2,$3,0*
0 Add four circle primitives for the rounded corners*
1,1,$1+$1,$2,$3*
1,1,$1+$1,$4,$5*
1,1,$1+$1,$6,$7*
1,1,$1+$1,$8,$9*
0 Add four rect primitives between the rounded corners*
20,1,$1+$1,$2,$3,$4,$5,0*
20,1,$1+$1,$4,$5,$6,$7,0*
20,1,$1+$1,$6,$7,$8,$9,0*
20,1,$1+$1,$8,$9,$2,$3,0*%
G04 Aperture macros list end*
%TA.AperFunction,ComponentPad*%
%ADD10C,1.350000*%
%TD*%
%TA.AperFunction,ComponentPad*%
%ADD11O,1.900000X1.200000*%
%TD*%
%TA.AperFunction,ComponentPad*%
%ADD12R,1.700000X1.700000*%
%TD*%
%TA.AperFunction,ComponentPad*%
%ADD13C,1.700000*%
%TD*%
%TA.AperFunction,SMDPad,CuDef*%
%ADD14RoundRect,0.135000X-0.185000X0.135000X-0.185000X-0.135000X0.185000X-0.135000X0.185000X0.135000X0*%
%TD*%
%TA.AperFunction,SMDPad,CuDef*%
%ADD15R,0.400000X0.510000*%
%TD*%
%TA.AperFunction,SMDPad,CuDef*%
%ADD16RoundRect,0.140000X0.170000X-0.140000X0.170000X0.140000X-0.170000X0.140000X-0.170000X-0.140000X0*%
%TD*%
%TA.AperFunction,SMDPad,CuDef*%
%ADD17RoundRect,0.135000X0.185000X-0.135000X0.185000X0.135000X-0.185000X0.135000X-0.185000X-0.135000X0*%
%TD*%
%TA.AperFunction,ViaPad*%
%ADD18C,0.600000*%
%TD*%
%TA.AperFunction,Conductor*%
%ADD19C,0.254000*%
%TD*%
%TA.AperFunction,Conductor*%
%ADD20C,0.152400*%
%TD*%
G04 APERTURE END LIST*
D10*
%TO.P,USB1,6,EP*%
%TO.N,GND*%
X29430000Y-32700000D03*
%TO.P,USB1,7,EP*%
X29430000Y-37700000D03*
D11*
%TO.P,USB1,8,EP*%
X26730000Y-38700000D03*
%TO.P,USB1,9,EP*%
X26730000Y-31700000D03*
%TD*%
D12*
%TO.P,J2,1,Pin_1*%
%TO.N,/+3v3*%
X33460000Y-39250000D03*
D13*
%TO.P,J2,2,Pin_2*%
%TO.N,Net-(J2-Pin_2)*%
X36000000Y-39250000D03*
%TD*%
D12*
%TO.P,J1,1,Pin_1*%
%TO.N,/+5V_EXT*%
X56000000Y-30500000D03*
D13*
%TO.P,J1,2,Pin_2*%
%TO.N,/+5V*%
X53460000Y-30500000D03*
%TO.P,J1,3,Pin_3*%
%TO.N,/+5V_VBUS*%
X50920000Y-30500000D03*
%TD*%
D14*
%TO.P,R2,1*%
%TO.N,/IO23*%
X43750000Y-33480000D03*
%TO.P,R2,2*%
%TO.N,Net-(J2-Pin_2)*%
X43750000Y-34500000D03*
%TD*%
D15*
%TO.P,Q2,1,G*%
%TO.N,Net-(J2-Pin_2)*%
X39250000Y-32350000D03*
%TO.P,Q2,2,S*%
%TO.N,GND*%
X40250000Y-32350000D03*
%TO.P,Q2,3,D*%
%TO.N,/USB_DN*%
X39750000Y-33650000D03*
%TD*%
%TO.P,Q1,1,G*%
%TO.N,Net-(J2-Pin_2)*%
X40500000Y-36750000D03*
%TO.P,Q1,2,S*%
%TO.N,GND*%
X39500000Y-36750000D03*
%TO.P,Q1,3,D*%
%TO.N,/USB_DP*%
X40000000Y-35450000D03*
%TD*%
D16*
%TO.P,C4,1*%
%TO.N,Net-(J2-Pin_2)*%
X42750000Y-34480000D03*
%TO.P,C4,2*%
%TO.N,GND*%
X42750000Y-33520000D03*
%TD*%
D12*
%TO.P,J3,1,Pin_1*%
%TO.N,/+3v3*%
X27200000Y-44000000D03*
D13*
%TO.P,J3,2,Pin_2*%
%TO.N,GND*%
X29740000Y-44000000D03*
%TO.P,J3,3,Pin_3*%
%TO.N,/IO23*%
X32280000Y-44000000D03*
%TO.P,J3,4,Pin_4*%
%TO.N,/IO22*%
X34820000Y-44000000D03*
%TO.P,J3,5,Pin_5*%
%TO.N,/TXD0*%
X37360000Y-44000000D03*
%TO.P,J3,6,Pin_6*%
%TO.N,/RXD0*%
X39900000Y-44000000D03*
%TO.P,J3,7,Pin_7*%
%TO.N,/IO21*%
X42440000Y-44000000D03*
%TO.P,J3,8,Pin_8*%
%TO.N,GND*%
X44980000Y-44000000D03*
%TO.P,J3,9,Pin_9*%
%TO.N,/IO19*%
X47520000Y-44000000D03*
%TO.P,J3,10,Pin_10*%
%TO.N,/IO18*%
X50060000Y-44000000D03*
%TO.P,J3,11,Pin_11*%
%TO.N,/IO5*%
X52600000Y-44000000D03*
%TO.P,J3,12,Pin_12*%
%TO.N,/IO17*%
X55140000Y-44000000D03*
%TO.P,J3,13,Pin_13*%
%TO.N,/IO16*%
X57680000Y-44000000D03*
%TO.P,J3,14,Pin_14*%
%TO.N,/IO4*%
X60220000Y-44000000D03*
%TO.P,J3,15,Pin_15*%
%TO.N,/IO0_CON*%
X62760000Y-44000000D03*
%TO.P,J3,16,Pin_16*%
%TO.N,/IO2*%
X65300000Y-44000000D03*
%TO.P,J3,17,Pin_17*%
%TO.N,/IO15*%
X67840000Y-44000000D03*
%TD*%
D17*
%TO.P,R1,1*%
%TO.N,Net-(J2-Pin_2)*%
X41750000Y-34510000D03*
%TO.P,R1,2*%
%TO.N,GND*%
X41750000Y-33490000D03*
%TD*%
D12*
%TO.P,J4,1,Pin_1*%
%TO.N,GND*%
X27200000Y-27200000D03*
D13*
%TO.P,J4,2,Pin_2*%
%TO.N,/+3v3*%
X29740000Y-27200000D03*
%TO.P,J4,3,Pin_3*%
%TO.N,/EN*%
X32280000Y-27200000D03*
%TO.P,J4,4,Pin_4*%
%TO.N,/I36*%
X34820000Y-27200000D03*
%TO.P,J4,5,Pin_5*%
%TO.N,/I39*%
X37360000Y-27200000D03*
%TO.P,J4,6,Pin_6*%
%TO.N,/I34*%
X39900000Y-27200000D03*
%TO.P,J4,7,Pin_7*%
%TO.N,/I35*%
X42440000Y-27200000D03*
%TO.P,J4,8,Pin_8*%
%TO.N,/IO32*%
X44980000Y-27200000D03*
%TO.P,J4,9,Pin_9*%
%TO.N,/IO33*%
X47520000Y-27200000D03*
%TO.P,J4,10,Pin_10*%
%TO.N,/IO25*%
X50060000Y-27200000D03*
%TO.P,J4,11,Pin_11*%
%TO.N,/IO26*%
X52600000Y-27200000D03*
%TO.P,J4,12,Pin_12*%
%TO.N,/IO27*%
X55140000Y-27200000D03*
%TO.P,J4,13,Pin_13*%
%TO.N,/IO14*%
X57680000Y-27200000D03*
%TO.P,J4,14,Pin_14*%
%TO.N,/IO12*%
X60220000Y-27200000D03*
%TO.P,J4,15,Pin_15*%
%TO.N,GND*%
X62760000Y-27200000D03*
%TO.P,J4,16,Pin_16*%
%TO.N,/IO13*%
X65300000Y-27200000D03*
%TO.P,J4,17,Pin_17*%
%TO.N,/+5V_EXT*%
X67840000Y-27200000D03*
%TD*%
D18*
%TO.N,*%
X48500000Y-28250000D03*
%TO.N,GND*%
X32500000Y-33250000D03*
X60931343Y-33790902D03*
X58750000Y-33000000D03*
X30750000Y-29750000D03*
X29250000Y-41500000D03*
X39250000Y-36000000D03*
X39250000Y-30000000D03*
X41750000Y-32750000D03*
X52500000Y-38250000D03*
X42750000Y-32750000D03*
X31750000Y-32750000D03*
X27750000Y-37250000D03*
X31750000Y-35250000D03*
X36250000Y-32750000D03*
X39250000Y-30000000D03*
X28500000Y-36500000D03*
X66750000Y-32370000D03*
X27750000Y-33250000D03*
X47000000Y-35500000D03*
X36250000Y-35750000D03*
X68113247Y-35970001D03*
X26750000Y-29500000D03*
X71250000Y-29750000D03*
X82500000Y-32500000D03*
X44750000Y-29250000D03*
X55500000Y-32500000D03*
X87922500Y-42827500D03*
X32500000Y-35250000D03*
X60000000Y-32250000D03*
X31750000Y-30000000D03*
X31500000Y-41500000D03*
X48750000Y-35300003D03*
X87922500Y-27827500D03*
X65687793Y-34439207D03*
%TO.N,/+3v3*%
X43750000Y-29250000D03*
X29250000Y-29500000D03*
X56500000Y-38000000D03*
X63250000Y-35750000D03*
X52500000Y-37250000D03*
X45750000Y-31750000D03*
X56250000Y-33000000D03*
X61750000Y-35750000D03*
X49546032Y-35220395D03*
X64250000Y-35750000D03*
X85382500Y-27867500D03*
X26500000Y-41250000D03*
X61000000Y-35750000D03*
X64500000Y-33750000D03*
X46157328Y-31262934D03*
%TO.N,Net-(C7-Pad1)*%
X51000000Y-38750000D03*
X39250000Y-38250000D03*
%TO.N,/USB_DN*%
X46750000Y-33500000D03*
X34750000Y-34250000D03*
X34750000Y-34250000D03*
%TO.N,/USB_DP*%
X47000000Y-34500000D03*
X31250000Y-37750000D03*
%TO.N,/IO18*%
X66000000Y-39500000D03*
X77762500Y-42762500D03*
%TO.N,/IO22*%
X85382500Y-42882500D03*
%TO.N,/IO19*%
X79032500Y-42782500D03*
%TO.N,/IO4*%
X72682500Y-42817500D03*
%TO.N,/RXD0*%
X82842500Y-42842500D03*
%TO.N,/IO21*%
X81572500Y-42822500D03*
%TO.N,/IO2*%
X69000000Y-42750000D03*
%TO.N,/IO16*%
X73952500Y-42797500D03*
%TO.N,/TXD0*%
X84112500Y-42862500D03*
%TO.N,/IO17*%
X75222500Y-42777500D03*
%TO.N,/IO5*%
X76492500Y-42757500D03*
%TO.N,/IO23*%
X86652500Y-42902500D03*
%TO.N,/IO27*%
X74000000Y-28000000D03*
%TO.N,/IO14*%
X72750000Y-28000000D03*
%TO.N,/I35*%
X80302500Y-27947500D03*
%TO.N,/IO25*%
X76500000Y-28000000D03*
%TO.N,/IO13*%
X69500000Y-27250000D03*
%TO.N,/IO26*%
X75250000Y-28000000D03*
%TO.N,/IO32*%
X79000000Y-28000000D03*
%TO.N,/IO33*%
X57403042Y-29915000D03*
X51000000Y-28500000D03*
X77750000Y-28000000D03*
%TO.N,/I34*%
X81572500Y-27927500D03*
%TO.N,/IO12*%
X71250000Y-28000000D03*
%TO.N,/EN*%
X86500000Y-28000000D03*
X32250000Y-28750000D03*
X50000000Y-37000000D03*
%TO.N,/I36*%
X84112500Y-27887500D03*
%TO.N,/I39*%
X82842500Y-27907500D03*
%TO.N,/DTR*%
X40750000Y-39250000D03*
X45500000Y-36750000D03*
%TO.N,/RXD*%
X38250000Y-41000000D03*
X44250000Y-38500000D03*
%TO.N,/TXD*%
X40750000Y-40750000D03*
X45250000Y-38000000D03*
%TO.N,/IO0*%
X71412500Y-42837500D03*
X66327000Y-42122000D03*
%TD*%
D19*
%TO.N,GND*%
X39500000Y-36250000D02*
X39250000Y-36000000D01*
X42750000Y-33520000D02*
X42750000Y-32750000D01*
X39500000Y-36750000D02*
X39500000Y-36250000D01*
X40250000Y-32350000D02*
X41350000Y-32350000D01*
X41750000Y-33490000D02*
X41750000Y-32750000D01*
X41350000Y-32350000D02*
X41750000Y-32750000D01*
D20*
%TO.N,Net-(J2-Pin_2)*%
X43750000Y-34500000D02*
X41760000Y-34500000D01*
X31928000Y-40428000D02*
X34822000Y-40428000D01*
X40307000Y-33067000D02*
X41750000Y-34510000D01*
X30622000Y-39122000D02*
X31928000Y-40428000D01*
X34822000Y-40428000D02*
X36000000Y-39250000D01*
X32628000Y-34622000D02*
X31489873Y-34622000D01*
X35128000Y-32122000D02*
X32628000Y-34622000D01*
X39022000Y-32122000D02*
X35128000Y-32122000D01*
X41760000Y-34500000D02*
X41750000Y-34510000D01*
X39967000Y-33067000D02*
X40307000Y-33067000D01*
X39250000Y-32350000D02*
X39022000Y-32122000D01*
X39917000Y-37333000D02*
X40500000Y-36750000D01*
X36000000Y-39250000D02*
X37917000Y-37333000D01*
X30622000Y-35489873D02*
X30622000Y-39122000D01*
X31489873Y-34622000D02*
X30622000Y-35489873D01*
X39250000Y-32350000D02*
X39967000Y-33067000D01*
X37917000Y-37333000D02*
X39917000Y-37333000D01*
%TO.N,Net-(C7-Pad1)*%
X42968406Y-38250000D02*
X39250000Y-38250000D01*
X48756589Y-38750000D02*
X46128589Y-36122000D01*
X51000000Y-38750000D02*
X48756589Y-38750000D01*
X45096406Y-36122000D02*
X42968406Y-38250000D01*
X46128589Y-36122000D02*
X45096406Y-36122000D01*
D19*
%TO.N,/USB_DN*%
X46205000Y-34045000D02*
X45561532Y-34045000D01*
X39900000Y-33650000D02*
X39750000Y-33650000D01*
X44356532Y-35250000D02*
X41500000Y-35250000D01*
X46750000Y-33500000D02*
X46205000Y-34045000D01*
X34750000Y-34250000D02*
X35500000Y-34250000D01*
X34750000Y-34250000D02*
X34850000Y-34350000D01*
X45561532Y-34045000D02*
X44356532Y-35250000D01*
X39972000Y-33622000D02*
X39972000Y-33650000D01*
X35500000Y-34250000D02*
X36100000Y-33650000D01*
X36100000Y-33650000D02*
X39750000Y-33650000D01*
X41500000Y-35250000D02*
X39900000Y-33650000D01*
X39972000Y-33650000D02*
X40000000Y-33650000D01*
%TO.N,/USB_DP*%
X44595000Y-35655000D02*
X45750000Y-34500000D01*
X45750000Y-34500000D02*
X47000000Y-34500000D01*
X40205000Y-35655000D02*
X44595000Y-35655000D01*
X34122000Y-34878000D02*
X39428000Y-34878000D01*
X40000000Y-35450000D02*
X40205000Y-35655000D01*
X40000000Y-35450000D02*
X39428000Y-34878000D01*
X31250000Y-37750000D02*
X34122000Y-34878000D01*
D20*
%TO.N,/IO18*%
X74500000Y-39500000D02*
X66000000Y-39500000D01*
X77762500Y-42762500D02*
X74500000Y-39500000D01*
X56468064Y-41385001D02*
X55684798Y-42168266D01*
X60184596Y-41385000D02*
X56468064Y-41385001D01*
X62069596Y-39500000D02*
X60184596Y-41385000D01*
X51891734Y-42168266D02*
X50060000Y-44000000D01*
X55684798Y-42168266D02*
X51891734Y-42168266D01*
X66000000Y-39500000D02*
X62069596Y-39500000D01*
%TO.N,/IO22*%
X43874597Y-40635000D02*
X42638065Y-41871532D01*
X79552000Y-37052000D02*
X61198000Y-37052000D01*
X85382500Y-42882500D02*
X79552000Y-37052000D01*
X42638065Y-41871532D02*
X40741532Y-41871532D01*
X47873065Y-40635000D02*
X43874597Y-40635000D01*
X36453000Y-42367000D02*
X34820000Y-44000000D01*
X48614797Y-39893267D02*
X47873065Y-40635000D01*
X59139999Y-39110001D02*
X55525727Y-39110003D01*
X40246065Y-42367000D02*
X36453000Y-42367000D01*
X54742463Y-39893266D02*
X48614797Y-39893267D01*
X55525727Y-39110003D02*
X54742463Y-39893266D01*
X40741532Y-41871532D02*
X40246065Y-42367000D01*
X61198000Y-37052000D02*
X59139999Y-39110001D01*
%TO.N,/IO19*%
X49806734Y-41713266D02*
X47520000Y-44000000D01*
X56279597Y-40930001D02*
X55496331Y-41713266D01*
X75122000Y-38872000D02*
X62054128Y-38872000D01*
X62054128Y-38872000D02*
X59996128Y-40930000D01*
X59996128Y-40930000D02*
X56279597Y-40930001D01*
X79032500Y-42782500D02*
X75122000Y-38872000D01*
X55496331Y-41713266D02*
X49806734Y-41713266D01*
%TO.N,/IO4*%
X71994000Y-41494000D02*
X72682500Y-42182500D01*
X72682500Y-42182500D02*
X72682500Y-42817500D01*
X62726000Y-41494000D02*
X71994000Y-41494000D01*
X60220000Y-44000000D02*
X62726000Y-41494000D01*
%TO.N,/RXD0*%
X44251532Y-41545000D02*
X42951238Y-42845294D01*
X42927944Y-42822000D02*
X41078000Y-42822000D01*
X55902662Y-40020002D02*
X55119397Y-40803266D01*
X42951238Y-42845294D02*
X42927944Y-42822000D01*
X61619533Y-37962000D02*
X59561533Y-40020000D01*
X55119397Y-40803266D02*
X48991733Y-40803267D01*
X59561533Y-40020000D02*
X55902662Y-40020002D01*
X48991733Y-40803267D02*
X48250000Y-41545000D01*
X82842500Y-42842500D02*
X77962000Y-37962000D01*
X41078000Y-42822000D02*
X39900000Y-44000000D01*
X77962000Y-37962000D02*
X61619533Y-37962000D01*
X48250000Y-41545000D02*
X44251532Y-41545000D01*
%TO.N,/IO21*%
X81572500Y-42822500D02*
X77167000Y-38417000D01*
X49618266Y-41258266D02*
X48876533Y-42000000D01*
X56091130Y-40475001D02*
X55307864Y-41258266D01*
X44440000Y-42000000D02*
X42440000Y-44000000D01*
X77167000Y-38417000D02*
X61808000Y-38417000D01*
X61808000Y-38417000D02*
X59750000Y-40475000D01*
X55307864Y-41258266D02*
X49618266Y-41258266D01*
X48876533Y-42000000D02*
X44440000Y-42000000D01*
X59750000Y-40475000D02*
X56091130Y-40475001D01*
%TO.N,/IO2*%
X66550000Y-42750000D02*
X65300000Y-44000000D01*
X69000000Y-42750000D02*
X66550000Y-42750000D01*
%TO.N,/IO16*%
X62461000Y-41039000D02*
X60750000Y-42750000D01*
X72194000Y-41039000D02*
X62461000Y-41039000D01*
X58930000Y-42750000D02*
X57680000Y-44000000D01*
X60750000Y-42750000D02*
X58930000Y-42750000D01*
X73952500Y-42797500D02*
X72194000Y-41039000D01*
%TO.N,/TXD0*%
X78757000Y-37507000D02*
X61431064Y-37507000D01*
X44063064Y-41090000D02*
X42826532Y-42326532D01*
X48803265Y-40348267D02*
X48061532Y-41090000D01*
X38538000Y-42822000D02*
X37360000Y-44000000D01*
X56750000Y-39565001D02*
X55714195Y-39565002D01*
X55714195Y-39565002D02*
X54930930Y-40348266D01*
X84112500Y-42862500D02*
X78757000Y-37507000D01*
X54930930Y-40348266D02*
X48803265Y-40348267D01*
X48061532Y-41090000D02*
X44063064Y-41090000D01*
X40930000Y-42326532D02*
X40434532Y-42822000D01*
X61431064Y-37507000D02*
X59373064Y-39565001D01*
X59373064Y-39565001D02*
X56750000Y-39565001D01*
X40434532Y-42822000D02*
X38538000Y-42822000D01*
X42826532Y-42326532D02*
X40930000Y-42326532D01*
%TO.N,/IO17*%
X73029000Y-40584000D02*
X62272532Y-40584000D01*
X56845000Y-42295000D02*
X55140000Y-44000000D01*
X60561532Y-42295000D02*
X56845000Y-42295000D01*
X62272532Y-40584000D02*
X60561532Y-42295000D01*
X75222500Y-42777500D02*
X73029000Y-40584000D01*
%TO.N,/IO5*%
X53976734Y-42623266D02*
X55873266Y-42623266D01*
X62084064Y-40129000D02*
X73864000Y-40129000D01*
X56656532Y-41840000D02*
X60373064Y-41840000D01*
X52600000Y-44000000D02*
X53976734Y-42623266D01*
X55873266Y-42623266D02*
X56656532Y-41840000D01*
X73864000Y-40129000D02*
X76492500Y-42757500D01*
X60373064Y-41840000D02*
X62084064Y-40129000D01*
%TO.N,/IO23*%
X47750000Y-33611873D02*
X47750000Y-36500000D01*
X50500000Y-38295000D02*
X50673000Y-38122000D01*
X43686129Y-40180000D02*
X42449597Y-41416532D01*
X52750000Y-39438267D02*
X52500000Y-39438267D01*
X47684598Y-40180000D02*
X43686129Y-40180000D01*
X58951531Y-38655001D02*
X55337260Y-38655003D01*
X86652500Y-42902500D02*
X80347000Y-36597000D01*
X80347000Y-36597000D02*
X61009532Y-36597000D01*
X40553064Y-41416533D02*
X40057598Y-41912000D01*
X43750000Y-33480000D02*
X45881873Y-33480000D01*
X52500000Y-39438267D02*
X48426329Y-39438268D01*
X40057598Y-41912000D02*
X36264532Y-41912001D01*
X36264532Y-41912001D02*
X35354533Y-42822000D01*
X45881873Y-33480000D02*
X46489873Y-32872000D01*
X61009532Y-36597000D02*
X58951531Y-38655001D01*
X35354533Y-42822000D02*
X33458000Y-42822000D01*
X42449597Y-41416532D02*
X40553064Y-41416533D01*
X47750000Y-36500000D02*
X49545000Y-38295000D01*
X33458000Y-42822000D02*
X32280000Y-44000000D01*
X48426329Y-39438268D02*
X47684598Y-40180000D01*
X51510127Y-38122000D02*
X51510127Y-38148254D01*
X55337260Y-38655003D02*
X54553996Y-39438266D01*
X52500000Y-39138127D02*
X52500000Y-39438267D01*
X51510127Y-38148254D02*
X52500000Y-39138127D01*
X49545000Y-38295000D02*
X50500000Y-38295000D01*
X47010127Y-32872000D02*
X47750000Y-33611873D01*
X46489873Y-32872000D02*
X47010127Y-32872000D01*
X50673000Y-38122000D02*
X51510127Y-38122000D01*
X54553996Y-39438266D02*
X52750000Y-39438267D01*
%TO.N,/IO27*%
X66311532Y-29288000D02*
X61895120Y-29288000D01*
X72917000Y-29083000D02*
X69597402Y-29083000D01*
X58984532Y-28378000D02*
X57192056Y-28378000D01*
X69597402Y-29083000D02*
X68937402Y-29743000D01*
X59439532Y-28833000D02*
X58984532Y-28378000D01*
X66766532Y-29743000D02*
X66311532Y-29288000D01*
X68937402Y-29743000D02*
X66766532Y-29743000D01*
X74000000Y-28000000D02*
X72917000Y-29083000D01*
X61440120Y-28833000D02*
X59439532Y-28833000D01*
X57192056Y-28378000D02*
X56014056Y-27200000D01*
X61895120Y-29288000D02*
X61440120Y-28833000D01*
X56014056Y-27200000D02*
X55140000Y-27200000D01*
%TO.N,/IO14*%
X66955000Y-29288000D02*
X66500000Y-28833000D01*
X61622000Y-28378000D02*
X59628000Y-28378000D01*
X61625294Y-28374706D02*
X61622000Y-28378000D01*
X59628000Y-28378000D02*
X58450000Y-27200000D01*
X72122000Y-28628000D02*
X69408934Y-28628000D01*
X62083588Y-28833000D02*
X61625294Y-28374706D01*
X58450000Y-27200000D02*
X57680000Y-27200000D01*
X69408934Y-28628000D02*
X68748934Y-29288000D01*
X66500000Y-28833000D02*
X62083588Y-28833000D01*
X72750000Y-28000000D02*
X72122000Y-28628000D01*
X68748934Y-29288000D02*
X66955000Y-29288000D01*
%TO.N,/I35*%
X56510127Y-33628000D02*
X58541225Y-31596903D01*
X42440000Y-27200000D02*
X43740000Y-28500000D01*
X46843589Y-28833000D02*
X47439532Y-28833000D01*
X43740000Y-28500000D02*
X46510588Y-28500000D01*
X67750000Y-33000000D02*
X68500000Y-32250000D01*
X75569596Y-32250000D02*
X79191596Y-28628000D01*
X68500000Y-32250000D02*
X75569596Y-32250000D01*
X49045000Y-30438468D02*
X49045000Y-30938468D01*
X49045000Y-30938468D02*
X50311533Y-32205000D01*
X66498000Y-32998000D02*
X66500000Y-33000000D01*
X79622000Y-28628000D02*
X80302500Y-27947500D01*
X66122000Y-32622000D02*
X66122000Y-32630127D01*
X79191596Y-28628000D02*
X79622000Y-28628000D01*
X66500000Y-33000000D02*
X67750000Y-33000000D01*
X66122000Y-32630127D02*
X66489873Y-32998000D01*
X58541225Y-31596903D02*
X65096903Y-31596903D01*
X66489873Y-32998000D02*
X66498000Y-32998000D01*
X54250000Y-32205000D02*
X55673000Y-33628000D01*
X55673000Y-33628000D02*
X56510127Y-33628000D01*
X50311533Y-32205000D02*
X54250000Y-32205000D01*
X47439532Y-28833000D02*
X49045000Y-30438468D01*
X65096903Y-31596903D02*
X66122000Y-32622000D01*
X46510588Y-28500000D02*
X46843589Y-28833000D01*
%TO.N,/IO25*%
X57663169Y-29287000D02*
X57142915Y-29287000D01*
X66569597Y-30833000D02*
X65934596Y-30198000D01*
X50934056Y-27200000D02*
X50060000Y-27200000D01*
X57141915Y-29288000D02*
X56815120Y-29288000D01*
X57664169Y-29288000D02*
X57663169Y-29287000D01*
X52112056Y-28378000D02*
X50934056Y-27200000D01*
X57142915Y-29287000D02*
X57141915Y-29288000D01*
X61518184Y-30198000D02*
X61063184Y-29743000D01*
X58607595Y-29288000D02*
X57664169Y-29288000D01*
X54476238Y-28869706D02*
X53984532Y-28378000D01*
X65934596Y-30198000D02*
X61518184Y-30198000D01*
X76500000Y-28000000D02*
X73667000Y-30833000D01*
X61063184Y-29743000D02*
X59062596Y-29743000D01*
X73667000Y-30833000D02*
X66569597Y-30833000D01*
X56396826Y-28869706D02*
X54476238Y-28869706D01*
X53984532Y-28378000D02*
X52112056Y-28378000D01*
X59062596Y-29743000D02*
X58607595Y-29288000D01*
X56815120Y-29288000D02*
X56396826Y-28869706D01*
%TO.N,/IO13*%
X68372000Y-28378000D02*
X67352056Y-28378000D01*
X67352056Y-28378000D02*
X66174056Y-27200000D01*
X69500000Y-27250000D02*
X68372000Y-28378000D01*
X66174056Y-27200000D02*
X65300000Y-27200000D01*
%TO.N,/IO26*%
X61251651Y-29288000D02*
X61706651Y-29743000D01*
X66758065Y-30378000D02*
X72510127Y-30378000D01*
X66123063Y-29743000D02*
X66758065Y-30378000D01*
X57852637Y-28833000D02*
X58796062Y-28833000D01*
X53450000Y-27200000D02*
X54664706Y-28414706D01*
X61706651Y-29743000D02*
X66123063Y-29743000D01*
X58796062Y-28833000D02*
X59251064Y-29288000D01*
X59251064Y-29288000D02*
X61251651Y-29288000D01*
X72510127Y-30378000D02*
X74888127Y-28000000D01*
X57002588Y-28832000D02*
X57851636Y-28832000D01*
X52600000Y-27200000D02*
X53450000Y-27200000D01*
X56585293Y-28414706D02*
X57002588Y-28832000D01*
X74888127Y-28000000D02*
X75250000Y-28000000D01*
X54664706Y-28414706D02*
X56585293Y-28414706D01*
X57851636Y-28832000D02*
X57852637Y-28833000D01*
%TO.N,/IO32*%
X47628000Y-28378000D02*
X49500000Y-30250000D01*
X74635000Y-31743000D02*
X77750000Y-28628000D01*
X78372000Y-28628000D02*
X79000000Y-28000000D01*
X45924767Y-27200000D02*
X47102767Y-28378000D01*
X77750000Y-28628000D02*
X78372000Y-28628000D01*
X50500000Y-31750000D02*
X57106000Y-31750000D01*
X61141248Y-31108000D02*
X65557662Y-31108000D01*
X57106000Y-31750000D02*
X57178000Y-31678000D01*
X49500000Y-30250000D02*
X49500000Y-30750000D01*
X65557662Y-31108000D02*
X66192662Y-31743000D01*
X47102767Y-28378000D02*
X47628000Y-28378000D01*
X66192662Y-31743000D02*
X74635000Y-31743000D01*
X57178000Y-31678000D02*
X57178000Y-30653000D01*
X57178000Y-30653000D02*
X60686247Y-30653000D01*
X49500000Y-30750000D02*
X50500000Y-31750000D01*
X60686247Y-30653000D02*
X61141248Y-31108000D01*
X44980000Y-27200000D02*
X45924767Y-27200000D01*
%TO.N,/IO33*%
X66381130Y-31288000D02*
X65746129Y-30653000D01*
X60874714Y-30198000D02*
X57686042Y-30198000D01*
X57686042Y-30198000D02*
X57403042Y-29915000D01*
X65746129Y-30653000D02*
X61329716Y-30653000D01*
X74100126Y-31288000D02*
X66381130Y-31288000D01*
X77388127Y-28000000D02*
X74100126Y-31288000D01*
X49694056Y-28500000D02*
X48394056Y-27200000D01*
X48394056Y-27200000D02*
X47520000Y-27200000D01*
X77750000Y-28000000D02*
X77388127Y-28000000D01*
X61329716Y-30653000D02*
X60874714Y-30198000D01*
X51000000Y-28500000D02*
X49694056Y-28500000D01*
%TO.N,/I34*%
X45712000Y-29288000D02*
X45000000Y-30000000D01*
X57765797Y-33015797D02*
X56698594Y-34083000D01*
X58265797Y-32515797D02*
X58409594Y-32372000D01*
X50123064Y-32659999D02*
X48590000Y-31126934D01*
X64908435Y-32051903D02*
X65667000Y-32810468D01*
X48590000Y-30696534D02*
X47181467Y-29288000D01*
X79910000Y-29590000D02*
X81572500Y-27927500D01*
X59739873Y-32878000D02*
X60260127Y-32878000D01*
X68795002Y-32705000D02*
X75758064Y-32705000D01*
X60260127Y-32878000D02*
X61086223Y-32051903D01*
X47181467Y-29288000D02*
X45712000Y-29288000D01*
X59233873Y-32372000D02*
X59739873Y-32878000D01*
X40700000Y-27200000D02*
X39900000Y-27200000D01*
X58015797Y-32765797D02*
X58409594Y-32372000D01*
X65667000Y-32818595D02*
X66348406Y-33500000D01*
X61086223Y-32051903D02*
X64908435Y-32051903D01*
X54061534Y-32660001D02*
X50123064Y-32659999D01*
X56698594Y-34083000D02*
X55484532Y-34083000D01*
X58500000Y-32372000D02*
X59010127Y-32372000D01*
X58409594Y-32372000D02*
X58500000Y-32372000D01*
X58500000Y-32372000D02*
X59233873Y-32372000D01*
X57765797Y-33015797D02*
X58265797Y-32515797D01*
X65667000Y-32810468D02*
X65667000Y-32818595D01*
X75758064Y-32705000D02*
X78873067Y-29590000D01*
X58409594Y-32372000D02*
X59010127Y-32372000D01*
X68000002Y-33500000D02*
X68795002Y-32705000D01*
X55484532Y-34083000D02*
X54061534Y-32660001D01*
X78873067Y-29590000D02*
X79910000Y-29590000D01*
X45000000Y-30000000D02*
X43500000Y-30000000D01*
X59372000Y-32510127D02*
X59739873Y-32878000D01*
X58015797Y-32765797D02*
X57765797Y-33015797D01*
X66348406Y-33500000D02*
X68000002Y-33500000D01*
X48590000Y-31126934D02*
X48590000Y-30696534D01*
X43500000Y-30000000D02*
X40700000Y-27200000D01*
%TO.N,/IO12*%
X68560467Y-28833000D02*
X67163589Y-28833000D01*
X66708589Y-28378000D02*
X62272056Y-28378000D01*
X69393467Y-28000000D02*
X69071734Y-28321734D01*
X62272056Y-28378000D02*
X61094056Y-27200000D01*
X69071734Y-28321734D02*
X68560467Y-28833000D01*
X67163589Y-28833000D02*
X66708589Y-28378000D01*
X61094056Y-27200000D02*
X60220000Y-27200000D01*
X71250000Y-28000000D02*
X69393467Y-28000000D01*
%TO.N,/EN*%
X50750000Y-35217336D02*
X50750000Y-36250000D01*
X76323465Y-34070000D02*
X79438468Y-30955000D01*
X67955000Y-35000000D02*
X68430403Y-35000000D01*
X38500000Y-31500000D02*
X45000000Y-31500000D01*
X67205000Y-35750000D02*
X67955000Y-35000000D01*
X68430403Y-35000000D02*
X69360404Y-34070000D01*
X50000000Y-37000000D02*
X50750000Y-36250000D01*
X32250000Y-28750000D02*
X35750000Y-28750000D01*
X47910664Y-32378000D02*
X50750000Y-35217336D01*
X59750000Y-36111873D02*
X59930936Y-35930936D01*
X59611872Y-36250000D02*
X59930936Y-35930936D01*
X65356532Y-35750000D02*
X67205000Y-35750000D01*
X45489873Y-32378000D02*
X47910664Y-32378000D01*
X35750000Y-28750000D02*
X38500000Y-31500000D01*
X55500000Y-36250000D02*
X59000000Y-36250000D01*
X45000000Y-31888127D02*
X45489873Y-32378000D01*
X59000000Y-36250000D02*
X59611872Y-36250000D01*
X64606532Y-35000000D02*
X65356532Y-35750000D01*
X59611872Y-36250000D02*
X55500000Y-36250000D01*
X60861872Y-35000000D02*
X64606532Y-35000000D01*
X59930936Y-35930936D02*
X60861872Y-35000000D01*
X69360404Y-34070000D02*
X76323465Y-34070000D01*
X79438468Y-30955000D02*
X81688468Y-30955000D01*
X82643467Y-30000000D02*
X84500000Y-30000000D01*
X45000000Y-31500000D02*
X45000000Y-31888127D01*
X81688468Y-30955000D02*
X82643467Y-30000000D01*
X84500000Y-30000000D02*
X86500000Y-28000000D01*
X50750000Y-36250000D02*
X55500000Y-36250000D01*
%TO.N,/I36*%
X40561533Y-30955000D02*
X45521188Y-30955000D01*
X57568530Y-34500000D02*
X64750000Y-34500000D01*
X53684599Y-33570000D02*
X55107598Y-34993000D01*
X67090000Y-34410000D02*
X68376936Y-34410000D01*
X66250000Y-35250000D02*
X67090000Y-34410000D01*
X57075530Y-34993000D02*
X57568530Y-34500000D01*
X46804532Y-30198000D02*
X47680000Y-31073468D01*
X76134998Y-33615000D02*
X79250001Y-30500000D01*
X40356533Y-30750000D02*
X40561533Y-30955000D01*
X34820000Y-27200000D02*
X38370000Y-30750000D01*
X45521188Y-30955000D02*
X46278189Y-30198000D01*
X49746130Y-33569999D02*
X53684599Y-33570000D01*
X55107598Y-34993000D02*
X57075530Y-34993000D01*
X68376936Y-34410000D02*
X69171937Y-33615000D01*
X46278189Y-30198000D02*
X46804532Y-30198000D01*
X47680000Y-31503868D02*
X49746130Y-33569999D01*
X38370000Y-30750000D02*
X40356533Y-30750000D01*
X69171937Y-33615000D02*
X76134998Y-33615000D01*
X47680000Y-31073468D02*
X47680000Y-31503868D01*
X64750000Y-34500000D02*
X65500000Y-35250000D01*
X65500000Y-35250000D02*
X66250000Y-35250000D01*
X79250001Y-30500000D02*
X81500000Y-30500000D01*
X81500000Y-30500000D02*
X84112500Y-27887500D01*
%TO.N,/I39*%
X59378000Y-33260127D02*
X59378000Y-33159594D01*
X61274690Y-32506903D02*
X64719967Y-32506903D01*
X68983470Y-33160000D02*
X75946531Y-33160000D01*
X46089722Y-29743000D02*
X46993000Y-29743000D01*
X68188469Y-33955000D02*
X68983470Y-33160000D01*
X66159939Y-33955000D02*
X68188469Y-33955000D01*
X56887062Y-34538000D02*
X58143468Y-33281594D01*
X75946531Y-33160000D02*
X79061534Y-30045000D01*
X79061534Y-30045000D02*
X80705000Y-30045000D01*
X45332721Y-30500000D02*
X46089722Y-29743000D01*
X65212001Y-33007063D02*
X66159939Y-33955000D01*
X46993000Y-29743000D02*
X48135000Y-30885001D01*
X65212000Y-32998936D02*
X65212001Y-33007063D01*
X80705000Y-30045000D02*
X82842500Y-27907500D01*
X58143468Y-33281594D02*
X58489873Y-33628000D01*
X48135000Y-31315401D02*
X49934597Y-33114999D01*
X58489873Y-33628000D02*
X59010127Y-33628000D01*
X59010127Y-33628000D02*
X59378000Y-33260127D01*
X53873067Y-33115001D02*
X55296065Y-34538000D01*
X55296065Y-34538000D02*
X56887062Y-34538000D01*
X37461341Y-27200000D02*
X40750000Y-30488659D01*
X40750000Y-30500000D02*
X45332721Y-30500000D01*
X40750000Y-30488659D02*
X40750000Y-30500000D01*
X64719967Y-32506903D02*
X65212000Y-32998936D01*
X59551406Y-33333000D02*
X60448595Y-33332999D01*
X60448595Y-33332999D02*
X61274690Y-32506903D01*
X49934597Y-33114999D02*
X53873067Y-33115001D01*
X37360000Y-27200000D02*
X37461341Y-27200000D01*
X48135000Y-30885001D02*
X48135000Y-31315401D01*
X59378000Y-33159594D02*
X59551406Y-33333000D01*
%TO.N,/DTR*%
X45500000Y-36750000D02*
X45150057Y-36750000D01*
X43622000Y-38278056D02*
X42400056Y-39500000D01*
X45150057Y-36750000D02*
X44028057Y-37872000D01*
X44028057Y-37872000D02*
X43989873Y-37872000D01*
X43989873Y-37872000D02*
X43622000Y-38239873D01*
X43622000Y-38239873D02*
X43622000Y-38278056D01*
X41000000Y-39500000D02*
X40750000Y-39250000D01*
X42400056Y-39500000D02*
X41000000Y-39500000D01*
%TO.N,/RXD*%
X42457194Y-40122000D02*
X43309195Y-39270000D01*
X38250000Y-41000000D02*
X39128000Y-40122000D01*
X39128000Y-40122000D02*
X42457194Y-40122000D01*
X44250000Y-39270000D02*
X44250000Y-38500000D01*
X43309195Y-39270000D02*
X44250000Y-39270000D01*
%TO.N,/TXD*%
X43497662Y-39725000D02*
X44525000Y-39725000D01*
X45250000Y-39000000D02*
X45250000Y-38000000D01*
X44525000Y-39725000D02*
X45250000Y-39000000D01*
X42472661Y-40750000D02*
X43497662Y-39725000D01*
X40750000Y-40750000D02*
X42472661Y-40750000D01*
%TO.N,/IO0*%
X71412500Y-42837500D02*
X70697000Y-42122000D01*
X70697000Y-42122000D02*
X66327000Y-42122000D01*
%TD*%
%TA.AperFunction,Conductor*%
%TO.N,GND*%
G36*
X43017168Y-32096385D02*
G01*
X43062923Y-32149189D01*
X43074114Y-32198802D01*
X43084464Y-32875027D01*
X43065808Y-32942360D01*
X43059104Y-32951997D01*
X42977131Y-33090606D01*
X42977129Y-33090611D01*
X42932335Y-33244791D01*
X42932334Y-33244797D01*
X42929500Y-33280811D01*
X42929500Y-33280819D01*
X42929500Y-33466965D01*
X42929501Y-33575500D01*
X42909817Y-33642539D01*
X42857013Y-33688294D01*
X42805501Y-33699500D01*
X42515302Y-33699500D01*
X42479008Y-33702356D01*
X42479002Y-33702357D01*
X42323605Y-33747505D01*
X42280646Y-33772910D01*
X42212921Y-33790091D01*
X42182932Y-33785254D01*
X42035204Y-33742335D01*
X42035201Y-33742334D01*
X42035202Y-33742334D01*
X41999188Y-33739500D01*
X41999181Y-33739500D01*
X41846439Y-33739500D01*
X41779400Y-33719815D01*
X41758758Y-33703181D01*
X41422518Y-33366941D01*
X41389033Y-33305618D01*
X41386206Y-33277981D01*
X41386549Y-33244791D01*
X41390000Y-32910000D01*
X41389999Y-32909999D01*
X41390000Y-32909999D01*
X41004753Y-32900753D01*
X40938205Y-32879466D01*
X40920047Y-32864470D01*
X40661104Y-32605527D01*
X40661098Y-32605522D01*
X40529600Y-32529602D01*
X40529599Y-32529601D01*
X40529598Y-32529601D01*
X40382924Y-32490300D01*
X40382923Y-32490300D01*
X40257239Y-32490300D01*
X40227798Y-32481655D01*
X40197812Y-32475132D01*
X40192796Y-32471377D01*
X40190200Y-32470615D01*
X40169558Y-32453981D01*
X40003958Y-32288381D01*
X39970473Y-32227058D01*
X39975457Y-32157366D01*
X40017329Y-32101433D01*
X40082793Y-32077016D01*
X40091639Y-32076700D01*
X42950129Y-32076700D01*
X43017168Y-32096385D01*
G37*
%TD.AperFunction*%
%TD*%
M02*
